<svg height="84" viewBox="0 0 80 84" width="80" xmlns="http://www.w3.org/2000/svg"><g fill="none" fill-rule="evenodd"><path d="m48.6968 68.9922v-12.714c0-4.826-6.85-8.466-15.932-8.466-.105 0-.207.01-.313.01v-.802c0-4.826-6.85-8.465-15.93-8.465-2.051 0-3.977.194-5.746.537-.068-.846-.115-1.697-.115-2.56 0-18.127 14.746-32.874 32.873-32.874s32.873 14.747 32.873 32.874c.001 16.369-12.028 29.976-27.71 32.46zm-15.931-7.25c-.105 0-.207-.006-.313-.008v-10.908c.107-.002.205-.014.313-.014 7.621 0 12.932 2.881 12.932 5.466s-5.311 5.464-12.932 5.464zm12.931 1.5c0 2.585-5.311 5.465-12.932 5.465-.107 0-.209-.01-.313-.014v-3.959c.104.002.207.008.313.008 5.453 0 10.088-1.317 12.932-3.41zm0 6.965c0 2.584-5.311 5.465-12.932 5.465-.131 0-.254-.01-.383-.012.041-.258.07-.518.07-.783v-3.182c.104.003.205.012.313.012 5.453 0 10.088-1.318 12.932-3.41zm-29.174-17.723c-7.621 0-12.932-2.88-12.932-5.465 0-2.584 5.311-5.465 12.932-5.465 7.619 0 12.93 2.881 12.93 5.465 0 2.581-5.529 5.465-12.93 5.465zm12.93 1.5c0 2.58-5.529 5.465-12.93 5.465-7.621 0-12.932-2.881-12.932-5.465v-1.91c2.844 2.092 7.479 3.41 12.932 3.41 5.451 0 10.086-1.318 12.93-3.41zm0 6.965c0 2.584-5.311 5.464-12.93 5.464-7.621 0-12.932-2.88-12.932-5.464v-1.911c2.844 2.093 7.479 3.411 12.932 3.411 5.451 0 10.086-1.318 12.93-3.411zm0 6.964c0 2.585-5.311 5.464-12.93 5.464-7.621 0-12.932-2.879-12.932-5.464v-1.911c2.844 2.094 7.479 3.411 12.932 3.411 5.451 0 10.086-1.317 12.93-3.411zm0 6.964c0 2.585-5.311 5.465-12.93 5.465-7.621 0-12.932-2.88-12.932-5.465v-1.91c2.844 2.093 7.479 3.41 12.932 3.41 5.451 0 10.086-1.317 12.93-3.41zm14.082-74.22c-19.781 0-35.873 16.093-35.873 35.874 0 1.122.072 2.225.178 3.319-4.42 1.471-7.248 4.073-7.248 7.169v27.857c0 4.826 6.85 8.465 15.932 8.465 6.527 0 11.887-1.886 14.393-4.736.607.035 1.219.066 1.85.066 7.869 0 14.053-2.734 15.566-6.602 17.52-2.354 31.076-17.387 31.076-35.539-.001-19.78-16.093-35.873-35.874-35.873z" fill="#8c8c8c"/><g fill="#7490b1"><path d="m41.611 35h2.222v-25h-2.222z"/><path d="m41.611 35h25v-2.222h-25z"/></g></g></svg>