<?xml version="1.0" encoding="UTF-8"?>
<svg width="80px" height="80px" viewBox="0 0 80 80" version="1.1" xmlns="http://www.w3.org/2000/svg" xmlns:xlink="http://www.w3.org/1999/xlink">
    <!-- Generator: Sketch 52.4 (67378) - http://www.bohemiancoding.com/sketch -->
    <title>Artboard</title>
    <desc>Created with Sketch.</desc>
    <defs>
        <polygon id="path-1" points="0 59.6750847 59.6750847 59.6750847 59.6750847 0 0 0"></polygon>
    </defs>
    <g id="Artboard" stroke="none" stroke-width="1" fill="none" fill-rule="evenodd">
        <g id="Group-59-Copy" transform="translate(9.000000, 10.000000)">
            <path d="M2.72145763,1.36072881 C2.72145763,2.11276271 2.11230508,2.72140678 1.36077966,2.72140678 C0.609254237,2.72140678 0.000101694915,2.11276271 0.000101694915,1.36072881 C0.000101694915,0.608694915 0.609254237,5.08474576e-05 1.36077966,5.08474576e-05 C2.11230508,5.08474576e-05 2.72145763,0.608694915 2.72145763,1.36072881" id="Fill-1" fill="#62B0F6"></path>
            <path d="M16.9599661,1.36072881 C16.9599661,2.11276271 16.3508136,2.72140678 15.5992881,2.72140678 C14.8477627,2.72140678 14.2381017,2.11276271 14.2381017,1.36072881 C14.2381017,0.608694915 14.8477627,5.08474576e-05 15.5992881,5.08474576e-05 C16.3508136,5.08474576e-05 16.9599661,0.608694915 16.9599661,1.36072881" id="Fill-3" fill="#62B0F6"></path>
            <path d="M31.1982712,1.36072881 C31.1982712,2.11276271 30.5891186,2.72140678 29.8375932,2.72140678 C29.0860678,2.72140678 28.4764068,2.11276271 28.4764068,1.36072881 C28.4764068,0.608694915 29.0860678,5.08474576e-05 29.8375932,5.08474576e-05 C30.5891186,5.08474576e-05 31.1982712,0.608694915 31.1982712,1.36072881" id="Fill-5" fill="#62B0F6"></path>
            <path d="M45.4367797,1.36072881 C45.4367797,2.11276271 44.8276271,2.72140678 44.0761017,2.72140678 C43.3245763,2.72140678 42.7149153,2.11276271 42.7149153,1.36072881 C42.7149153,0.608694915 43.3245763,5.08474576e-05 44.0761017,5.08474576e-05 C44.8276271,5.08474576e-05 45.4367797,0.608694915 45.4367797,1.36072881" id="Fill-7" fill="#62B0F6"></path>
            <path d="M2.72145763,15.5990339 C2.72145763,16.3510678 2.11230508,16.9602203 1.36077966,16.9602203 C0.609254237,16.9602203 0.000101694915,16.3510678 0.000101694915,15.5990339 C0.000101694915,14.8475085 0.609254237,14.2383559 1.36077966,14.2383559 C2.11230508,14.2383559 2.72145763,14.8475085 2.72145763,15.5990339" id="Fill-9" fill="#62B0F6"></path>
            <path d="M16.9599661,15.5990339 C16.9599661,16.3510678 16.3508136,16.9602203 15.5992881,16.9602203 C14.8477627,16.9602203 14.2381017,16.3510678 14.2381017,15.5990339 C14.2381017,14.8475085 14.8477627,14.2383559 15.5992881,14.2383559 C16.3508136,14.2383559 16.9599661,14.8475085 16.9599661,15.5990339" id="Fill-11" fill="#62B0F6"></path>
            <path d="M31.1982712,15.5990339 C31.1982712,16.3510678 30.5891186,16.9602203 29.8375932,16.9602203 C29.0860678,16.9602203 28.4764068,16.3510678 28.4764068,15.5990339 C28.4764068,14.8475085 29.0860678,14.2383559 29.8375932,14.2383559 C30.5891186,14.2383559 31.1982712,14.8475085 31.1982712,15.5990339" id="Fill-13" fill="#62B0F6"></path>
            <path d="M45.4367797,15.5990339 C45.4367797,16.3510678 44.8276271,16.9602203 44.0761017,16.9602203 C43.3245763,16.9602203 42.7149153,16.3510678 42.7149153,15.5990339 C42.7149153,14.8475085 43.3245763,14.2383559 44.0761017,14.2383559 C44.8276271,14.2383559 45.4367797,14.8475085 45.4367797,15.5990339" id="Fill-15" fill="#62B0F6"></path>
            <path d="M2.72145763,29.8372881 C2.72145763,30.589322 2.11230508,31.1984746 1.36077966,31.1984746 C0.609254237,31.1984746 0.000101694915,30.589322 0.000101694915,29.8372881 C0.000101694915,29.0857627 0.609254237,28.4766102 1.36077966,28.4766102 C2.11230508,28.4766102 2.72145763,29.0857627 2.72145763,29.8372881" id="Fill-17" fill="#62B0F6"></path>
            <path d="M16.9599661,29.8372881 C16.9599661,30.589322 16.3508136,31.1984746 15.5992881,31.1984746 C14.8477627,31.1984746 14.2381017,30.589322 14.2381017,29.8372881 C14.2381017,29.0857627 14.8477627,28.4766102 15.5992881,28.4766102 C16.3508136,28.4766102 16.9599661,29.0857627 16.9599661,29.8372881" id="Fill-19" fill="#62B0F6"></path>
            <path d="M31.1982712,29.8372881 C31.1982712,30.589322 30.5891186,31.1984746 29.8375932,31.1984746 C29.0860678,31.1984746 28.4764068,30.589322 28.4764068,29.8372881 C28.4764068,29.0857627 29.0860678,28.4766102 29.8375932,28.4766102 C30.5891186,28.4766102 31.1982712,29.0857627 31.1982712,29.8372881" id="Fill-21" fill="#62B0F6"></path>
            <path d="M45.4367797,29.8372881 C45.4367797,30.589322 44.8276271,31.1984746 44.0761017,31.1984746 C43.3245763,31.1984746 42.7149153,30.589322 42.7149153,29.8372881 C42.7149153,29.0857627 43.3245763,28.4766102 44.0761017,28.4766102 C44.8276271,28.4766102 45.4367797,29.0857627 45.4367797,29.8372881" id="Fill-23" fill="#62B0F6"></path>
            <path d="M2.72145763,44.0761017 C2.72145763,44.8276271 2.11230508,45.4367797 1.36077966,45.4367797 C0.609254237,45.4367797 0.000101694915,44.8276271 0.000101694915,44.0761017 C0.000101694915,43.3240678 0.609254237,42.7149153 1.36077966,42.7149153 C2.11230508,42.7149153 2.72145763,43.3240678 2.72145763,44.0761017" id="Fill-25" fill="#62B0F6"></path>
            <path d="M16.9599661,44.0761017 C16.9599661,44.8276271 16.3508136,45.4367797 15.5992881,45.4367797 C14.8477627,45.4367797 14.2381017,44.8276271 14.2381017,44.0761017 C14.2381017,43.3240678 14.8477627,42.7149153 15.5992881,42.7149153 C16.3508136,42.7149153 16.9599661,43.3240678 16.9599661,44.0761017" id="Fill-27" fill="#62B0F6"></path>
            <path d="M31.1982712,44.0761017 C31.1982712,44.8276271 30.5891186,45.4367797 29.8375932,45.4367797 C29.0860678,45.4367797 28.4764068,44.8276271 28.4764068,44.0761017 C28.4764068,43.3240678 29.0860678,42.7149153 29.8375932,42.7149153 C30.5891186,42.7149153 31.1982712,43.3240678 31.1982712,44.0761017" id="Fill-29" fill="#62B0F6"></path>
            <path d="M45.4367797,44.0761017 C45.4367797,44.8276271 44.8276271,45.4367797 44.0761017,45.4367797 C43.3245763,45.4367797 42.7149153,44.8276271 42.7149153,44.0761017 C42.7149153,43.3240678 43.3245763,42.7149153 44.0761017,42.7149153 C44.8276271,42.7149153 45.4367797,43.3240678 45.4367797,44.0761017" id="Fill-31" fill="#62B0F6"></path>
            <path d="M59.6750847,1.36072881 C59.6750847,2.11276271 59.0659322,2.72140678 58.3144068,2.72140678 C57.5628814,2.72140678 56.9532203,2.11276271 56.9532203,1.36072881 C56.9532203,0.608694915 57.5628814,5.08474576e-05 58.3144068,5.08474576e-05 C59.0659322,5.08474576e-05 59.6750847,0.608694915 59.6750847,1.36072881" id="Fill-33" fill="#62B0F6"></path>
            <path d="M59.6750847,15.5990339 C59.6750847,16.3510678 59.0659322,16.9602203 58.3144068,16.9602203 C57.5628814,16.9602203 56.9532203,16.3510678 56.9532203,15.5990339 C56.9532203,14.8475085 57.5628814,14.2383559 58.3144068,14.2383559 C59.0659322,14.2383559 59.6750847,14.8475085 59.6750847,15.5990339" id="Fill-35" fill="#62B0F6"></path>
            <path d="M59.6750847,29.8372881 C59.6750847,30.589322 59.0659322,31.1984746 58.3144068,31.1984746 C57.5628814,31.1984746 56.9532203,30.589322 56.9532203,29.8372881 C56.9532203,29.0857627 57.5628814,28.4766102 58.3144068,28.4766102 C59.0659322,28.4766102 59.6750847,29.0857627 59.6750847,29.8372881" id="Fill-37" fill="#62B0F6"></path>
            <path d="M59.6750847,44.0761017 C59.6750847,44.8276271 59.0659322,45.4367797 58.3144068,45.4367797 C57.5628814,45.4367797 56.9532203,44.8276271 56.9532203,44.0761017 C56.9532203,43.3240678 57.5628814,42.7149153 58.3144068,42.7149153 C59.0659322,42.7149153 59.6750847,43.3240678 59.6750847,44.0761017" id="Fill-39" fill="#62B0F6"></path>
            <path d="M2.72145763,58.3143559 C2.72145763,59.0658814 2.11230508,59.6750339 1.36077966,59.6750339 C0.609254237,59.6750339 0.000101694915,59.0658814 0.000101694915,58.3143559 C0.000101694915,57.562322 0.609254237,56.9531695 1.36077966,56.9531695 C2.11230508,56.9531695 2.72145763,57.562322 2.72145763,58.3143559" id="Fill-41" fill="#62B0F6"></path>
            <path d="M16.9599661,58.3143559 C16.9599661,59.0658814 16.3508136,59.6750339 15.5992881,59.6750339 C14.8477627,59.6750339 14.2381017,59.0658814 14.2381017,58.3143559 C14.2381017,57.562322 14.8477627,56.9531695 15.5992881,56.9531695 C16.3508136,56.9531695 16.9599661,57.562322 16.9599661,58.3143559" id="Fill-43" fill="#62B0F6"></path>
            <path d="M31.1982712,58.3143559 C31.1982712,59.0658814 30.5891186,59.6750339 29.8375932,59.6750339 C29.0860678,59.6750339 28.4764068,59.0658814 28.4764068,58.3143559 C28.4764068,57.562322 29.0860678,56.9531695 29.8375932,56.9531695 C30.5891186,56.9531695 31.1982712,57.562322 31.1982712,58.3143559" id="Fill-45" fill="#62B0F6"></path>
            <path d="M45.4367797,58.3143559 C45.4367797,59.0658814 44.8276271,59.6750339 44.0761017,59.6750339 C43.3245763,59.6750339 42.7149153,59.0658814 42.7149153,58.3143559 C42.7149153,57.562322 43.3245763,56.9531695 44.0761017,56.9531695 C44.8276271,56.9531695 45.4367797,57.562322 45.4367797,58.3143559" id="Fill-47" fill="#62B0F6"></path>
            <path d="M59.6750847,58.3143559 C59.6750847,59.0658814 59.0659322,59.6750339 58.3144068,59.6750339 C57.5628814,59.6750339 56.9532203,59.0658814 56.9532203,58.3143559 C56.9532203,57.562322 57.5628814,56.9531695 58.3144068,56.9531695 C59.0659322,56.9531695 59.6750847,57.562322 59.6750847,58.3143559" id="Fill-49" fill="#62B0F6"></path>
            <path d="M1.85120339,15.6476949 L29.8376441,57.6268475 L57.8235763,15.6476949 L43.9178136,1.7419322 L15.7569661,1.7419322 L1.85120339,15.6476949 Z M29.8376441,59.0017627 L0.869847458,15.5505763 L15.4412034,0.979220339 L44.2335763,0.979220339 L58.8049322,15.5505763 L29.8376441,59.0017627 Z" id="Fill-51" fill="#62B0F6"></path>
            <polygon id="Fill-53" fill="#62B0F6" points="44.4571017 16.5196271 29.8374407 1.8999661 15.2177797 16.5196271 15.2177797 1.36098305 15.9804915 1.36098305 15.9804915 14.6784407 29.8374407 0.821491525 43.6943898 14.6784407 43.6943898 1.36098305 44.4571017 1.36098305"></polygon>
            <polygon id="Fill-55" fill="#62B0F6" points="29.8374407 59.52 15.2376102 15.7194915 15.960661 15.4784746 29.8374407 57.1083051 43.7142203 15.4784746 44.4372712 15.7194915"></polygon>
            <mask id="mask-2" fill="white">
                <use xlink:href="#path-1"></use>
            </mask>
            <g id="Clip-58"></g>
            <polygon id="Fill-57" fill="#62B0F6" mask="url(#mask-2)" points="1.36067797 15.980339 58.3144068 15.980339 58.3144068 15.2176271 1.36067797 15.2176271"></polygon>
        </g>
        <rect id="Rectangle-Copy-18" fill="#76BAF7" fill-rule="nonzero" opacity="0.3" x="39" y="8" width="33" height="65"></rect>
    </g>
</svg>