<?xml version="1.0" encoding="UTF-8"?>
<svg width="80px" height="80px" viewBox="0 0 80 80" version="1.1" xmlns="http://www.w3.org/2000/svg" xmlns:xlink="http://www.w3.org/1999/xlink">
    <!-- Generator: Sketch 52.4 (67378) - http://www.bohemiancoding.com/sketch -->
    <title>Artboard Copy 4</title>
    <desc>Created with Sketch.</desc>
    <defs>
        <polygon id="path-1" points="0 0.322184874 2.72161017 0.322184874 2.72161017 3.02097479 0 3.02097479"></polygon>
        <polygon id="path-3" points="0.000711864407 0.322184874 2.72257627 0.322184874 2.72257627 3.02097479 0.000711864407 3.02097479"></polygon>
        <polygon id="path-5" points="0.00198305085 0.322184874 2.72384746 0.322184874 2.72384746 3.02097479 0.00198305085 3.02097479"></polygon>
        <polygon id="path-7" points="0.00294915254 0.322184874 2.72481356 0.322184874 2.72481356 3.02097479 0.00294915254 3.02097479"></polygon>
        <polygon id="path-9" points="0 0.322941176 2.72161017 0.322941176 2.72161017 3.02193277 0 3.02193277"></polygon>
        <polygon id="path-11" points="0 0.32394958 2.72161017 0.32394958 2.72161017 3.02294118 0 3.02294118"></polygon>
        <polygon id="path-13" points="0 0.325411765 2.72161017 0.325411765 2.72161017 3.02440336 0 3.02440336"></polygon>
        <polygon id="path-15" points="0.00447457627 0.322184874 2.72583051 0.322184874 2.72583051 3.02097479 0.00447457627 3.02097479"></polygon>
        <polygon id="path-17" points="0 0.326420168 2.72161017 0.326420168 2.72161017 3.02521008 0 3.02521008"></polygon>
        <polygon id="path-19" points="0.000711864407 0.326420168 2.72257627 0.326420168 2.72257627 3.02521008 0.000711864407 3.02521008"></polygon>
        <polygon id="path-21" points="0.00198305085 0.326420168 2.72384746 0.326420168 2.72384746 3.02521008 0.00198305085 3.02521008"></polygon>
        <polygon id="path-23" points="0.00294915254 0.326420168 2.72481356 0.326420168 2.72481356 3.02521008 0.00294915254 3.02521008"></polygon>
        <polygon id="path-25" points="0.00447457627 0.326420168 2.72583051 0.326420168 2.72583051 3.02521008 0.00447457627 3.02521008"></polygon>
    </defs>
    <g id="Artboard-Copy-4" stroke="none" stroke-width="1" fill="none" fill-rule="evenodd">
        <g id="Group-66-Copy" transform="translate(10.000000, 10.000000)">
            <g id="Group-3" transform="translate(0.000000, 0.182017)">
                <mask id="mask-2" fill="white">
                    <use xlink:href="#path-1"></use>
                </mask>
                <g id="Clip-2"></g>
                <path d="M2.72161017,1.67173109 C2.72161017,2.41694118 2.11245763,3.02097479 1.3609322,3.02097479 C0.60940678,3.02097479 -0.000254237288,2.41694118 -0.000254237288,1.67173109 C-0.000254237288,0.926016807 0.60940678,0.321983193 1.3609322,0.321983193 C2.11245763,0.321983193 2.72161017,0.926016807 2.72161017,1.67173109" id="Fill-1" fill="#62B0F6" mask="url(#mask-2)"></path>
            </g>
            <g id="Group-6" transform="translate(14.237288, 0.182017)">
                <mask id="mask-4" fill="white">
                    <use xlink:href="#path-3"></use>
                </mask>
                <g id="Clip-5"></g>
                <path d="M2.72257627,1.67173109 C2.72257627,2.41694118 2.11342373,3.02097479 1.36189831,3.02097479 C0.610372881,3.02097479 0.000711864407,2.41694118 0.000711864407,1.67173109 C0.000711864407,0.926016807 0.610372881,0.321983193 1.36189831,0.321983193 C2.11342373,0.321983193 2.72257627,0.926016807 2.72257627,1.67173109" id="Fill-4" fill="#62B0F6" mask="url(#mask-4)"></path>
            </g>
            <g id="Group-9" transform="translate(28.474576, 0.182017)">
                <mask id="mask-6" fill="white">
                    <use xlink:href="#path-5"></use>
                </mask>
                <g id="Clip-8"></g>
                <path d="M2.72384746,1.67173109 C2.72384746,2.41694118 2.11469492,3.02097479 1.36316949,3.02097479 C0.611644068,3.02097479 0.00198305085,2.41694118 0.00198305085,1.67173109 C0.00198305085,0.926016807 0.611644068,0.321983193 1.36316949,0.321983193 C2.11469492,0.321983193 2.72384746,0.926016807 2.72384746,1.67173109" id="Fill-7" fill="#62B0F6" mask="url(#mask-6)"></path>
            </g>
            <g id="Group-12" transform="translate(42.711864, 0.182017)">
                <mask id="mask-8" fill="white">
                    <use xlink:href="#path-7"></use>
                </mask>
                <g id="Clip-11"></g>
                <path d="M2.72481356,1.67173109 C2.72481356,2.41694118 2.11566102,3.02097479 1.36413559,3.02097479 C0.612610169,3.02097479 0.00294915254,2.41694118 0.00294915254,1.67173109 C0.00294915254,0.926016807 0.612610169,0.321983193 1.36413559,0.321983193 C2.11566102,0.321983193 2.72481356,0.926016807 2.72481356,1.67173109" id="Fill-10" fill="#62B0F6" mask="url(#mask-8)"></path>
            </g>
            <g id="Group-15" transform="translate(0.000000, 14.299664)">
                <mask id="mask-10" fill="white">
                    <use xlink:href="#path-9"></use>
                </mask>
                <g id="Clip-14"></g>
                <path d="M2.72161017,1.67268908 C2.72161017,2.41789916 2.11245763,3.02193277 1.3609322,3.02193277 C0.60940678,3.02193277 -0.000254237288,2.41789916 -0.000254237288,1.67268908 C-0.000254237288,0.92697479 0.60940678,0.322941176 1.3609322,0.322941176 C2.11245763,0.322941176 2.72161017,0.92697479 2.72161017,1.67268908" id="Fill-13" fill="#62B0F6" mask="url(#mask-10)"></path>
            </g>
            <path d="M16.9598644,15.9723529 C16.9598644,16.717563 16.3507119,17.3215966 15.5991864,17.3215966 C14.847661,17.3215966 14.238,16.717563 14.238,15.9723529 C14.238,15.2266387 14.847661,14.622605 15.5991864,14.622605 C16.3507119,14.622605 16.9598644,15.2266387 16.9598644,15.9723529" id="Fill-16" fill="#62B0F6"></path>
            <path d="M31.1984237,15.9723529 C31.1984237,16.717563 30.5892712,17.3215966 29.8377458,17.3215966 C29.0862203,17.3215966 28.4765593,16.717563 28.4765593,15.9723529 C28.4765593,15.2266387 29.0862203,14.622605 29.8377458,14.622605 C30.5892712,14.622605 31.1984237,15.2266387 31.1984237,15.9723529" id="Fill-18" fill="#62B0F6"></path>
            <path d="M45.436678,15.9723529 C45.436678,16.717563 44.8275254,17.3215966 44.076,17.3215966 C43.3244746,17.3215966 42.7148136,16.717563 42.7148136,15.9723529 C42.7148136,15.2266387 43.3244746,14.622605 44.076,14.622605 C44.8275254,14.622605 45.436678,15.2266387 45.436678,15.9723529" id="Fill-20" fill="#62B0F6"></path>
            <g id="Group-24" transform="translate(0.000000, 28.417311)">
                <mask id="mask-12" fill="white">
                    <use xlink:href="#path-11"></use>
                </mask>
                <g id="Clip-23"></g>
                <path d="M2.72161017,1.67369748 C2.72161017,2.41890756 2.11245763,3.02294118 1.3609322,3.02294118 C0.60940678,3.02294118 -0.000254237288,2.41890756 -0.000254237288,1.67369748 C-0.000254237288,0.927983193 0.60940678,0.32394958 1.3609322,0.32394958 C2.11245763,0.32394958 2.72161017,0.927983193 2.72161017,1.67369748" id="Fill-22" fill="#62B0F6" mask="url(#mask-12)"></path>
            </g>
            <path d="M16.9598644,30.0910084 C16.9598644,30.8362185 16.3507119,31.4402521 15.5991864,31.4402521 C14.847661,31.4402521 14.238,30.8362185 14.238,30.0910084 C14.238,29.3452941 14.847661,28.7412605 15.5991864,28.7412605 C16.3507119,28.7412605 16.9598644,29.3452941 16.9598644,30.0910084" id="Fill-25" fill="#62B0F6"></path>
            <path d="M31.1984237,30.0910084 C31.1984237,30.8362185 30.5892712,31.4402521 29.8377458,31.4402521 C29.0862203,31.4402521 28.4765593,30.8362185 28.4765593,30.0910084 C28.4765593,29.3452941 29.0862203,28.7412605 29.8377458,28.7412605 C30.5892712,28.7412605 31.1984237,29.3452941 31.1984237,30.0910084" id="Fill-27" fill="#62B0F6"></path>
            <path d="M45.436678,30.0910084 C45.436678,30.8362185 44.8275254,31.4402521 44.076,31.4402521 C43.3244746,31.4402521 42.7148136,30.8362185 42.7148136,30.0910084 C42.7148136,29.3452941 43.3244746,28.7412605 44.076,28.7412605 C44.8275254,28.7412605 45.436678,29.3452941 45.436678,30.0910084" id="Fill-29" fill="#62B0F6"></path>
            <g id="Group-33" transform="translate(0.000000, 42.534958)">
                <mask id="mask-14" fill="white">
                    <use xlink:href="#path-13"></use>
                </mask>
                <g id="Clip-32"></g>
                <path d="M2.72161017,1.67465546 C2.72161017,2.42036975 2.11245763,3.02440336 1.3609322,3.02440336 C0.60940678,3.02440336 -0.000254237288,2.42036975 -0.000254237288,1.67465546 C-0.000254237288,0.929445378 0.60940678,0.325411765 1.3609322,0.325411765 C2.11245763,0.325411765 2.72161017,0.929445378 2.72161017,1.67465546" id="Fill-31" fill="#62B0F6" mask="url(#mask-14)"></path>
            </g>
            <path d="M16.9598644,44.2096134 C16.9598644,44.9553277 16.3507119,45.5593613 15.5991864,45.5593613 C14.847661,45.5593613 14.238,44.9553277 14.238,44.2096134 C14.238,43.4644034 14.847661,42.8603697 15.5991864,42.8603697 C16.3507119,42.8603697 16.9598644,43.4644034 16.9598644,44.2096134" id="Fill-34" fill="#62B0F6"></path>
            <path d="M31.1984237,44.2096134 C31.1984237,44.9553277 30.5892712,45.5593613 29.8377458,45.5593613 C29.0862203,45.5593613 28.4765593,44.9553277 28.4765593,44.2096134 C28.4765593,43.4644034 29.0862203,42.8603697 29.8377458,42.8603697 C30.5892712,42.8603697 31.1984237,43.4644034 31.1984237,44.2096134" id="Fill-36" fill="#62B0F6"></path>
            <path d="M45.436678,44.2096134 C45.436678,44.9553277 44.8275254,45.5593613 44.076,45.5593613 C43.3244746,45.5593613 42.7148136,44.9553277 42.7148136,44.2096134 C42.7148136,43.4644034 43.3244746,42.8603697 44.076,42.8603697 C44.8275254,42.8603697 45.436678,43.4644034 45.436678,44.2096134" id="Fill-38" fill="#62B0F6"></path>
            <g id="Group-42" transform="translate(56.949153, 0.182017)">
                <mask id="mask-16" fill="white">
                    <use xlink:href="#path-15"></use>
                </mask>
                <g id="Clip-41"></g>
                <path d="M2.72583051,1.67173109 C2.72583051,2.41694118 2.11667797,3.02097479 1.36515254,3.02097479 C0.613627119,3.02097479 0.00447457627,2.41694118 0.00447457627,1.67173109 C0.00447457627,0.926016807 0.613627119,0.321983193 1.36515254,0.321983193 C2.11667797,0.321983193 2.72583051,0.926016807 2.72583051,1.67173109" id="Fill-40" fill="#62B0F6" mask="url(#mask-16)"></path>
            </g>
            <path d="M59.6749831,15.9723529 C59.6749831,16.717563 59.0658305,17.3215966 58.3143051,17.3215966 C57.5627797,17.3215966 56.9536271,16.717563 56.9536271,15.9723529 C56.9536271,15.2266387 57.5627797,14.622605 58.3143051,14.622605 C59.0658305,14.622605 59.6749831,15.2266387 59.6749831,15.9723529" id="Fill-43" fill="#62B0F6"></path>
            <path d="M59.6749831,30.0910084 C59.6749831,30.8362185 59.0658305,31.4402521 58.3143051,31.4402521 C57.5627797,31.4402521 56.9536271,30.8362185 56.9536271,30.0910084 C56.9536271,29.3452941 57.5627797,28.7412605 58.3143051,28.7412605 C59.0658305,28.7412605 59.6749831,29.3452941 59.6749831,30.0910084" id="Fill-45" fill="#62B0F6"></path>
            <path d="M59.6749831,44.2096134 C59.6749831,44.9553277 59.0658305,45.5593613 58.3143051,45.5593613 C57.5627797,45.5593613 56.9536271,44.9553277 56.9536271,44.2096134 C56.9536271,43.4644034 57.5627797,42.8603697 58.3143051,42.8603697 C59.0658305,42.8603697 59.6749831,43.4644034 59.6749831,44.2096134" id="Fill-47" fill="#62B0F6"></path>
            <g id="Group-51" transform="translate(0.000000, 56.652605)">
                <mask id="mask-18" fill="white">
                    <use xlink:href="#path-17"></use>
                </mask>
                <g id="Clip-50"></g>
                <path d="M2.72161017,1.67566387 C2.72161017,2.42137815 2.11245763,3.02541176 1.3609322,3.02541176 C0.60940678,3.02541176 -0.000254237288,2.42137815 -0.000254237288,1.67566387 C-0.000254237288,0.930453782 0.60940678,0.326420168 1.3609322,0.326420168 C2.11245763,0.326420168 2.72161017,0.930453782 2.72161017,1.67566387" id="Fill-49" fill="#62B0F6" mask="url(#mask-18)"></path>
            </g>
            <g id="Group-54" transform="translate(14.237288, 56.652605)">
                <mask id="mask-20" fill="white">
                    <use xlink:href="#path-19"></use>
                </mask>
                <g id="Clip-53"></g>
                <path d="M2.72257627,1.67566387 C2.72257627,2.42137815 2.11342373,3.02541176 1.36189831,3.02541176 C0.610372881,3.02541176 0.000711864407,2.42137815 0.000711864407,1.67566387 C0.000711864407,0.930453782 0.610372881,0.326420168 1.36189831,0.326420168 C2.11342373,0.326420168 2.72257627,0.930453782 2.72257627,1.67566387" id="Fill-52" fill="#62B0F6" mask="url(#mask-20)"></path>
            </g>
            <g id="Group-57" transform="translate(28.474576, 56.652605)">
                <mask id="mask-22" fill="white">
                    <use xlink:href="#path-21"></use>
                </mask>
                <g id="Clip-56"></g>
                <path d="M2.72384746,1.67566387 C2.72384746,2.42137815 2.11469492,3.02541176 1.36316949,3.02541176 C0.611644068,3.02541176 0.00198305085,2.42137815 0.00198305085,1.67566387 C0.00198305085,0.930453782 0.611644068,0.326420168 1.36316949,0.326420168 C2.11469492,0.326420168 2.72384746,0.930453782 2.72384746,1.67566387" id="Fill-55" fill="#62B0F6" mask="url(#mask-22)"></path>
            </g>
            <g id="Group-60" transform="translate(42.711864, 56.652605)">
                <mask id="mask-24" fill="white">
                    <use xlink:href="#path-23"></use>
                </mask>
                <g id="Clip-59"></g>
                <path d="M2.72481356,1.67566387 C2.72481356,2.42137815 2.11566102,3.02541176 1.36413559,3.02541176 C0.612610169,3.02541176 0.00294915254,2.42137815 0.00294915254,1.67566387 C0.00294915254,0.930453782 0.612610169,0.326420168 1.36413559,0.326420168 C2.11566102,0.326420168 2.72481356,0.930453782 2.72481356,1.67566387" id="Fill-58" fill="#62B0F6" mask="url(#mask-24)"></path>
            </g>
            <g id="Group-63" transform="translate(56.949153, 56.652605)">
                <mask id="mask-26" fill="white">
                    <use xlink:href="#path-25"></use>
                </mask>
                <g id="Clip-62"></g>
                <path d="M2.72583051,1.67566387 C2.72583051,2.42137815 2.11667797,3.02541176 1.36515254,3.02541176 C0.613627119,3.02541176 0.00447457627,2.42137815 0.00447457627,1.67566387 C0.00447457627,0.930453782 0.613627119,0.326420168 1.36515254,0.326420168 C2.11667797,0.326420168 2.72583051,0.930453782 2.72583051,1.67566387" id="Fill-61" fill="#62B0F6" mask="url(#mask-26)"></path>
            </g>
            <polygon id="Fill-64" fill="#62B0F6" points="1.63042373 58.5956471 1.0909322 58.0606891 58.044661 1.58606723 58.5836441 2.12052101"></polygon>
        </g>
        <polyline id="Path-3-Copy-2" stroke="#62B0F6" fill-rule="nonzero" points="25 12 68 12 68 54 25.1119817 12"></polyline>
        <polygon id="Path-3-Copy-3" fill="#62B0F6" fill-rule="nonzero" opacity="0.3" points="39.5791071 12 68 12 68 54 25 12"></polygon>
    </g>
</svg>