<?xml version="1.0" encoding="UTF-8"?>
<svg width="80px" height="80px" viewBox="0 0 80 80" version="1.1" xmlns="http://www.w3.org/2000/svg" xmlns:xlink="http://www.w3.org/1999/xlink">
    <!-- Generator: Sketch 52.4 (67378) - http://www.bohemiancoding.com/sketch -->
    <title>Artboard Copy 5</title>
    <desc>Created with Sketch.</desc>
    <defs>
        <polygon id="path-1" points="0.000151260504 0.07 59.929916 0.07 59.929916 59.49975 0.000151260504 59.49975"></polygon>
    </defs>
    <g id="Artboard-Copy-5" stroke="none" stroke-width="1" fill="none" fill-rule="evenodd">
        <g id="Group-54-Copy" transform="translate(10.000000, 10.000000)">
            <path d="M3.0767395,2.21265 C3.0767395,2.95215 2.47270588,3.55115 1.7274958,3.55115 C0.982285714,3.55115 0.377747899,2.95215 0.377747899,2.21265 C0.377747899,1.47365 0.982285714,0.87465 1.7274958,0.87465 C2.47270588,0.87465 3.0767395,1.47365 3.0767395,2.21265" id="Fill-1" fill="#62B0F6"></path>
            <path d="M17.1955966,2.21265 C17.1955966,2.95215 16.591563,3.55115 15.8463529,3.55115 C15.1011429,3.55115 14.496605,2.95215 14.496605,2.21265 C14.496605,1.47365 15.1011429,0.87465 15.8463529,0.87465 C16.591563,0.87465 17.1955966,1.47365 17.1955966,2.21265" id="Fill-3" fill="#62B0F6"></path>
            <path d="M31.3142521,2.21265 C31.3142521,2.95215 30.7102185,3.55115 29.9650084,3.55115 C29.2197983,3.55115 28.6152605,2.95215 28.6152605,2.21265 C28.6152605,1.47365 29.2197983,0.87465 29.9650084,0.87465 C30.7102185,0.87465 31.3142521,1.47365 31.3142521,2.21265" id="Fill-5" fill="#62B0F6"></path>
            <path d="M45.4331092,2.21265 C45.4331092,2.95215 44.8290756,3.55115 44.0833613,3.55115 C43.3386555,3.55115 42.7341176,2.95215 42.7341176,2.21265 C42.7341176,1.47365 43.3386555,0.87465 44.0833613,0.87465 C44.8290756,0.87465 45.4331092,1.47365 45.4331092,2.21265" id="Fill-7" fill="#62B0F6"></path>
            <path d="M3.0767395,16.21365 C3.0767395,16.95315 2.47270588,17.55215 1.7274958,17.55215 C0.982285714,17.55215 0.377747899,16.95315 0.377747899,16.21365 C0.377747899,15.47465 0.982285714,14.87565 1.7274958,14.87565 C2.47270588,14.87565 3.0767395,15.47465 3.0767395,16.21365" id="Fill-9" fill="#62B0F6"></path>
            <path d="M17.1955966,16.21365 C17.1955966,16.95315 16.591563,17.55215 15.8463529,17.55215 C15.1011429,17.55215 14.496605,16.95315 14.496605,16.21365 C14.496605,15.47465 15.1011429,14.87565 15.8463529,14.87565 C16.591563,14.87565 17.1955966,15.47465 17.1955966,16.21365" id="Fill-11" fill="#62B0F6"></path>
            <path d="M31.3142521,16.21365 C31.3142521,16.95315 30.7102185,17.55215 29.9650084,17.55215 C29.2197983,17.55215 28.6152605,16.95315 28.6152605,16.21365 C28.6152605,15.47465 29.2197983,14.87565 29.9650084,14.87565 C30.7102185,14.87565 31.3142521,15.47465 31.3142521,16.21365" id="Fill-13" fill="#62B0F6"></path>
            <path d="M45.4331092,16.21365 C45.4331092,16.95315 44.8290756,17.55215 44.0833613,17.55215 C43.3386555,17.55215 42.7341176,16.95315 42.7341176,16.21365 C42.7341176,15.47465 43.3386555,14.87565 44.0833613,14.87565 C44.8290756,14.87565 45.4331092,15.47465 45.4331092,16.21365" id="Fill-15" fill="#62B0F6"></path>
            <path d="M3.0767395,30.2151 C3.0767395,30.9541 2.47270588,31.5531 1.7274958,31.5531 C0.982285714,31.5531 0.377747899,30.9541 0.377747899,30.2151 C0.377747899,29.4756 0.982285714,28.8766 1.7274958,28.8766 C2.47270588,28.8766 3.0767395,29.4756 3.0767395,30.2151" id="Fill-17" fill="#62B0F6"></path>
            <path d="M17.1955966,30.2151 C17.1955966,30.9541 16.591563,31.5531 15.8463529,31.5531 C15.1011429,31.5531 14.496605,30.9541 14.496605,30.2151 C14.496605,29.4756 15.1011429,28.8766 15.8463529,28.8766 C16.591563,28.8766 17.1955966,29.4756 17.1955966,30.2151" id="Fill-19" fill="#62B0F6"></path>
            <path d="M31.3142521,30.2151 C31.3142521,30.9541 30.7102185,31.5531 29.9650084,31.5531 C29.2197983,31.5531 28.6152605,30.9541 28.6152605,30.2151 C28.6152605,29.4756 29.2197983,28.8766 29.9650084,28.8766 C30.7102185,28.8766 31.3142521,29.4756 31.3142521,30.2151" id="Fill-21" fill="#62B0F6"></path>
            <path d="M45.4331092,30.2151 C45.4331092,30.9541 44.8290756,31.5531 44.0833613,31.5531 C43.3386555,31.5531 42.7341176,30.9541 42.7341176,30.2151 C42.7341176,29.4756 43.3386555,28.8766 44.0833613,28.8766 C44.8290756,28.8766 45.4331092,29.4756 45.4331092,30.2151" id="Fill-23" fill="#62B0F6"></path>
            <path d="M3.0767395,44.21605 C3.0767395,44.95505 2.47270588,45.55405 1.7274958,45.55405 C0.982285714,45.55405 0.377747899,44.95505 0.377747899,44.21605 C0.377747899,43.47655 0.982285714,42.87755 1.7274958,42.87755 C2.47270588,42.87755 3.0767395,43.47655 3.0767395,44.21605" id="Fill-25" fill="#62B0F6"></path>
            <path d="M17.1955966,44.21605 C17.1955966,44.95505 16.591563,45.55405 15.8463529,45.55405 C15.1011429,45.55405 14.496605,44.95505 14.496605,44.21605 C14.496605,43.47655 15.1011429,42.87755 15.8463529,42.87755 C16.591563,42.87755 17.1955966,43.47655 17.1955966,44.21605" id="Fill-27" fill="#62B0F6"></path>
            <path d="M31.3142521,44.21605 C31.3142521,44.95505 30.7102185,45.55405 29.9650084,45.55405 C29.2197983,45.55405 28.6152605,44.95505 28.6152605,44.21605 C28.6152605,43.47655 29.2197983,42.87755 29.9650084,42.87755 C30.7102185,42.87755 31.3142521,43.47655 31.3142521,44.21605" id="Fill-29" fill="#62B0F6"></path>
            <path d="M45.4331092,44.21605 C45.4331092,44.95505 44.8290756,45.55405 44.0833613,45.55405 C43.3386555,45.55405 42.7341176,44.95505 42.7341176,44.21605 C42.7341176,43.47655 43.3386555,42.87755 44.0833613,42.87755 C44.8290756,42.87755 45.4331092,43.47655 45.4331092,44.21605" id="Fill-31" fill="#62B0F6"></path>
            <path d="M59.5517647,2.21265 C59.5517647,2.95215 58.9477311,3.55115 58.202521,3.55115 C57.4573109,3.55115 56.8527731,2.95215 56.8527731,2.21265 C56.8527731,1.47365 57.4573109,0.87465 58.202521,0.87465 C58.9477311,0.87465 59.5517647,1.47365 59.5517647,2.21265" id="Fill-33" fill="#62B0F6"></path>
            <path d="M59.5517647,16.21365 C59.5517647,16.95315 58.9477311,17.55215 58.202521,17.55215 C57.4573109,17.55215 56.8527731,16.95315 56.8527731,16.21365 C56.8527731,15.47465 57.4573109,14.87565 58.202521,14.87565 C58.9477311,14.87565 59.5517647,15.47465 59.5517647,16.21365" id="Fill-35" fill="#62B0F6"></path>
            <path d="M59.5517647,30.2151 C59.5517647,30.9541 58.9477311,31.5531 58.202521,31.5531 C57.4573109,31.5531 56.8527731,30.9541 56.8527731,30.2151 C56.8527731,29.4756 57.4573109,28.8766 58.202521,28.8766 C58.9477311,28.8766 59.5517647,29.4756 59.5517647,30.2151" id="Fill-37" fill="#62B0F6"></path>
            <path d="M59.5517647,44.21605 C59.5517647,44.95505 58.9477311,45.55405 58.202521,45.55405 C57.4573109,45.55405 56.8527731,44.95505 56.8527731,44.21605 C56.8527731,43.47655 57.4573109,42.87755 58.202521,42.87755 C58.9477311,42.87755 59.5517647,43.47655 59.5517647,44.21605" id="Fill-39" fill="#62B0F6"></path>
            <path d="M3.0767395,58.21705 C3.0767395,58.95655 2.47270588,59.55555 1.7274958,59.55555 C0.982285714,59.55555 0.377747899,58.95655 0.377747899,58.21705 C0.377747899,57.47805 0.982285714,56.87905 1.7274958,56.87905 C2.47270588,56.87905 3.0767395,57.47805 3.0767395,58.21705" id="Fill-41" fill="#62B0F6"></path>
            <path d="M17.1955966,58.21705 C17.1955966,58.95655 16.591563,59.55555 15.8463529,59.55555 C15.1011429,59.55555 14.496605,58.95655 14.496605,58.21705 C14.496605,57.47805 15.1011429,56.87905 15.8463529,56.87905 C16.591563,56.87905 17.1955966,57.47805 17.1955966,58.21705" id="Fill-43" fill="#62B0F6"></path>
            <path d="M31.3142521,58.21705 C31.3142521,58.95655 30.7102185,59.55555 29.9650084,59.55555 C29.2197983,59.55555 28.6152605,58.95655 28.6152605,58.21705 C28.6152605,57.47805 29.2197983,56.87905 29.9650084,56.87905 C30.7102185,56.87905 31.3142521,57.47805 31.3142521,58.21705" id="Fill-45" fill="#62B0F6"></path>
            <path d="M45.4331092,58.21705 C45.4331092,58.95655 44.8290756,59.55555 44.0833613,59.55555 C43.3386555,59.55555 42.7341176,58.95655 42.7341176,58.21705 C42.7341176,57.47805 43.3386555,56.87905 44.0833613,56.87905 C44.8290756,56.87905 45.4331092,57.47805 45.4331092,58.21705" id="Fill-47" fill="#62B0F6"></path>
            <path d="M59.5517647,58.21705 C59.5517647,58.95655 58.9477311,59.55555 58.202521,59.55555 C57.4573109,59.55555 56.8527731,58.95655 56.8527731,58.21705 C56.8527731,57.47805 57.4573109,56.87905 58.202521,56.87905 C58.9477311,56.87905 59.5517647,57.47805 59.5517647,58.21705" id="Fill-49" fill="#62B0F6"></path>
            <g id="Group-53" transform="translate(0.000000, 0.430000)">
                <mask id="mask-2" fill="white">
                    <use xlink:href="#path-1"></use>
                </mask>
                <g id="Clip-52"></g>
                <path d="M29.9648571,0.81975 C13.8591429,0.81975 0.756453782,13.81325 0.756453782,29.78525 C0.756453782,45.75625 13.8591429,58.74975 29.9648571,58.74975 C46.0705714,58.74975 59.1737647,45.75625 59.1737647,29.78525 C59.1737647,13.81325 46.0705714,0.81975 29.9648571,0.81975 M29.9648571,59.49975 C13.4421681,59.49975 0.000151260504,46.16975 0.000151260504,29.78525 C0.000151260504,13.39975 13.4421681,0.06975 29.9648571,0.06975 C46.4875462,0.06975 59.9300672,13.39975 59.9300672,29.78525 C59.9300672,46.16975 46.4875462,59.49975 29.9648571,59.49975" id="Fill-51" fill="#62B0F6" mask="url(#mask-2)"></path>
            </g>
        </g>
        <circle id="Oval-Copy-3" fill="#76BAF7" fill-rule="nonzero" opacity="0.3" cx="39.5" cy="40.5" r="29.5"></circle>
    </g>
</svg>