<?xml version="1.0" encoding="UTF-8"?>
<svg width="80px" height="80px" viewBox="0 0 80 80" version="1.1" xmlns="http://www.w3.org/2000/svg" xmlns:xlink="http://www.w3.org/1999/xlink">
    <!-- Generator: Sketch 52.4 (67378) - http://www.bohemiancoding.com/sketch -->
    <title>Artboard Copy 3</title>
    <desc>Created with Sketch.</desc>
    <defs>
        <polygon id="path-1" points="0.00411864407 0.322285714 2.7259322 0.322285714 2.7259322 3.02077311 0.00411864407 3.02077311"></polygon>
        <polygon id="path-3" points="0.00411864407 0.323294118 2.7259322 0.323294118 2.7259322 3.02228571 0.00411864407 3.02228571"></polygon>
        <polygon id="path-5" points="0.00411864407 0.324252101 2.7259322 0.324252101 2.7259322 3.0232437 0.00411864407 3.0232437"></polygon>
        <polygon id="path-7" points="0.00411864407 0.325260504 2.7259322 0.325260504 2.7259322 3.0242521 0.00411864407 3.0242521"></polygon>
        <polygon id="path-9" points="0.00411864407 0.326218487 2.7259322 0.326218487 2.7259322 3.02521008 0.00411864407 3.02521008"></polygon>
    </defs>
    <g id="Artboard-Copy-3" stroke="none" stroke-width="1" fill="none" fill-rule="evenodd">
        <g id="Group-72-Copy" transform="translate(12.000000, 12.000000)">
            <path d="M2.72150847,1.85354622 C2.72150847,2.5992605 2.11235593,3.20278992 1.36083051,3.20278992 C0.609305085,3.20278992 0.000152542373,2.5992605 0.000152542373,1.85354622 C0.000152542373,1.10783193 0.609305085,0.504302521 1.36083051,0.504302521 C2.11235593,0.504302521 2.72150847,1.10783193 2.72150847,1.85354622" id="Fill-1" fill="#62B0F6"></path>
            <path d="M16.9600169,1.85354622 C16.9600169,2.5992605 16.3508644,3.20278992 15.599339,3.20278992 C14.8478136,3.20278992 14.2381525,2.5992605 14.2381525,1.85354622 C14.2381525,1.10783193 14.8478136,0.504302521 15.599339,0.504302521 C16.3508644,0.504302521 16.9600169,1.10783193 16.9600169,1.85354622" id="Fill-3" fill="#62B0F6"></path>
            <path d="M31.198322,1.85354622 C31.198322,2.5992605 30.5891695,3.20278992 29.8376441,3.20278992 C29.0861186,3.20278992 28.4764576,2.5992605 28.4764576,1.85354622 C28.4764576,1.10783193 29.0861186,0.504302521 29.8376441,0.504302521 C30.5891695,0.504302521 31.198322,1.10783193 31.198322,1.85354622" id="Fill-5" fill="#62B0F6"></path>
            <path d="M45.4368305,1.85354622 C45.4368305,2.5992605 44.827678,3.20278992 44.0761525,3.20278992 C43.3246271,3.20278992 42.7149661,2.5992605 42.7149661,1.85354622 C42.7149661,1.10783193 43.3246271,0.504302521 44.0761525,0.504302521 C44.827678,0.504302521 45.4368305,1.10783193 45.4368305,1.85354622" id="Fill-7" fill="#62B0F6"></path>
            <path d="M2.72150847,15.9722017 C2.72150847,16.717916 2.11235593,17.3219496 1.36083051,17.3219496 C0.609305085,17.3219496 0.000152542373,16.717916 0.000152542373,15.9722017 C0.000152542373,15.2269916 0.609305085,14.622958 1.36083051,14.622958 C2.11235593,14.622958 2.72150847,15.2269916 2.72150847,15.9722017" id="Fill-9" fill="#62B0F6"></path>
            <path d="M16.9600169,15.9722017 C16.9600169,16.717916 16.3508644,17.3219496 15.599339,17.3219496 C14.8478136,17.3219496 14.2381525,16.717916 14.2381525,15.9722017 C14.2381525,15.2269916 14.8478136,14.622958 15.599339,14.622958 C16.3508644,14.622958 16.9600169,15.2269916 16.9600169,15.9722017" id="Fill-11" fill="#62B0F6"></path>
            <path d="M31.198322,15.9722017 C31.198322,16.717916 30.5891695,17.3219496 29.8376441,17.3219496 C29.0861186,17.3219496 28.4764576,16.717916 28.4764576,15.9722017 C28.4764576,15.2269916 29.0861186,14.622958 29.8376441,14.622958 C30.5891695,14.622958 31.198322,15.2269916 31.198322,15.9722017" id="Fill-13" fill="#62B0F6"></path>
            <path d="M45.4368305,15.9722017 C45.4368305,16.717916 44.827678,17.3219496 44.0761525,17.3219496 C43.3246271,17.3219496 42.7149661,16.717916 42.7149661,15.9722017 C42.7149661,15.2269916 43.3246271,14.622958 44.0761525,14.622958 C44.827678,14.622958 45.4368305,15.2269916 45.4368305,15.9722017" id="Fill-15" fill="#62B0F6"></path>
            <path d="M2.72150847,30.0908067 C2.72150847,30.836521 2.11235593,31.4405546 1.36083051,31.4405546 C0.609305085,31.4405546 0.000152542373,30.836521 0.000152542373,30.0908067 C0.000152542373,29.3455966 0.609305085,28.741563 1.36083051,28.741563 C2.11235593,28.741563 2.72150847,29.3455966 2.72150847,30.0908067" id="Fill-17" fill="#62B0F6"></path>
            <path d="M16.9600169,30.0908067 C16.9600169,30.836521 16.3508644,31.4405546 15.599339,31.4405546 C14.8478136,31.4405546 14.2381525,30.836521 14.2381525,30.0908067 C14.2381525,29.3455966 14.8478136,28.741563 15.599339,28.741563 C16.3508644,28.741563 16.9600169,29.3455966 16.9600169,30.0908067" id="Fill-19" fill="#62B0F6"></path>
            <path d="M31.198322,30.0908067 C31.198322,30.836521 30.5891695,31.4405546 29.8376441,31.4405546 C29.0861186,31.4405546 28.4764576,30.836521 28.4764576,30.0908067 C28.4764576,29.3455966 29.0861186,28.741563 29.8376441,28.741563 C30.5891695,28.741563 31.198322,29.3455966 31.198322,30.0908067" id="Fill-21" fill="#62B0F6"></path>
            <path d="M45.4368305,30.0908067 C45.4368305,30.836521 44.827678,31.4405546 44.0761525,31.4405546 C43.3246271,31.4405546 42.7149661,30.836521 42.7149661,30.0908067 C42.7149661,29.3455966 43.3246271,28.741563 44.0761525,28.741563 C44.827678,28.741563 45.4368305,29.3455966 45.4368305,30.0908067" id="Fill-23" fill="#62B0F6"></path>
            <path d="M2.72150847,44.2099664 C2.72150847,44.9551765 2.11235593,45.5592101 1.36083051,45.5592101 C0.609305085,45.5592101 0.000152542373,44.9551765 0.000152542373,44.2099664 C0.000152542373,43.4642521 0.609305085,42.8602185 1.36083051,42.8602185 C2.11235593,42.8602185 2.72150847,43.4642521 2.72150847,44.2099664" id="Fill-25" fill="#62B0F6"></path>
            <path d="M16.9600169,44.2099664 C16.9600169,44.9551765 16.3508644,45.5592101 15.599339,45.5592101 C14.8478136,45.5592101 14.2381525,44.9551765 14.2381525,44.2099664 C14.2381525,43.4642521 14.8478136,42.8602185 15.599339,42.8602185 C16.3508644,42.8602185 16.9600169,43.4642521 16.9600169,44.2099664" id="Fill-27" fill="#62B0F6"></path>
            <path d="M31.198322,44.2099664 C31.198322,44.9551765 30.5891695,45.5592101 29.8376441,45.5592101 C29.0861186,45.5592101 28.4764576,44.9551765 28.4764576,44.2099664 C28.4764576,43.4642521 29.0861186,42.8602185 29.8376441,42.8602185 C30.5891695,42.8602185 31.198322,43.4642521 31.198322,44.2099664" id="Fill-29" fill="#62B0F6"></path>
            <path d="M45.4368305,44.2099664 C45.4368305,44.9551765 44.827678,45.5592101 44.0761525,45.5592101 C43.3246271,45.5592101 42.7149661,44.9551765 42.7149661,44.2099664 C42.7149661,43.4642521 43.3246271,42.8602185 44.0761525,42.8602185 C44.827678,42.8602185 45.4368305,43.4642521 45.4368305,44.2099664" id="Fill-31" fill="#62B0F6"></path>
            <g id="Group-35" transform="translate(56.949153, 0.182017)">
                <mask id="mask-2" fill="white">
                    <use xlink:href="#path-1"></use>
                </mask>
                <g id="Clip-34"></g>
                <path d="M2.72598305,1.67152941 C2.72598305,2.4172437 2.11683051,3.02077311 1.36530508,3.02077311 C0.613779661,3.02077311 0.00411864407,2.4172437 0.00411864407,1.67152941 C0.00411864407,0.925815126 0.613779661,0.322285714 1.36530508,0.322285714 C2.11683051,0.322285714 2.72598305,0.925815126 2.72598305,1.67152941" id="Fill-33" fill="#62B0F6" mask="url(#mask-2)"></path>
            </g>
            <g id="Group-38" transform="translate(56.949153, 14.299664)">
                <mask id="mask-4" fill="white">
                    <use xlink:href="#path-3"></use>
                </mask>
                <g id="Clip-37"></g>
                <path d="M2.72598305,1.67253782 C2.72598305,2.4182521 2.11683051,3.02228571 1.36530508,3.02228571 C0.613779661,3.02228571 0.00411864407,2.4182521 0.00411864407,1.67253782 C0.00411864407,0.927327731 0.613779661,0.323294118 1.36530508,0.323294118 C2.11683051,0.323294118 2.72598305,0.927327731 2.72598305,1.67253782" id="Fill-36" fill="#62B0F6" mask="url(#mask-4)"></path>
            </g>
            <g id="Group-41" transform="translate(56.949153, 28.417311)">
                <mask id="mask-6" fill="white">
                    <use xlink:href="#path-5"></use>
                </mask>
                <g id="Clip-40"></g>
                <path d="M2.72598305,1.6734958 C2.72598305,2.41921008 2.11683051,3.0232437 1.36530508,3.0232437 C0.613779661,3.0232437 0.00411864407,2.41921008 0.00411864407,1.6734958 C0.00411864407,0.928285714 0.613779661,0.324252101 1.36530508,0.324252101 C2.11683051,0.324252101 2.72598305,0.928285714 2.72598305,1.6734958" id="Fill-39" fill="#62B0F6" mask="url(#mask-6)"></path>
            </g>
            <g id="Group-44" transform="translate(56.949153, 42.534958)">
                <mask id="mask-8" fill="white">
                    <use xlink:href="#path-7"></use>
                </mask>
                <g id="Clip-43"></g>
                <path d="M2.72598305,1.6750084 C2.72598305,2.42021849 2.11683051,3.0242521 1.36530508,3.0242521 C0.613779661,3.0242521 0.00411864407,2.42021849 0.00411864407,1.6750084 C0.00411864407,0.929294118 0.613779661,0.325260504 1.36530508,0.325260504 C2.11683051,0.325260504 2.72598305,0.929294118 2.72598305,1.6750084" id="Fill-42" fill="#62B0F6" mask="url(#mask-8)"></path>
            </g>
            <path d="M2.72150847,58.3285714 C2.72150847,59.0737815 2.11235593,59.6778151 1.36083051,59.6778151 C0.609305085,59.6778151 0.000152542373,59.0737815 0.000152542373,58.3285714 C0.000152542373,57.5828571 0.609305085,56.9788235 1.36083051,56.9788235 C2.11235593,56.9788235 2.72150847,57.5828571 2.72150847,58.3285714" id="Fill-45" fill="#62B0F6"></path>
            <path d="M16.9600169,58.3285714 C16.9600169,59.0737815 16.3508644,59.6778151 15.599339,59.6778151 C14.8478136,59.6778151 14.2381525,59.0737815 14.2381525,58.3285714 C14.2381525,57.5828571 14.8478136,56.9788235 15.599339,56.9788235 C16.3508644,56.9788235 16.9600169,57.5828571 16.9600169,58.3285714" id="Fill-47" fill="#62B0F6"></path>
            <path d="M31.198322,58.3285714 C31.198322,59.0737815 30.5891695,59.6778151 29.8376441,59.6778151 C29.0861186,59.6778151 28.4764576,59.0737815 28.4764576,58.3285714 C28.4764576,57.5828571 29.0861186,56.9788235 29.8376441,56.9788235 C30.5891695,56.9788235 31.198322,57.5828571 31.198322,58.3285714" id="Fill-49" fill="#62B0F6"></path>
            <path d="M45.4368305,58.3285714 C45.4368305,59.0737815 44.827678,59.6778151 44.0761525,59.6778151 C43.3246271,59.6778151 42.7149661,59.0737815 42.7149661,58.3285714 C42.7149661,57.5828571 43.3246271,56.9788235 44.0761525,56.9788235 C44.827678,56.9788235 45.4368305,57.5828571 45.4368305,58.3285714" id="Fill-51" fill="#62B0F6"></path>
            <g id="Group-55" transform="translate(56.949153, 56.652605)">
                <mask id="mask-10" fill="white">
                    <use xlink:href="#path-9"></use>
                </mask>
                <g id="Clip-54"></g>
                <path d="M2.72598305,1.67596639 C2.72598305,2.42117647 2.11683051,3.02521008 1.36530508,3.02521008 C0.613779661,3.02521008 0.00411864407,2.42117647 0.00411864407,1.67596639 C0.00411864407,0.930252101 0.613779661,0.326218487 1.36530508,0.326218487 C2.11683051,0.326218487 2.72598305,0.930252101 2.72598305,1.67596639" id="Fill-53" fill="#62B0F6" mask="url(#mask-10)"></path>
            </g>
            <polygon id="Fill-56" fill="#62B0F6" points="58.0444068 58.5959496 43.8061017 44.4772941 44.3455932 43.9428403 58.5838983 58.0609916"></polygon>
            <polygon id="Fill-58" fill="#62B0F6" points="30.1071356 44.4772941 29.5676441 43.9423361 43.8059492 29.8241849 44.3454407 30.3586387"></polygon>
            <polygon id="Fill-60" fill="#62B0F6" points="58.0444068 30.3586891 43.8061017 16.2400336 44.3455932 15.7055798 58.5838983 29.8237311"></polygon>
            <polygon id="Fill-62" fill="#62B0F6" points="30.1071356 16.2400336 29.5676441 15.7050756 43.8059492 1.58642017 44.3454407 2.12087395"></polygon>
            <polygon id="Fill-64" fill="#62B0F6" points="29.5678475 30.3586891 15.3295424 16.2400336 15.8685254 15.7055798 30.107339 29.8237311"></polygon>
            <polygon id="Fill-66" fill="#62B0F6" points="29.5678475 58.5959496 15.3295424 44.4772941 15.8685254 43.9428403 30.107339 58.0609916"></polygon>
            <polygon id="Fill-68" fill="#62B0F6" points="1.63032203 44.4772941 1.09083051 43.9423361 15.3296441 29.8241849 15.8686271 30.3586387"></polygon>
            <polygon id="Fill-70" fill="#62B0F6" points="1.63032203 16.2400336 1.09083051 15.7050756 15.3296441 1.58642017 15.8686271 2.12087395"></polygon>
        </g>
        <rect id="Rectangle-Copy-18" fill="#76BAF7" fill-rule="nonzero" opacity="0.3" x="9" y="8" width="33" height="65"></rect>
    </g>
</svg>