<?xml version="1.0" encoding="UTF-8"?>
<svg width="80px" height="80px" viewBox="0 0 80 80" version="1.1" xmlns="http://www.w3.org/2000/svg" xmlns:xlink="http://www.w3.org/1999/xlink">
    <!-- Generator: Sketch 52.4 (67378) - http://www.bohemiancoding.com/sketch -->
    <title>Artboard Copy</title>
    <desc>Created with Sketch.</desc>
    <defs>
        <polygon id="path-1" points="0 0.322285714 2.72155932 0.322285714 2.72155932 3.02077311 0 3.02077311"></polygon>
        <polygon id="path-3" points="0 0.323243697 2.72155932 0.323243697 2.72155932 3.02223529 0 3.02223529"></polygon>
        <polygon id="path-5" points="0 0.324252101 2.72155932 0.324252101 2.72155932 3.0232437 0 3.0232437"></polygon>
        <polygon id="path-7" points="0 0.325210084 2.72155932 0.325210084 2.72155932 3.02420168 0 3.02420168"></polygon>
        <polygon id="path-9" points="0.00416949153 0.322285714 2.7259322 0.322285714 2.7259322 3.02077311 0.00416949153 3.02077311"></polygon>
        <polygon id="path-11" points="0.00416949153 0.323243697 2.7259322 0.323243697 2.7259322 3.02223529 0.00416949153 3.02223529"></polygon>
        <polygon id="path-13" points="0.00416949153 0.324252101 2.7259322 0.324252101 2.7259322 3.0232437 0.00416949153 3.0232437"></polygon>
        <polygon id="path-15" points="0.00416949153 0.325210084 2.7259322 0.325210084 2.7259322 3.02420168 0.00416949153 3.02420168"></polygon>
        <polygon id="path-17" points="0 0.326168067 2.72155932 0.326168067 2.72155932 3.02515966 0 3.02515966"></polygon>
        <polygon id="path-19" points="0.00416949153 0.326168067 2.7259322 0.326168067 2.7259322 3.02515966 0.00416949153 3.02515966"></polygon>
    </defs>
    <g id="Artboard-Copy" stroke="none" stroke-width="1" fill="none" fill-rule="evenodd">
        <g id="Group-64-Copy" transform="translate(10.000000, 10.000000)">
            <path d="M15.9808475,43.8317647 L57.9330508,43.8317647 L57.9330508,2.23159664 L15.9808475,2.23159664 L15.9808475,43.8317647 Z M15.2181356,44.5880672 L58.6957627,44.5880672 L58.6957627,1.47529412 L15.2181356,1.47529412 L15.2181356,44.5880672 Z" id="Fill-1" fill="#62B0F6"></path>
            <path d="M1.74254237,57.9504202 L43.6947458,57.9504202 L43.6947458,16.3502521 L1.74254237,16.3502521 L1.74254237,57.9504202 Z M0.979830508,58.7067227 L44.4574576,58.7067227 L44.4574576,15.5939496 L0.979830508,15.5939496 L0.979830508,58.7067227 Z" id="Fill-2" fill="#62B0F6"></path>
            <g id="Group-63" transform="translate(0.000000, 0.182017)">
                <g id="Group-5">
                    <mask id="mask-2" fill="white">
                        <use xlink:href="#path-1"></use>
                    </mask>
                    <g id="Clip-4"></g>
                    <path d="M2.72155932,1.67152941 C2.72155932,2.4172437 2.11240678,3.02077311 1.36088136,3.02077311 C0.609355932,3.02077311 -0.000305084746,2.4172437 -0.000305084746,1.67152941 C-0.000305084746,0.925815126 0.609355932,0.322285714 1.36088136,0.322285714 C2.11240678,0.322285714 2.72155932,0.925815126 2.72155932,1.67152941" id="Fill-3" fill="#62B0F6" mask="url(#mask-2)"></path>
                </g>
                <path d="M16.9600678,1.67152941 C16.9600678,2.4172437 16.3509153,3.02077311 15.5993898,3.02077311 C14.8478644,3.02077311 14.2382034,2.4172437 14.2382034,1.67152941 C14.2382034,0.925815126 14.8478644,0.322285714 15.5993898,0.322285714 C16.3509153,0.322285714 16.9600678,0.925815126 16.9600678,1.67152941" id="Fill-6" fill="#62B0F6"></path>
                <path d="M31.1983729,1.67152941 C31.1983729,2.4172437 30.5892203,3.02077311 29.8376949,3.02077311 C29.0861695,3.02077311 28.4765085,2.4172437 28.4765085,1.67152941 C28.4765085,0.925815126 29.0861695,0.322285714 29.8376949,0.322285714 C30.5892203,0.322285714 31.1983729,0.925815126 31.1983729,1.67152941" id="Fill-8" fill="#62B0F6"></path>
                <path d="M45.4366271,1.67152941 C45.4366271,2.4172437 44.8274746,3.02077311 44.0759492,3.02077311 C43.3244237,3.02077311 42.7152712,2.4172437 42.7152712,1.67152941 C42.7152712,0.925815126 43.3244237,0.322285714 44.0759492,0.322285714 C44.8274746,0.322285714 45.4366271,0.925815126 45.4366271,1.67152941" id="Fill-10" fill="#62B0F6"></path>
                <g id="Group-14" transform="translate(0.000000, 14.117647)">
                    <mask id="mask-4" fill="white">
                        <use xlink:href="#path-3"></use>
                    </mask>
                    <g id="Clip-13"></g>
                    <path d="M2.72155932,1.67248739 C2.72155932,2.41820168 2.11240678,3.02223529 1.36088136,3.02223529 C0.609355932,3.02223529 -0.000305084746,2.41820168 -0.000305084746,1.67248739 C-0.000305084746,0.927277311 0.609355932,0.323243697 1.36088136,0.323243697 C2.11240678,0.323243697 2.72155932,0.927277311 2.72155932,1.67248739" id="Fill-12" fill="#62B0F6" mask="url(#mask-4)"></path>
                </g>
                <path d="M16.9600678,15.7901345 C16.9600678,16.5358487 16.3509153,17.1398824 15.5993898,17.1398824 C14.8478644,17.1398824 14.2382034,16.5358487 14.2382034,15.7901345 C14.2382034,15.0449244 14.8478644,14.4408908 15.5993898,14.4408908 C16.3509153,14.4408908 16.9600678,15.0449244 16.9600678,15.7901345" id="Fill-15" fill="#62B0F6"></path>
                <path d="M31.1983729,15.7901345 C31.1983729,16.5358487 30.5892203,17.1398824 29.8376949,17.1398824 C29.0861695,17.1398824 28.4765085,16.5358487 28.4765085,15.7901345 C28.4765085,15.0449244 29.0861695,14.4408908 29.8376949,14.4408908 C30.5892203,14.4408908 31.1983729,15.0449244 31.1983729,15.7901345" id="Fill-17" fill="#62B0F6"></path>
                <path d="M45.4366271,15.7901345 C45.4366271,16.5358487 44.8274746,17.1398824 44.0759492,17.1398824 C43.3244237,17.1398824 42.7152712,16.5358487 42.7152712,15.7901345 C42.7152712,15.0449244 43.3244237,14.4408908 44.0759492,14.4408908 C44.8274746,14.4408908 45.4366271,15.0449244 45.4366271,15.7901345" id="Fill-19" fill="#62B0F6"></path>
                <g id="Group-23" transform="translate(0.000000, 28.235294)">
                    <mask id="mask-6" fill="white">
                        <use xlink:href="#path-5"></use>
                    </mask>
                    <g id="Clip-22"></g>
                    <path d="M2.72155932,1.6734958 C2.72155932,2.41921008 2.11240678,3.0232437 1.36088136,3.0232437 C0.609355932,3.0232437 -0.000305084746,2.41921008 -0.000305084746,1.6734958 C-0.000305084746,0.928285714 0.609355932,0.324252101 1.36088136,0.324252101 C2.11240678,0.324252101 2.72155932,0.928285714 2.72155932,1.6734958" id="Fill-21" fill="#62B0F6" mask="url(#mask-6)"></path>
                </g>
                <path d="M16.9600678,29.9087899 C16.9600678,30.6545042 16.3509153,31.2585378 15.5993898,31.2585378 C14.8478644,31.2585378 14.2382034,30.6545042 14.2382034,29.9087899 C14.2382034,29.1635798 14.8478644,28.5595462 15.5993898,28.5595462 C16.3509153,28.5595462 16.9600678,29.1635798 16.9600678,29.9087899" id="Fill-24" fill="#62B0F6"></path>
                <path d="M31.1983729,29.9087899 C31.1983729,30.6545042 30.5892203,31.2585378 29.8376949,31.2585378 C29.0861695,31.2585378 28.4765085,30.6545042 28.4765085,29.9087899 C28.4765085,29.1635798 29.0861695,28.5595462 29.8376949,28.5595462 C30.5892203,28.5595462 31.1983729,29.1635798 31.1983729,29.9087899" id="Fill-26" fill="#62B0F6"></path>
                <path d="M45.4366271,29.9087899 C45.4366271,30.6545042 44.8274746,31.2585378 44.0759492,31.2585378 C43.3244237,31.2585378 42.7152712,30.6545042 42.7152712,29.9087899 C42.7152712,29.1635798 43.3244237,28.5595462 44.0759492,28.5595462 C44.8274746,28.5595462 45.4366271,29.1635798 45.4366271,29.9087899" id="Fill-28" fill="#62B0F6"></path>
                <g id="Group-32" transform="translate(0.000000, 42.352941)">
                    <mask id="mask-8" fill="white">
                        <use xlink:href="#path-7"></use>
                    </mask>
                    <g id="Clip-31"></g>
                    <path d="M2.72155932,1.67495798 C2.72155932,2.42016807 2.11240678,3.02420168 1.36088136,3.02420168 C0.609355932,3.02420168 -0.000305084746,2.42016807 -0.000305084746,1.67495798 C-0.000305084746,0.929243697 0.609355932,0.325210084 1.36088136,0.325210084 C2.11240678,0.325210084 2.72155932,0.929243697 2.72155932,1.67495798" id="Fill-30" fill="#62B0F6" mask="url(#mask-8)"></path>
                </g>
                <path d="M16.9600678,44.0278992 C16.9600678,44.7731092 16.3509153,45.3771429 15.5993898,45.3771429 C14.8478644,45.3771429 14.2382034,44.7731092 14.2382034,44.0278992 C14.2382034,43.2821849 14.8478644,42.6781513 15.5993898,42.6781513 C16.3509153,42.6781513 16.9600678,43.2821849 16.9600678,44.0278992" id="Fill-33" fill="#62B0F6"></path>
                <path d="M31.1983729,44.0278992 C31.1983729,44.7731092 30.5892203,45.3771429 29.8376949,45.3771429 C29.0861695,45.3771429 28.4765085,44.7731092 28.4765085,44.0278992 C28.4765085,43.2821849 29.0861695,42.6781513 29.8376949,42.6781513 C30.5892203,42.6781513 31.1983729,43.2821849 31.1983729,44.0278992" id="Fill-35" fill="#62B0F6"></path>
                <path d="M45.4366271,44.0278992 C45.4366271,44.7731092 44.8274746,45.3771429 44.0759492,45.3771429 C43.3244237,45.3771429 42.7152712,44.7731092 42.7152712,44.0278992 C42.7152712,43.2821849 43.3244237,42.6781513 44.0759492,42.6781513 C44.8274746,42.6781513 45.4366271,43.2821849 45.4366271,44.0278992" id="Fill-37" fill="#62B0F6"></path>
                <g id="Group-41" transform="translate(56.949153, 0.000000)">
                    <mask id="mask-10" fill="white">
                        <use xlink:href="#path-9"></use>
                    </mask>
                    <g id="Clip-40"></g>
                    <path d="M2.7260339,1.67152941 C2.7260339,2.4172437 2.11688136,3.02077311 1.36535593,3.02077311 C0.613830508,3.02077311 0.00416949153,2.4172437 0.00416949153,1.67152941 C0.00416949153,0.925815126 0.613830508,0.322285714 1.36535593,0.322285714 C2.11688136,0.322285714 2.7260339,0.925815126 2.7260339,1.67152941" id="Fill-39" fill="#62B0F6" mask="url(#mask-10)"></path>
                </g>
                <g id="Group-44" transform="translate(56.949153, 14.117647)">
                    <mask id="mask-12" fill="white">
                        <use xlink:href="#path-11"></use>
                    </mask>
                    <g id="Clip-43"></g>
                    <path d="M2.7260339,1.67248739 C2.7260339,2.41820168 2.11688136,3.02223529 1.36535593,3.02223529 C0.613830508,3.02223529 0.00416949153,2.41820168 0.00416949153,1.67248739 C0.00416949153,0.927277311 0.613830508,0.323243697 1.36535593,0.323243697 C2.11688136,0.323243697 2.7260339,0.927277311 2.7260339,1.67248739" id="Fill-42" fill="#62B0F6" mask="url(#mask-12)"></path>
                </g>
                <g id="Group-47" transform="translate(56.949153, 28.235294)">
                    <mask id="mask-14" fill="white">
                        <use xlink:href="#path-13"></use>
                    </mask>
                    <g id="Clip-46"></g>
                    <path d="M2.7260339,1.6734958 C2.7260339,2.41921008 2.11688136,3.0232437 1.36535593,3.0232437 C0.613830508,3.0232437 0.00416949153,2.41921008 0.00416949153,1.6734958 C0.00416949153,0.928285714 0.613830508,0.324252101 1.36535593,0.324252101 C2.11688136,0.324252101 2.7260339,0.928285714 2.7260339,1.6734958" id="Fill-45" fill="#62B0F6" mask="url(#mask-14)"></path>
                </g>
                <g id="Group-50" transform="translate(56.949153, 42.352941)">
                    <mask id="mask-16" fill="white">
                        <use xlink:href="#path-15"></use>
                    </mask>
                    <g id="Clip-49"></g>
                    <path d="M2.7260339,1.67495798 C2.7260339,2.42016807 2.11688136,3.02420168 1.36535593,3.02420168 C0.613830508,3.02420168 0.00416949153,2.42016807 0.00416949153,1.67495798 C0.00416949153,0.929243697 0.613830508,0.325210084 1.36535593,0.325210084 C2.11688136,0.325210084 2.7260339,0.929243697 2.7260339,1.67495798" id="Fill-48" fill="#62B0F6" mask="url(#mask-16)"></path>
                </g>
                <g id="Group-53" transform="translate(0.000000, 56.470588)">
                    <mask id="mask-18" fill="white">
                        <use xlink:href="#path-17"></use>
                    </mask>
                    <g id="Clip-52"></g>
                    <path d="M2.72155932,1.67591597 C2.72155932,2.42112605 2.11240678,3.02515966 1.36088136,3.02515966 C0.609355932,3.02515966 -0.000305084746,2.42112605 -0.000305084746,1.67591597 C-0.000305084746,0.930201681 0.609355932,0.326168067 1.36088136,0.326168067 C2.11240678,0.326168067 2.72155932,0.930201681 2.72155932,1.67591597" id="Fill-51" fill="#62B0F6" mask="url(#mask-18)"></path>
                </g>
                <path d="M16.9600678,58.1465042 C16.9600678,58.8917143 16.3509153,59.4957479 15.5993898,59.4957479 C14.8478644,59.4957479 14.2382034,58.8917143 14.2382034,58.1465042 C14.2382034,57.4007899 14.8478644,56.7967563 15.5993898,56.7967563 C16.3509153,56.7967563 16.9600678,57.4007899 16.9600678,58.1465042" id="Fill-54" fill="#62B0F6"></path>
                <path d="M31.1983729,58.1465042 C31.1983729,58.8917143 30.5892203,59.4957479 29.8376949,59.4957479 C29.0861695,59.4957479 28.4765085,58.8917143 28.4765085,58.1465042 C28.4765085,57.4007899 29.0861695,56.7967563 29.8376949,56.7967563 C30.5892203,56.7967563 31.1983729,57.4007899 31.1983729,58.1465042" id="Fill-56" fill="#62B0F6"></path>
                <path d="M45.4366271,58.1465042 C45.4366271,58.8917143 44.8274746,59.4957479 44.0759492,59.4957479 C43.3244237,59.4957479 42.7152712,58.8917143 42.7152712,58.1465042 C42.7152712,57.4007899 43.3244237,56.7967563 44.0759492,56.7967563 C44.8274746,56.7967563 45.4366271,57.4007899 45.4366271,58.1465042" id="Fill-58" fill="#62B0F6"></path>
                <g id="Group-62" transform="translate(56.949153, 56.470588)">
                    <mask id="mask-20" fill="white">
                        <use xlink:href="#path-19"></use>
                    </mask>
                    <g id="Clip-61"></g>
                    <path d="M2.7260339,1.67591597 C2.7260339,2.42112605 2.11688136,3.02515966 1.36535593,3.02515966 C0.613830508,3.02515966 0.00416949153,2.42112605 0.00416949153,1.67591597 C0.00416949153,0.930201681 0.613830508,0.326168067 1.36535593,0.326168067 C2.11688136,0.326168067 2.7260339,0.930201681 2.7260339,1.67591597" id="Fill-60" fill="#62B0F6" mask="url(#mask-20)"></path>
                </g>
            </g>
        </g>
        <rect id="Rectangle-Copy-18" fill="#76BAF7" fill-rule="nonzero" opacity="0.3" x="26" y="12" width="42" height="42"></rect>
    </g>
</svg>