<?xml version="1.0" encoding="UTF-8"?>
<svg width="80px" height="80px" viewBox="0 0 80 80" version="1.1" xmlns="http://www.w3.org/2000/svg" xmlns:xlink="http://www.w3.org/1999/xlink">
    <!-- Generator: Sketch 52.4 (67378) - http://www.bohemiancoding.com/sketch -->
    <title>Artboard Copy 2</title>
    <desc>Created with Sketch.</desc>
    <defs>
        <polygon id="path-1" points="0 0.322235294 2.72166102 0.322235294 2.72166102 3.02122689 0 3.02122689"></polygon>
        <polygon id="path-3" points="0 0.323193277 2.72166102 0.323193277 2.72166102 3.02218487 0 3.02218487"></polygon>
        <polygon id="path-5" points="0 0.324201681 2.72166102 0.324201681 2.72166102 3.02319328 0 3.02319328"></polygon>
        <polygon id="path-7" points="0 0.325159664 2.72166102 0.325159664 2.72166102 3.02415126 0 3.02415126"></polygon>
        <polygon id="path-9" points="0 0.326168067 2.72166102 0.326168067 2.72166102 3.02515966 0 3.02515966"></polygon>
    </defs>
    <g id="Artboard-Copy-2" stroke="none" stroke-width="1" fill="none" fill-rule="evenodd">
        <g id="Group-58-Copy" transform="translate(10.000000, 10.000000)">
            <g id="Group-3" transform="translate(0.000000, 0.182017)">
                <mask id="mask-2" fill="white">
                    <use xlink:href="#path-1"></use>
                </mask>
                <g id="Clip-2"></g>
                <path d="M2.72166102,1.67147899 C2.72166102,2.41719328 2.11250847,3.02122689 1.36098305,3.02122689 C0.609457627,3.02122689 -0.000203389831,2.41719328 -0.000203389831,1.67147899 C-0.000203389831,0.926268908 0.609457627,0.322235294 1.36098305,0.322235294 C2.11250847,0.322235294 2.72166102,0.926268908 2.72166102,1.67147899" id="Fill-1" fill="#62B0F6" mask="url(#mask-2)"></path>
            </g>
            <path d="M16.9599661,1.8534958 C16.9599661,2.59921008 16.3508136,3.2032437 15.5992881,3.2032437 C14.8477627,3.2032437 14.2381017,2.59921008 14.2381017,1.8534958 C14.2381017,1.10828571 14.8477627,0.504252101 15.5992881,0.504252101 C16.3508136,0.504252101 16.9599661,1.10828571 16.9599661,1.8534958" id="Fill-4" fill="#62B0F6"></path>
            <path d="M31.1982712,1.8534958 C31.1982712,2.59921008 30.5891186,3.2032437 29.8375932,3.2032437 C29.0860678,3.2032437 28.4769153,2.59921008 28.4769153,1.8534958 C28.4769153,1.10828571 29.0860678,0.504252101 29.8375932,0.504252101 C30.5891186,0.504252101 31.1982712,1.10828571 31.1982712,1.8534958" id="Fill-6" fill="#62B0F6"></path>
            <path d="M45.4367797,1.8534958 C45.4367797,2.59921008 44.8276271,3.2032437 44.0761017,3.2032437 C43.3245763,3.2032437 42.7149153,2.59921008 42.7149153,1.8534958 C42.7149153,1.10828571 43.3245763,0.504252101 44.0761017,0.504252101 C44.8276271,0.504252101 45.4367797,1.10828571 45.4367797,1.8534958" id="Fill-8" fill="#62B0F6"></path>
            <g id="Group-12" transform="translate(0.000000, 14.299664)">
                <mask id="mask-4" fill="white">
                    <use xlink:href="#path-3"></use>
                </mask>
                <g id="Clip-11"></g>
                <path d="M2.72166102,1.67243697 C2.72166102,2.41815126 2.11250847,3.02218487 1.36098305,3.02218487 C0.609457627,3.02218487 -0.000203389831,2.41815126 -0.000203389831,1.67243697 C-0.000203389831,0.927226891 0.609457627,0.323193277 1.36098305,0.323193277 C2.11250847,0.323193277 2.72166102,0.927226891 2.72166102,1.67243697" id="Fill-10" fill="#62B0F6" mask="url(#mask-4)"></path>
            </g>
            <path d="M16.9599661,15.9721008 C16.9599661,16.7178151 16.3508136,17.3218487 15.5992881,17.3218487 C14.8477627,17.3218487 14.2381017,16.7178151 14.2381017,15.9721008 C14.2381017,15.2268908 14.8477627,14.6228571 15.5992881,14.6228571 C16.3508136,14.6228571 16.9599661,15.2268908 16.9599661,15.9721008" id="Fill-13" fill="#62B0F6"></path>
            <path d="M31.1982712,15.9721008 C31.1982712,16.7178151 30.5891186,17.3218487 29.8375932,17.3218487 C29.0860678,17.3218487 28.4769153,16.7178151 28.4769153,15.9721008 C28.4769153,15.2268908 29.0860678,14.6228571 29.8375932,14.6228571 C30.5891186,14.6228571 31.1982712,15.2268908 31.1982712,15.9721008" id="Fill-15" fill="#62B0F6"></path>
            <path d="M45.4367797,15.9721008 C45.4367797,16.7178151 44.8276271,17.3218487 44.0761017,17.3218487 C43.3245763,17.3218487 42.7149153,16.7178151 42.7149153,15.9721008 C42.7149153,15.2268908 43.3245763,14.6228571 44.0761017,14.6228571 C44.8276271,14.6228571 45.4367797,15.2268908 45.4367797,15.9721008" id="Fill-17" fill="#62B0F6"></path>
            <g id="Group-21" transform="translate(0.000000, 28.417311)">
                <mask id="mask-6" fill="white">
                    <use xlink:href="#path-5"></use>
                </mask>
                <g id="Clip-20"></g>
                <path d="M2.72166102,1.67344538 C2.72166102,2.41915966 2.11250847,3.02319328 1.36098305,3.02319328 C0.609457627,3.02319328 -0.000203389831,2.41915966 -0.000203389831,1.67344538 C-0.000203389831,0.928235294 0.609457627,0.324201681 1.36098305,0.324201681 C2.11250847,0.324201681 2.72166102,0.928235294 2.72166102,1.67344538" id="Fill-19" fill="#62B0F6" mask="url(#mask-6)"></path>
            </g>
            <path d="M16.9599661,30.0907563 C16.9599661,30.8364706 16.3508136,31.4405042 15.5992881,31.4405042 C14.8477627,31.4405042 14.2381017,30.8364706 14.2381017,30.0907563 C14.2381017,29.3455462 14.8477627,28.7415126 15.5992881,28.7415126 C16.3508136,28.7415126 16.9599661,29.3455462 16.9599661,30.0907563" id="Fill-22" fill="#62B0F6"></path>
            <path d="M31.1982712,30.0907563 C31.1982712,30.8364706 30.5891186,31.4405042 29.8375932,31.4405042 C29.0860678,31.4405042 28.4769153,30.8364706 28.4769153,30.0907563 C28.4769153,29.3455462 29.0860678,28.7415126 29.8375932,28.7415126 C30.5891186,28.7415126 31.1982712,29.3455462 31.1982712,30.0907563" id="Fill-24" fill="#62B0F6"></path>
            <path d="M45.4367797,30.0907563 C45.4367797,30.8364706 44.8276271,31.4405042 44.0761017,31.4405042 C43.3245763,31.4405042 42.7149153,30.8364706 42.7149153,30.0907563 C42.7149153,29.3455462 43.3245763,28.7415126 44.0761017,28.7415126 C44.8276271,28.7415126 45.4367797,29.3455462 45.4367797,30.0907563" id="Fill-26" fill="#62B0F6"></path>
            <g id="Group-30" transform="translate(0.000000, 42.534958)">
                <mask id="mask-8" fill="white">
                    <use xlink:href="#path-7"></use>
                </mask>
                <g id="Clip-29"></g>
                <path d="M2.72166102,1.67490756 C2.72166102,2.42011765 2.11250847,3.02415126 1.36098305,3.02415126 C0.609457627,3.02415126 -0.000203389831,2.42011765 -0.000203389831,1.67490756 C-0.000203389831,0.929193277 0.609457627,0.325159664 1.36098305,0.325159664 C2.11250847,0.325159664 2.72166102,0.929193277 2.72166102,1.67490756" id="Fill-28" fill="#62B0F6" mask="url(#mask-8)"></path>
            </g>
            <path d="M16.9599661,44.2098655 C16.9599661,44.9550756 16.3508136,45.5591092 15.5992881,45.5591092 C14.8477627,45.5591092 14.2381017,44.9550756 14.2381017,44.2098655 C14.2381017,43.4641513 14.8477627,42.8601176 15.5992881,42.8601176 C16.3508136,42.8601176 16.9599661,43.4641513 16.9599661,44.2098655" id="Fill-31" fill="#62B0F6"></path>
            <path d="M31.1982712,44.2098655 C31.1982712,44.9550756 30.5891186,45.5591092 29.8375932,45.5591092 C29.0860678,45.5591092 28.4769153,44.9550756 28.4769153,44.2098655 C28.4769153,43.4641513 29.0860678,42.8601176 29.8375932,42.8601176 C30.5891186,42.8601176 31.1982712,43.4641513 31.1982712,44.2098655" id="Fill-33" fill="#62B0F6"></path>
            <path d="M45.4367797,44.2098655 C45.4367797,44.9550756 44.8276271,45.5591092 44.0761017,45.5591092 C43.3245763,45.5591092 42.7149153,44.9550756 42.7149153,44.2098655 C42.7149153,43.4641513 43.3245763,42.8601176 44.0761017,42.8601176 C44.8276271,42.8601176 45.4367797,43.4641513 45.4367797,44.2098655" id="Fill-35" fill="#62B0F6"></path>
            <path d="M59.6750847,1.8534958 C59.6750847,2.59921008 59.0659322,3.2032437 58.3144068,3.2032437 C57.5628814,3.2032437 56.9532203,2.59921008 56.9532203,1.8534958 C56.9532203,1.10828571 57.5628814,0.504252101 58.3144068,0.504252101 C59.0659322,0.504252101 59.6750847,1.10828571 59.6750847,1.8534958" id="Fill-37" fill="#62B0F6"></path>
            <path d="M59.6750847,15.9721008 C59.6750847,16.7178151 59.0659322,17.3218487 58.3144068,17.3218487 C57.5628814,17.3218487 56.9532203,16.7178151 56.9532203,15.9721008 C56.9532203,15.2268908 57.5628814,14.6228571 58.3144068,14.6228571 C59.0659322,14.6228571 59.6750847,15.2268908 59.6750847,15.9721008" id="Fill-39" fill="#62B0F6"></path>
            <path d="M59.6750847,30.0907563 C59.6750847,30.8364706 59.0659322,31.4405042 58.3144068,31.4405042 C57.5628814,31.4405042 56.9532203,30.8364706 56.9532203,30.0907563 C56.9532203,29.3455462 57.5628814,28.7415126 58.3144068,28.7415126 C59.0659322,28.7415126 59.6750847,29.3455462 59.6750847,30.0907563" id="Fill-41" fill="#62B0F6"></path>
            <path d="M59.6750847,44.2098655 C59.6750847,44.9550756 59.0659322,45.5591092 58.3144068,45.5591092 C57.5628814,45.5591092 56.9532203,44.9550756 56.9532203,44.2098655 C56.9532203,43.4641513 57.5628814,42.8601176 58.3144068,42.8601176 C59.0659322,42.8601176 59.6750847,43.4641513 59.6750847,44.2098655" id="Fill-43" fill="#62B0F6"></path>
            <g id="Group-47" transform="translate(0.000000, 56.652605)">
                <mask id="mask-10" fill="white">
                    <use xlink:href="#path-9"></use>
                </mask>
                <g id="Clip-46"></g>
                <path d="M2.72166102,1.67591597 C2.72166102,2.42112605 2.11250847,3.02515966 1.36098305,3.02515966 C0.609457627,3.02515966 -0.000203389831,2.42112605 -0.000203389831,1.67591597 C-0.000203389831,0.930201681 0.609457627,0.326168067 1.36098305,0.326168067 C2.11250847,0.326168067 2.72166102,0.930201681 2.72166102,1.67591597" id="Fill-45" fill="#62B0F6" mask="url(#mask-10)"></path>
            </g>
            <path d="M16.9599661,58.328521 C16.9599661,59.0737311 16.3508136,59.6777647 15.5992881,59.6777647 C14.8477627,59.6777647 14.2381017,59.0737311 14.2381017,58.328521 C14.2381017,57.5828067 14.8477627,56.9787731 15.5992881,56.9787731 C16.3508136,56.9787731 16.9599661,57.5828067 16.9599661,58.328521" id="Fill-48" fill="#62B0F6"></path>
            <path d="M31.1982712,58.328521 C31.1982712,59.0737311 30.5891186,59.6777647 29.8375932,59.6777647 C29.0860678,59.6777647 28.4769153,59.0737311 28.4769153,58.328521 C28.4769153,57.5828067 29.0860678,56.9787731 29.8375932,56.9787731 C30.5891186,56.9787731 31.1982712,57.5828067 31.1982712,58.328521" id="Fill-50" fill="#62B0F6"></path>
            <path d="M45.4367797,58.328521 C45.4367797,59.0737311 44.8276271,59.6777647 44.0761017,59.6777647 C43.3245763,59.6777647 42.7149153,59.0737311 42.7149153,58.328521 C42.7149153,57.5828067 43.3245763,56.9787731 44.0761017,56.9787731 C44.8276271,56.9787731 45.4367797,57.5828067 45.4367797,58.328521" id="Fill-52" fill="#62B0F6"></path>
            <path d="M59.6750847,58.328521 C59.6750847,59.0737311 59.0659322,59.6777647 58.3144068,59.6777647 C57.5628814,59.6777647 56.9532203,59.0737311 56.9532203,58.328521 C56.9532203,57.5828067 57.5628814,56.9787731 58.3144068,56.9787731 C59.0659322,56.9787731 59.6750847,57.5828067 59.6750847,58.328521" id="Fill-54" fill="#62B0F6"></path>
            <path d="M2.01162712,57.9296975 L57.663661,57.9296975 L29.8373898,2.74431933 L2.01162712,57.9296975 Z M58.964339,58.7273445 L0.710440678,58.7273445 L29.8373898,0.962470588 L58.964339,58.7273445 Z" id="Fill-56" fill="#62B0F6"></path>
        </g>
        <polygon id="Path-2-Copy" fill="#76BAF7" fill-rule="nonzero" opacity="0.3" points="40.3574328 12 12 68 69 68"></polygon>
    </g>
</svg>