<?xml version="1.0" standalone="no"?>
<!DOCTYPE svg PUBLIC "-//W3C//DTD SVG 20010904//EN"
 "http://www.w3.org/TR/2001/REC-SVG-20010904/DTD/svg10.dtd">
<svg version="1.0" xmlns="http://www.w3.org/2000/svg"
 width="336.000000pt" height="336.000000pt" viewBox="0 0 336.000000 336.000000"
 preserveAspectRatio="xMidYMid meet">
<metadata>
Created by potrace 1.11, written by Peter Selinger 2001-2013
</metadata>
<g transform="translate(0.000000,336.000000) scale(0.100000,-0.100000)"
fill="#000000" stroke="none">
<path d="M6 3351 c-3 -4 -5 -747 -5 -1649 0 -1208 3 -1643 11 -1648 8 -5 9 -1
5 10 -4 9 -3 15 2 12 5 -3 32 19 60 49 29 30 56 55 62 55 5 0 9 5 9 11 0 13
38 49 52 49 4 0 8 4 8 8 0 11 161 172 172 172 4 0 8 4 8 9 0 10 155 164 170
169 6 2 8 8 4 13 -3 5 -1 9 4 9 14 0 212 199 212 213 0 5 2 8 5 5 7 -7 235
221 235 235 0 6 2 8 5 5 7 -7 235 221 235 235 0 6 2 8 5 5 7 -7 475 461 475
475 0 6 2 8 5 5 8 -7 182 165 178 175 -3 4 0 7 6 7 13 0 171 159 171 173 0 6
2 8 5 5 3 -3 176 164 383 370 207 207 380 375 385 374 4 -1 7 2 7 7 0 11 200
211 211 211 5 0 8 3 7 8 -1 4 46 55 105 114 59 58 107 108 107 110 0 2 -735 4
-1634 4 -1148 0 -1633 -3 -1629 -10 3 -6 0 -5 -8 2 -15 14 -26 15 -33 3z"/>
<path d="M3315 3277 c-11 -12 -19 -25 -17 -29 1 -5 -2 -8 -8 -8 -13 0 -109
-98 -102 -104 3 -3 0 -6 -5 -6 -14 0 -248 -232 -245 -242 1 -5 -2 -8 -7 -8
-13 0 -171 -158 -171 -171 0 -5 -3 -8 -7 -7 -10 3 -238 -225 -235 -234 1 -5
-2 -8 -7 -8 -13 0 -176 -163 -173 -172 1 -5 -2 -8 -7 -8 -13 0 -661 -649 -661
-662 0 -6 -2 -9 -5 -6 -7 7 -402 -385 -397 -394 2 -5 -1 -8 -7 -8 -12 0 -486
-473 -483 -482 1 -5 -3 -8 -9 -8 -14 0 -720 -708 -711 -713 4 -3 747 -5 1652
-5 l1645 1 0 1528 c0 933 -3 1525 -9 1522 -5 -4 -6 -1 0 8 13 20 12 239 -1
238 -5 0 -19 -10 -30 -22z"/>
</g>
</svg>
