<svg height="76" viewBox="0 0 76 76" width="76" xmlns="http://www.w3.org/2000/svg"><g fill="none" fill-rule="evenodd"><path d="m63.2183 63.2183c-1.382 1.382-3.8 1.382-5.182 0-1.381-1.382-1.381-3.8 0-5.182 1.497-1.497 3.8-1.497 5.182 0 1.497 1.382 1.497 3.8 0 5.182m-25.218 10.479c-2.073 0-3.685-1.612-3.685-3.685s1.612-3.685 3.685-3.685c2.072 0 3.685 1.612 3.685 3.685s-1.613 3.685-3.685 3.685m-25.219-10.479c-1.381-1.382-1.381-3.8 0-5.182 1.498-1.497 3.801-1.497 5.183 0 1.381 1.382 1.381 3.8 0 5.182-1.382 1.382-3.801 1.382-5.183 0m-10.478-25.218c0-2.073 1.612-3.685 3.685-3.685 2.072 0 3.685 1.612 3.685 3.685 0 2.072-1.613 3.685-3.685 3.685-2.073 0-3.685-1.613-3.685-3.685m10.478-25.219c1.498-1.497 3.801-1.497 5.183 0 1.381 1.382 1.381 3.801 0 5.183-1.382 1.381-3.801 1.381-5.183 0-1.497-1.382-1.497-3.801 0-5.183m25.219-10.478c2.072 0 3.685 1.612 3.685 3.685 0 2.072-1.613 3.685-3.685 3.685-2.073 0-3.685-1.613-3.685-3.685 0-2.073 1.612-3.685 3.685-3.685m25.218 10.478c1.382 1.382 1.382 3.801 0 5.183-1.382 1.381-3.8 1.381-5.182 0-1.381-1.382-1.381-3.801 0-5.183 1.382-1.497 3.8-1.497 5.182 0m10.479 25.219c0 2.072-1.612 3.685-3.685 3.685s-3.685-1.613-3.685-3.685c0-2.073 1.612-3.685 3.685-3.685s3.685 1.612 3.685 3.685m-17.273 18.424c-1.957 1.958-2.188 4.836-1.037 7.024-3.454 2.418-7.484 4.031-11.629 4.836-.691-2.418-2.995-4.26-5.758-4.26-2.764 0-4.952 1.842-5.758 4.26-4.145-.805-8.175-2.418-11.63-4.836 1.267-2.303.921-5.182-1.037-7.024-1.727-1.727-4.606-2.303-7.024-1.037-2.418-3.454-4.03-7.484-4.836-11.629 2.418-.807 4.26-2.995 4.26-5.643s-1.727-4.952-4.26-5.643c.806-4.375 2.533-8.291 4.951-11.86 2.419 1.267 5.182.691 7.025-1.037 1.842-1.842 2.188-4.721 1.036-6.909 3.454-2.418 7.485-4.03 11.63-4.836.806 2.418 2.994 4.145 5.643 4.145 2.648 0 4.951-1.727 5.642-4.145 4.261.806 8.176 2.418 11.745 4.836-1.151 2.303-.805 5.067 1.037 6.909 1.727 1.728 4.491 2.304 7.024 1.037 2.418 3.455 4.031 7.485 4.836 11.63-2.418.806-4.26 2.994-4.26 5.643 0 2.648 1.842 4.951 4.26 5.642-.805 4.146-2.418 8.176-4.836 11.63-2.533-1.151-5.297-.575-7.024 1.267m19.576-18.424c0-3.109-2.418-5.643-5.412-5.988-.807-4.606-2.649-8.982-5.412-12.897 1.957-2.303 1.842-5.873-.346-8.061s-5.642-2.418-8.061-.345c-3.8-2.533-8.29-4.376-12.781-5.182-.346-3.109-2.879-5.527-5.988-5.527s-5.643 2.418-5.988 5.527c-4.606.806-8.982 2.649-12.782 5.297-2.533-2.073-5.988-1.842-8.06.346-2.188 2.187-2.304 5.757-.346 8.06-2.648 3.8-4.491 8.176-5.412 12.782-2.994.345-5.412 2.879-5.412 5.988s2.418 5.642 5.412 5.988c.806 4.605 2.648 9.097 5.297 12.897-1.958 2.303-1.843 5.873.345 8.06 2.073 2.073 5.528 2.419 8.061.346 3.915 2.648 8.291 4.49 12.897 5.412.345 2.994 2.879 5.297 5.988 5.297s5.642-2.418 5.872-5.412c4.607-.807 9.097-2.649 12.897-5.412 2.534 2.072 5.873 1.727 8.061-.346 2.188-2.188 2.303-5.642.346-8.061 2.648-3.915 4.49-8.29 5.296-12.897 3.11-.23 5.528-2.763 5.528-5.872" fill="#8c8c8c"/><path d="m55.5054 42.6519h-10.953c-1.043-.696-2.26-1.13-3.564-1.13h-.087c1.478-.956 2.521-2.608 2.521-4.52v-.174c.522-.261 1.13-.348 1.652-.348h6.085c2.433 0 4.346 1.999 4.346 4.346zm-10.17 6.78h-14.778v-1.825c0-2.434 2-4.347 4.346-4.347h6.085c2.434 0 4.347 1.999 4.347 4.347zm-24.948-8.606c0-2.434 1.999-4.346 4.346-4.346h6.085c.608 0 1.217.174 1.826.435v.087c0 1.912 1.043 3.564 2.52 4.52h-.261c-1.303 0-2.52.434-3.564 1.13h-10.952zm17.646-7.562c1.999 0 3.651 1.651 3.651 3.651 0 1.999-1.652 3.651-3.651 3.651s-3.651-1.652-3.651-3.651c0-2 1.652-3.651 3.651-3.651zm-10.171-6.78c2 0 3.651 1.651 3.651 3.65 0 2-1.651 3.651-3.651 3.651-1.999 0-3.65-1.651-3.65-3.651 0-1.999 1.651-3.65 3.65-3.65zm20.254 0c1.999 0 3.651 1.651 3.651 3.65 0 2-1.652 3.651-3.651 3.651s-3.651-1.651-3.651-3.651c.087-1.999 1.652-3.65 3.651-3.65zm2.956 8.17h-.087c1.478-.956 2.52-2.607 2.52-4.52 0-2.955-2.433-5.389-5.389-5.389-2.955 0-5.389 2.434-5.389 5.389 0 1.913 1.043 3.564 2.521 4.52h-.261c-.695 0-1.391.087-2 .348-.782-1.999-2.694-3.476-5.041-3.476s-4.259 1.477-5.042 3.476c-.695-.261-1.391-.434-2.173-.434h-.087c1.478-.957 2.521-2.608 2.521-4.52 0-2.956-2.434-5.39-5.389-5.39-2.956 0-5.39 2.434-5.39 5.39 0 1.912 1.043 3.563 2.521 4.52h-.261c-3.39 0-6.084 2.781-6.084 6.084v2.695c0 .522.347.869.869.869h10.17c-.608.957-.956 2.087-.956 3.217v2.695c0 .521.348.869.869.869h16.516c.521 0 .869-.348.869-.869v-2.695c0-1.217-.348-2.26-.956-3.217h10.17c.522 0 .87-.347.87-.869v-2.695c.26-3.216-2.521-5.998-5.911-5.998z" fill="#7490b1"/></g></svg>