<?xml version="1.0" encoding="UTF-8"?>
<svg width="253px" height="256px" viewBox="0 0 253 256" version="1.1" xmlns="http://www.w3.org/2000/svg" xmlns:xlink="http://www.w3.org/1999/xlink">
    <!-- Generator: Sketch 51.2 (57519) - http://www.bohemiancoding.com/sketch -->
    <title>Group 5</title>
    <desc>Created with Sketch.</desc>
    <defs></defs>
    <g id="Page-1" stroke="none" stroke-width="1" fill="none" fill-rule="evenodd">
        <g id="Artboard" transform="translate(-1100.000000, -1471.000000)">
            <g id="How-Neutral-Works" transform="translate(175.000000, 1239.000000)">
                <g id="Icon-3" transform="translate(888.000000, 88.000000)">
                    <g id="Group-5" transform="translate(38.000000, 145.000000)">
                        <polygon id="Path-6" stroke="#979797" fill="#7490B1" points="83.4709981 206.114907 7.61545595 206.114907 7.61545595 131.375375 52.6871159 81.2259856 83.4994315 105.069751 118.08154 53.9086074 154.533145 83.1239143 210.76491 18.601447 244.733332 6.56938467 244.733332 206.114907 189.47778 206.114907"></polygon>
                        <g id="Group-4-Copy" transform="translate(86.000000, 152.000000)">
                            <circle id="Oval-2" stroke="#FFFFFF" stroke-width="6" fill="#FFFFFF" cx="50" cy="50" r="50"></circle>
                            <circle id="Oval-2" stroke="#7490B1" stroke-width="2" fill="#7490B1" cx="50" cy="50" r="44"></circle>
                            <path d="M72.6785714,10.3196721 L28.3214286,87.6803279" id="Line-2" stroke="#FFFFFF" stroke-width="3" stroke-linecap="square"></path>
                        </g>
                        <circle id="Oval-4" stroke="#7490B1" fill="#FFFFFF" cx="53.5" cy="84.5" r="7.5"></circle>
                        <circle id="Oval-4-Copy" stroke="#7490B1" fill="#FFFFFF" cx="118.5" cy="56.5" r="7.5"></circle>
                        <circle id="Oval-4-Copy-2" stroke="#7490B1" fill="#FFFFFF" cx="211.5" cy="19.5" r="7.5"></circle>
                        <circle id="Oval-4-Copy-4" stroke="#7490B1" fill="#FFFFFF" cx="153.5" cy="82.5" r="7.5"></circle>
                        <circle id="Oval-4-Copy-5" stroke="#7490B1" fill="#FFFFFF" cx="83.5" cy="103.5" r="7.5"></circle>
                        <circle id="Oval-4-Copy-6" stroke="#7490B1" fill="#FFFFFF" cx="7.5" cy="131.5" r="7.5"></circle>
                        <circle id="Oval-4-Copy-3" stroke="#7490B1" fill="#FFFFFF" cx="243.5" cy="7.5" r="7.5"></circle>
                    </g>
                </g>
            </g>
        </g>
    </g>
</svg>