<?xml version="1.0" encoding="utf-8"?>
<!-- Generator: Adobe Illustrator 22.1.0, SVG Export Plug-In . SVG Version: 6.00 Build 0)  -->
<svg version="1.1" id="Layer_1" xmlns="http://www.w3.org/2000/svg" xmlns:xlink="http://www.w3.org/1999/xlink" x="0px" y="0px"
	 viewBox="0 0 823 925" style="enable-background:new 0 0 823 925;" xml:space="preserve">
<style type="text/css">
	.st0{fill:#4F4F4F;}
	.st1{fill:#E6E5E5;}
	.st2{fill:#2D2D2D;}
	.st3{fill:#AFAFAF;}
	.st4{fill:#FFFFFF;}
	.st5{fill:none;stroke:#7990AE;stroke-width:3;stroke-linecap:round;stroke-linejoin:round;stroke-miterlimit:10;}
	.st6{fill:#7990AE;}
	.st7{font-family:'Arial-Black';}
	.st8{font-size:240.3443px;}
</style>
<g>
	<g>
		<rect x="258.6" y="156.9" width="113.9" height="646.3"/>
		<rect x="123.8" y="412.7" class="st0" width="102.7" height="390.5"/>
		<rect x="342" y="99.8" class="st1" width="154" height="703.4"/>
		<rect x="539.3" y="10" class="st2" width="118.7" height="793.2"/>
		<rect x="460.7" y="297.1" class="st3" width="101.1" height="506.1"/>
		<rect x="372.5" y="600.7" class="st3" width="150.8" height="202.5"/>
		<rect x="200.8" y="445.1" width="105.9" height="358.1"/>
		<rect x="61.2" y="500.2" class="st3" width="77" height="303"/>
		<rect x="636.1" y="283.1" class="st3" width="133.4" height="520.1"/>
	</g>
	<g>
		<circle class="st4" cx="447.9" cy="651.7" r="263.6"/>
		<g>
			<path class="st5" d="M302,462.9c40.3-31.2,91-49.8,145.9-49.8c131.8,0,238.6,106.8,238.6,238.6S579.7,890.3,447.9,890.3
				S209.3,783.5,209.3,651.7c0-36.7,8.3-71.5,23.1-102.6"/>
			<path class="st5" d="M538.8,441.4c44.9,19.4,84,53.3,109.5,99.5c61.1,110.7,20.9,249.9-89.8,311s-249.9,20.9-311-89.8
				s-20.9-249.9,89.8-311c30.8-17,63.9-26.2,96.9-28.1"/>
			<path class="st5" d="M394.1,409.6c51.7-11.5,107.5-6.6,159.2,17.6c123.9,58.2,177.2,205.9,119,329.8s-205.9,177.2-329.8,119
				s-177.2-205.9-119-329.8c16.2-34.5,39.4-63.6,67-86.2"/>
			<g>
				<path class="st6" d="M600.2,804.1c-39,39-92.9,63.1-152.4,63.1c-119,0-215.5-96.5-215.5-215.5c0-89.8,54.9-166.8,133-199.1
					l82.4,199.1L600.2,804.1z"/>
				<path d="M663.4,651.7H447.9V436.2C566.9,436.2,663.4,532.7,663.4,651.7z"/>
				<path class="st2" d="M663.4,651.7c0,59.5-24.1,113.4-63.1,152.4L447.9,651.7H663.4z"/>
				<path class="st3" d="M447.8,436.2v215.5l-82.4-199.1C390.8,442,418.7,436.2,447.8,436.2z"/>
			</g>
			<text transform="matrix(1 0 0 1 350.0898 748.9678)" class="st4 st7 st8">N</text>
		</g>
	</g>
</g>
</svg>
