<?xml version="1.0" encoding="utf-8"?>
<!-- Generator: Adobe Illustrator 22.1.0, SVG Export Plug-In . SVG Version: 6.00 Build 0)  -->
<svg version="1.1" id="Layer_1" xmlns="http://www.w3.org/2000/svg" xmlns:xlink="http://www.w3.org/1999/xlink" x="0px" y="0px"
	 viewBox="0 0 823 925" style="enable-background:new 0 0 823 925;" xml:space="preserve">
<style type="text/css">
	.st0{fill:#242D3C;}
	.st1{fill:#7990AE;}
	.st2{fill:#5E5E5E;}
	.st3{fill:#C4C4C4;}
	.st4{fill:none;stroke:#FFFFFF;stroke-width:2;stroke-linecap:round;stroke-linejoin:round;}
	.st5{fill:none;stroke:#FFFFFF;stroke-width:2;stroke-linecap:round;stroke-linejoin:round;stroke-dasharray:0.9989,0.9989;}
	.st6{fill:none;stroke:#FFFFFF;stroke-width:2;stroke-linecap:round;stroke-linejoin:round;stroke-miterlimit:10;}
	.st7{fill:#FFFFFF;}
</style>
<g>
	<g>
		<g>
			<ellipse class="st0" cx="77.9" cy="344.3" rx="4.8" ry="4.8"/>
			<ellipse class="st0" cx="77.9" cy="362.4" rx="4.8" ry="4.8"/>
			<ellipse class="st0" cx="77.9" cy="380.5" rx="4.8" ry="4.8"/>
			<path class="st0" d="M77.9,403.4c-2.6,0-4.8-2.1-4.8-4.8c0-2.6,2.1-4.8,4.8-4.8c2.6,0,4.8,2.1,4.8,4.8
				C82.7,401.2,80.5,403.4,77.9,403.4z"/>
			<ellipse class="st0" cx="77.9" cy="416.7" rx="4.8" ry="4.8"/>
			<path class="st0" d="M77.9,439.6c-2.6,0-4.8-2.1-4.8-4.8c0-2.6,2.1-4.8,4.8-4.8c2.6,0,4.8,2.1,4.8,4.8
				C82.7,437.4,80.5,439.6,77.9,439.6z"/>
			<ellipse class="st0" cx="77.9" cy="452.9" rx="4.8" ry="4.8"/>
			<ellipse class="st0" cx="77.9" cy="471" rx="4.8" ry="4.8"/>
			<ellipse class="st0" cx="77.9" cy="489.1" rx="4.8" ry="4.8"/>
			<ellipse class="st0" cx="77.9" cy="507.2" rx="4.8" ry="4.8"/>
			<path class="st0" d="M77.9,530.1c-2.6,0-4.8-2.1-4.8-4.8c0-2.6,2.1-4.8,4.8-4.8c2.6,0,4.8,2.1,4.8,4.8
				C82.7,528,80.5,530.1,77.9,530.1z"/>
			<ellipse class="st0" cx="77.9" cy="543.4" rx="4.8" ry="4.8"/>
			<ellipse class="st0" cx="77.9" cy="561.5" rx="4.8" ry="4.8"/>
			<ellipse class="st0" cx="77.9" cy="579.6" rx="4.8" ry="4.8"/>
			<path class="st0" d="M407.6,158.2c-2.6,0-4.8-2.1-4.8-4.8s2.1-4.8,4.8-4.8c2.6,0,4.8,2.1,4.8,4.8S410.2,158.2,407.6,158.2z"/>
			<path class="st0" d="M407.6,176.3c-2.6,0-4.8-2.1-4.8-4.8c0-2.6,2.1-4.8,4.8-4.8c2.6,0,4.8,2.1,4.8,4.8
				C412.4,174.2,410.2,176.3,407.6,176.3z"/>
			<path class="st0" d="M407.6,194.4c-2.6,0-4.8-2.1-4.8-4.8c0-2.6,2.1-4.8,4.8-4.8c2.6,0,4.8,2.1,4.8,4.8
				C412.4,192.3,410.2,194.4,407.6,194.4z"/>
			<path class="st0" d="M407.6,212.5c-2.6,0-4.8-2.1-4.8-4.8c0-2.6,2.1-4.8,4.8-4.8c2.6,0,4.8,2.1,4.8,4.8
				C412.4,210.4,410.2,212.5,407.6,212.5z"/>
			<path class="st0" d="M407.6,230.6c-2.6,0-4.8-2.1-4.8-4.8s2.1-4.8,4.8-4.8c2.6,0,4.8,2.1,4.8,4.8S410.2,230.6,407.6,230.6z"/>
			<path class="st0" d="M407.6,248.7c-2.6,0-4.8-2.1-4.8-4.8c0-2.6,2.1-4.8,4.8-4.8c2.6,0,4.8,2.1,4.8,4.8
				C412.4,246.6,410.2,248.7,407.6,248.7z"/>
			<path class="st0" d="M407.6,266.9c-2.6,0-4.8-2.1-4.8-4.8c0-2.6,2.1-4.8,4.8-4.8c2.6,0,4.8,2.1,4.8,4.8
				C412.4,264.7,410.2,266.9,407.6,266.9z"/>
			<path class="st0" d="M140.4,312.5c-0.8,0-1.7-0.2-2.4-0.6c-2.3-1.3-3.1-4.3-1.7-6.5c0.9-1.5,2.4-2.4,4.1-2.4
				c0.8,0,1.7,0.2,2.4,0.6c1.1,0.6,1.9,1.7,2.2,2.9c0.3,1.2,0.2,2.5-0.5,3.6C143.7,311.6,142.1,312.5,140.4,312.5z"/>
			<path class="st0" d="M156.1,321.5c-0.8,0-1.7-0.2-2.4-0.6c-2.3-1.3-3.1-4.3-1.7-6.5c0.9-1.5,2.4-2.4,4.1-2.4
				c0.8,0,1.7,0.2,2.4,0.6c1.1,0.6,1.9,1.7,2.2,2.9c0.3,1.2,0.2,2.5-0.5,3.6C159.4,320.6,157.8,321.5,156.1,321.5z"/>
			<path class="st0" d="M171.8,330.6c-0.8,0-1.7-0.2-2.4-0.6c-1.1-0.6-1.9-1.7-2.2-2.9c-0.3-1.2-0.2-2.5,0.5-3.6
				c0.9-1.5,2.4-2.4,4.1-2.4c0.8,0,1.7,0.2,2.4,0.6c2.3,1.3,3.1,4.3,1.7,6.5C175.1,329.7,173.5,330.6,171.8,330.6z"/>
			<path class="st0" d="M187.5,339.6c-0.8,0-1.7-0.2-2.4-0.6c-1.1-0.6-1.9-1.7-2.2-2.9c-0.3-1.2-0.2-2.5,0.5-3.6
				c0.9-1.5,2.4-2.4,4.1-2.4c0.8,0,1.7,0.2,2.4,0.6c2.3,1.3,3.1,4.3,1.8,6.5C190.7,338.7,189.2,339.6,187.5,339.6z"/>
			<path class="st0" d="M203.1,348.7c-0.8,0-1.7-0.2-2.4-0.6c-1.1-0.6-1.9-1.7-2.2-2.9c-0.3-1.2-0.2-2.5,0.5-3.6
				c0.9-1.5,2.4-2.4,4.1-2.4c0.8,0,1.7,0.2,2.4,0.6c2.3,1.3,3.1,4.3,1.7,6.5C206.4,347.8,204.8,348.7,203.1,348.7z"/>
			<path class="st0" d="M218.8,357.7c-0.8,0-1.7-0.2-2.4-0.6c-2.3-1.3-3.1-4.3-1.8-6.5c0.9-1.5,2.4-2.4,4.2-2.4
				c0.8,0,1.7,0.2,2.4,0.6c1.1,0.6,1.9,1.7,2.2,2.9c0.3,1.2,0.2,2.5-0.5,3.6C222.1,356.8,220.5,357.7,218.8,357.7z"/>
			<path class="st0" d="M234.5,366.8c-0.8,0-1.7-0.2-2.4-0.6c-1.1-0.6-1.9-1.7-2.2-2.9c-0.3-1.2-0.2-2.5,0.5-3.6
				c0.9-1.5,2.4-2.4,4.1-2.4c0.8,0,1.7,0.2,2.4,0.6c2.3,1.3,3.1,4.3,1.8,6.5C237.8,365.9,236.2,366.8,234.5,366.8z"/>
			<path class="st0" d="M407.6,666.5c-2.6,0-4.8-2.1-4.8-4.8c0-2.6,2.1-4.8,4.8-4.8c2.6,0,4.8,2.1,4.8,4.8
				C412.4,664.4,410.2,666.5,407.6,666.5z"/>
			<path class="st0" d="M407.6,684.6c-2.6,0-4.8-2.1-4.8-4.8s2.1-4.8,4.8-4.8c2.6,0,4.8,2.1,4.8,4.8S410.2,684.6,407.6,684.6z"/>
			<path class="st0" d="M407.6,702.7c-2.6,0-4.8-2.1-4.8-4.8s2.1-4.8,4.8-4.8c2.6,0,4.8,2.1,4.8,4.8S410.2,702.7,407.6,702.7z"/>
			<path class="st0" d="M407.6,720.9c-2.6,0-4.8-2.1-4.8-4.8c0-2.6,2.1-4.8,4.8-4.8c2.6,0,4.8,2.1,4.8,4.8
				C412.4,718.7,410.2,720.9,407.6,720.9z"/>
			<path class="st0" d="M407.6,739c-2.6,0-4.8-2.1-4.8-4.8c0-2.6,2.1-4.8,4.8-4.8c2.6,0,4.8,2.1,4.8,4.8
				C412.4,736.8,410.2,739,407.6,739z"/>
			<path class="st0" d="M407.6,757.1c-2.6,0-4.8-2.1-4.8-4.8s2.1-4.8,4.8-4.8c2.6,0,4.8,2.1,4.8,4.8S410.2,757.1,407.6,757.1z"/>
			<path class="st0" d="M407.6,775.2c-2.6,0-4.8-2.1-4.8-4.8c0-2.6,2.1-4.8,4.8-4.8c2.6,0,4.8,2.1,4.8,4.8
				C412.4,773,410.2,775.2,407.6,775.2z"/>
			<path class="st0" d="M580.6,566.6c-0.8,0-1.7-0.2-2.4-0.6c-1.1-0.6-1.9-1.7-2.2-2.9c-0.3-1.2-0.2-2.5,0.5-3.6
				c0.9-1.5,2.4-2.4,4.1-2.4c0.8,0,1.7,0.2,2.4,0.6c1.1,0.6,1.9,1.7,2.2,2.9c0.3,1.2,0.2,2.5-0.5,3.6
				C583.9,565.7,582.3,566.6,580.6,566.6z"/>
			<path class="st0" d="M596.3,575.7c-0.8,0-1.7-0.2-2.4-0.6c-1.1-0.6-1.9-1.7-2.2-2.9c-0.3-1.2-0.2-2.5,0.5-3.6
				c0.9-1.5,2.4-2.4,4.1-2.4c0.8,0,1.7,0.2,2.4,0.6c2.3,1.3,3.1,4.3,1.8,6.5C599.6,574.8,598,575.7,596.3,575.7z"/>
			<path class="st0" d="M612,584.7c-0.8,0-1.7-0.2-2.4-0.6c-1.1-0.6-1.9-1.7-2.2-2.9c-0.3-1.2-0.2-2.5,0.5-3.6
				c0.9-1.5,2.4-2.4,4.1-2.4c0.8,0,1.7,0.2,2.4,0.6c2.3,1.3,3.1,4.3,1.7,6.5C615.3,583.8,613.7,584.7,612,584.7z"/>
			<path class="st0" d="M627.7,593.8c-0.8,0-1.7-0.2-2.4-0.6c-1.1-0.6-1.9-1.7-2.2-2.9c-0.3-1.2-0.2-2.5,0.5-3.6
				c0.9-1.5,2.4-2.4,4.1-2.4c0.8,0,1.7,0.2,2.4,0.6c2.3,1.3,3.1,4.3,1.8,6.5C631,592.9,629.4,593.8,627.7,593.8z"/>
			<path class="st0" d="M643.4,602.9c-0.8,0-1.7-0.2-2.4-0.6c-1.1-0.6-1.9-1.7-2.2-2.9s-0.2-2.5,0.5-3.6c0.9-1.5,2.4-2.4,4.1-2.4
				c0.8,0,1.7,0.2,2.4,0.6c2.3,1.3,3.1,4.3,1.8,6.5C646.7,601.9,645.1,602.9,643.4,602.9z"/>
			<path class="st0" d="M659,611.9c-0.8,0-1.7-0.2-2.4-0.6c-2.3-1.3-3.1-4.3-1.8-6.5c0.9-1.5,2.4-2.4,4.2-2.4c0.8,0,1.7,0.2,2.4,0.6
				c2.3,1.3,3.1,4.3,1.8,6.5C662.3,611,660.7,611.9,659,611.9z"/>
			<path class="st0" d="M674.7,621c-0.8,0-1.7-0.2-2.4-0.6c-2.3-1.3-3.1-4.3-1.7-6.5c0.9-1.5,2.4-2.4,4.1-2.4c0.8,0,1.7,0.2,2.4,0.6
				c2.3,1.3,3.1,4.3,1.8,6.5C678,620,676.4,621,674.7,621z"/>
			<path class="st0" d="M580.6,366.8c-1.7,0-3.3-0.9-4.1-2.4c-0.6-1.1-0.8-2.4-0.5-3.6c0.3-1.2,1.1-2.3,2.2-2.9
				c0.7-0.4,1.6-0.6,2.4-0.6c1.7,0,3.3,0.9,4.1,2.4c0.6,1.1,0.8,2.4,0.5,3.6c-0.3,1.2-1.1,2.3-2.2,2.9
				C582.3,366.6,581.5,366.8,580.6,366.8z"/>
			<path class="st0" d="M596.3,357.7c-1.7,0-3.3-0.9-4.1-2.4c-0.6-1.1-0.8-2.4-0.5-3.6c0.3-1.2,1.1-2.3,2.2-2.9
				c0.7-0.4,1.6-0.6,2.4-0.6c1.7,0,3.3,0.9,4.1,2.4c1.3,2.3,0.5,5.2-1.8,6.5C598,357.5,597.2,357.7,596.3,357.7z"/>
			<path class="st0" d="M612,348.7c-1.7,0-3.3-0.9-4.1-2.4c-0.6-1.1-0.8-2.4-0.5-3.6c0.3-1.2,1.1-2.3,2.2-2.9
				c0.7-0.4,1.5-0.6,2.4-0.6c1.7,0,3.3,0.9,4.1,2.4c1.3,2.3,0.5,5.2-1.7,6.5C613.7,348.5,612.8,348.7,612,348.7z"/>
			<path class="st0" d="M627.7,339.6c-1.7,0-3.3-0.9-4.1-2.4c-0.6-1.1-0.8-2.4-0.5-3.6c0.3-1.2,1.1-2.3,2.2-2.9
				c0.7-0.4,1.6-0.6,2.4-0.6c1.7,0,3.3,0.9,4.2,2.4c1.3,2.3,0.5,5.2-1.8,6.5C629.3,339.4,628.5,339.6,627.7,339.6z"/>
			<path class="st0" d="M643.4,330.6c-1.7,0-3.3-0.9-4.1-2.4c-0.6-1.1-0.8-2.4-0.5-3.6c0.3-1.2,1.1-2.3,2.2-2.9
				c0.7-0.4,1.6-0.6,2.4-0.6c1.7,0,3.3,0.9,4.1,2.4c1.3,2.3,0.5,5.2-1.8,6.5C645,330.4,644.2,330.6,643.4,330.6z"/>
			<path class="st0" d="M659,321.5c-1.7,0-3.3-0.9-4.2-2.4c-1.3-2.3-0.5-5.2,1.8-6.5c0.7-0.4,1.6-0.6,2.4-0.6c1.7,0,3.3,0.9,4.1,2.4
				c1.3,2.3,0.5,5.2-1.8,6.5C660.7,321.3,659.9,321.5,659,321.5z"/>
			<path class="st0" d="M674.7,312.5c-1.7,0-3.3-0.9-4.1-2.4c-1.3-2.3-0.5-5.2,1.7-6.5c0.7-0.4,1.6-0.6,2.4-0.6
				c1.7,0,3.3,0.9,4.1,2.4c1.3,2.3,0.5,5.2-1.8,6.5C676.4,312.3,675.6,312.5,674.7,312.5z"/>
			<path class="st0" d="M140.4,621c-1.7,0-3.3-0.9-4.1-2.4c-1.3-2.3-0.5-5.2,1.7-6.5c0.7-0.4,1.6-0.6,2.4-0.6c1.7,0,3.3,0.9,4.1,2.4
				c0.6,1.1,0.8,2.4,0.5,3.6c-0.3,1.2-1.1,2.3-2.2,2.9C142.1,620.7,141.3,621,140.4,621z"/>
			<path class="st0" d="M156.1,611.9c-1.7,0-3.3-0.9-4.2-2.4c-1.3-2.3-0.5-5.2,1.7-6.5c0.7-0.4,1.6-0.6,2.4-0.6
				c1.7,0,3.3,0.9,4.1,2.4c0.6,1.1,0.8,2.4,0.5,3.6c-0.3,1.2-1.1,2.3-2.2,2.9C157.8,611.7,156.9,611.9,156.1,611.9z"/>
			<path class="st0" d="M171.8,602.9c-1.7,0-3.3-0.9-4.1-2.4c-0.6-1.1-0.8-2.4-0.5-3.6c0.3-1.2,1.1-2.3,2.2-2.9
				c0.7-0.4,1.6-0.6,2.4-0.6c1.7,0,3.3,0.9,4.1,2.4c0.6,1.1,0.8,2.4,0.5,3.6c-0.3,1.2-1.1,2.3-2.2,2.9
				C173.4,602.6,172.6,602.9,171.8,602.9z"/>
			<path class="st0" d="M187.5,593.8c-1.7,0-3.3-0.9-4.1-2.4c-0.6-1.1-0.8-2.4-0.5-3.6c0.3-1.2,1.1-2.3,2.2-2.9
				c0.7-0.4,1.6-0.6,2.4-0.6c1.7,0,3.3,0.9,4.1,2.4c1.3,2.3,0.5,5.2-1.8,6.5C189.1,593.6,188.3,593.8,187.5,593.8z"/>
			<path class="st0" d="M203.1,584.7c-1.7,0-3.3-0.9-4.2-2.4c-1.3-2.3-0.5-5.2,1.8-6.5c0.7-0.4,1.6-0.6,2.4-0.6
				c1.7,0,3.3,0.9,4.1,2.4c0.6,1.1,0.8,2.4,0.5,3.6c-0.3,1.2-1.1,2.3-2.2,2.9C204.8,584.5,204,584.7,203.1,584.7z"/>
			<path class="st0" d="M218.8,575.7c-1.7,0-3.3-0.9-4.2-2.4c-1.3-2.3-0.5-5.2,1.8-6.5c0.7-0.4,1.5-0.6,2.4-0.6
				c1.7,0,3.3,0.9,4.2,2.4c1.3,2.3,0.5,5.2-1.8,6.5C220.5,575.5,219.7,575.7,218.8,575.7z"/>
			<path class="st0" d="M234.5,566.6c-1.7,0-3.3-0.9-4.1-2.4c-0.6-1.1-0.8-2.4-0.5-3.6c0.3-1.2,1.1-2.3,2.2-2.9
				c0.7-0.4,1.6-0.6,2.4-0.6c1.7,0,3.3,0.9,4.1,2.4c1.3,2.3,0.5,5.2-1.8,6.5C236.2,566.4,235.3,566.6,234.5,566.6z"/>
			<ellipse class="st0" cx="737.2" cy="344.2" rx="4.8" ry="4.8"/>
			<ellipse class="st0" cx="737.2" cy="362.3" rx="4.8" ry="4.8"/>
			<ellipse class="st0" cx="737.2" cy="380.4" rx="4.8" ry="4.8"/>
			<ellipse class="st0" cx="737.2" cy="398.5" rx="4.8" ry="4.8"/>
			<ellipse class="st0" cx="737.2" cy="416.7" rx="4.8" ry="4.8"/>
			<ellipse class="st0" cx="737.2" cy="434.8" rx="4.8" ry="4.8"/>
			<path class="st0" d="M737.2,457.6c-2.6,0-4.8-2.1-4.8-4.8c0-2.6,2.1-4.8,4.8-4.8c2.6,0,4.8,2.1,4.8,4.8
				C742,455.5,739.9,457.6,737.2,457.6z"/>
			<ellipse class="st0" cx="737.2" cy="471" rx="4.8" ry="4.8"/>
			<ellipse class="st0" cx="737.2" cy="489.1" rx="4.8" ry="4.8"/>
			<path class="st0" d="M737.2,512c-2.6,0-4.8-2.1-4.8-4.8c0-2.6,2.1-4.8,4.8-4.8c2.6,0,4.8,2.1,4.8,4.8
				C742,509.8,739.9,512,737.2,512z"/>
			<ellipse class="st0" cx="737.2" cy="525.3" rx="4.8" ry="4.8"/>
			<ellipse class="st0" cx="737.2" cy="543.4" rx="4.8" ry="4.8"/>
			<ellipse class="st0" cx="737.2" cy="561.5" rx="4.8" ry="4.8"/>
			<ellipse class="st0" cx="737.2" cy="579.6" rx="4.8" ry="4.8"/>
			<path class="st0" d="M344.7,122.4c-1.7,0-3.3-0.9-4.2-2.4c-0.6-1.1-0.8-2.4-0.5-3.6c0.3-1.2,1.1-2.3,2.2-2.9
				c0.7-0.4,1.6-0.6,2.4-0.6c1.7,0,3.3,0.9,4.1,2.4c1.3,2.3,0.5,5.2-1.7,6.5C346.3,122.1,345.5,122.4,344.7,122.4z"/>
			<path class="st0" d="M329,131.4c-1.7,0-3.3-0.9-4.1-2.4c-0.6-1.1-0.8-2.4-0.5-3.6c0.3-1.2,1.1-2.3,2.2-2.9
				c0.7-0.4,1.6-0.6,2.4-0.6c1.7,0,3.3,0.9,4.1,2.4c1.3,2.3,0.5,5.2-1.7,6.5C330.6,131.2,329.8,131.4,329,131.4z"/>
			<path class="st0" d="M313.3,140.5c-1.7,0-3.3-0.9-4.1-2.4c-1.3-2.3-0.5-5.2,1.7-6.5c0.7-0.4,1.6-0.6,2.4-0.6
				c1.7,0,3.3,0.9,4.2,2.4c0.6,1.1,0.8,2.4,0.5,3.6c-0.3,1.2-1.1,2.3-2.2,2.9C315,140.2,314.1,140.5,313.3,140.5z"/>
			<path class="st0" d="M297.6,149.5c-1.7,0-3.3-0.9-4.1-2.4c-0.6-1.1-0.8-2.4-0.5-3.6c0.3-1.2,1.1-2.3,2.2-2.9
				c0.7-0.4,1.6-0.6,2.4-0.6c1.7,0,3.3,0.9,4.1,2.4c1.3,2.3,0.5,5.2-1.8,6.5C299.3,149.3,298.5,149.5,297.6,149.5z"/>
			<path class="st0" d="M281.9,158.6c-1.7,0-3.3-0.9-4.2-2.4c-0.6-1.1-0.8-2.4-0.5-3.6c0.3-1.2,1.1-2.3,2.2-2.9
				c0.7-0.4,1.5-0.6,2.4-0.6c1.7,0,3.3,0.9,4.1,2.4c0.6,1.1,0.8,2.4,0.5,3.6c-0.3,1.2-1.1,2.3-2.2,2.9
				C283.6,158.3,282.8,158.6,281.9,158.6z"/>
			<path class="st0" d="M266.3,167.6c-1.7,0-3.3-0.9-4.2-2.4c-1.3-2.3-0.5-5.2,1.7-6.5c0.7-0.4,1.5-0.6,2.4-0.6
				c1.7,0,3.3,0.9,4.2,2.4c0.6,1.1,0.8,2.4,0.5,3.6c-0.3,1.2-1.1,2.3-2.2,2.9C267.9,167.4,267.1,167.6,266.3,167.6z"/>
			<path class="st0" d="M250.6,176.7c-1.7,0-3.3-0.9-4.1-2.4c-1.3-2.3-0.5-5.2,1.7-6.5c0.7-0.4,1.6-0.6,2.4-0.6
				c1.7,0,3.3,0.9,4.2,2.4c0.6,1.1,0.8,2.4,0.5,3.6c-0.3,1.2-1.1,2.3-2.2,2.9C252.2,176.5,251.4,176.7,250.6,176.7z"/>
			<path class="st0" d="M234.9,185.7c-1.7,0-3.3-0.9-4.1-2.4c-0.6-1.1-0.8-2.4-0.5-3.6c0.3-1.2,1.1-2.3,2.2-2.9
				c0.7-0.4,1.5-0.6,2.4-0.6c1.7,0,3.3,0.9,4.2,2.4c1.3,2.3,0.5,5.2-1.8,6.5C236.6,185.5,235.7,185.7,234.9,185.7z"/>
			<path class="st0" d="M219.2,194.8c-1.7,0-3.3-0.9-4.2-2.4c-0.6-1.1-0.8-2.4-0.5-3.6c0.3-1.2,1.1-2.3,2.2-2.9
				c0.7-0.4,1.5-0.6,2.4-0.6c1.7,0,3.3,0.9,4.1,2.4c1.3,2.3,0.5,5.2-1.7,6.5C220.9,194.6,220.1,194.8,219.2,194.8z"/>
			<path class="st0" d="M203.5,203.8c-1.7,0-3.3-0.9-4.1-2.4c-1.3-2.3-0.5-5.2,1.7-6.5c0.7-0.4,1.6-0.6,2.4-0.6
				c1.7,0,3.3,0.9,4.1,2.4c1.3,2.3,0.5,5.2-1.8,6.5C205.2,203.6,204.4,203.8,203.5,203.8z"/>
			<path class="st0" d="M187.9,212.9c-1.7,0-3.3-0.9-4.1-2.4c-1.3-2.3-0.5-5.2,1.8-6.5c0.7-0.4,1.6-0.6,2.4-0.6
				c1.7,0,3.3,0.9,4.1,2.4c1.3,2.3,0.5,5.2-1.8,6.5C189.5,212.7,188.7,212.9,187.9,212.9z"/>
			<path class="st0" d="M172.2,221.9c-1.7,0-3.3-0.9-4.1-2.4c-0.6-1.1-0.8-2.4-0.5-3.6c0.3-1.2,1.1-2.3,2.2-2.9
				c0.7-0.4,1.6-0.6,2.4-0.6c1.7,0,3.3,0.9,4.1,2.4c1.3,2.3,0.5,5.2-1.8,6.5C173.8,221.7,173,221.9,172.2,221.9z"/>
			<path class="st0" d="M156.5,231c-1.7,0-3.3-0.9-4.1-2.4c-0.6-1.1-0.8-2.4-0.5-3.6c0.3-1.2,1.1-2.3,2.2-2.9
				c0.7-0.4,1.5-0.6,2.4-0.6c1.7,0,3.3,0.9,4.1,2.4c1.3,2.3,0.5,5.2-1.7,6.5C158.2,230.8,157.3,231,156.5,231z"/>
			<path class="st0" d="M140.8,240c-1.7,0-3.3-0.9-4.1-2.4c-1.3-2.3-0.5-5.2,1.7-6.5c0.7-0.4,1.5-0.6,2.4-0.6c1.7,0,3.3,0.9,4.2,2.4
				c0.6,1.1,0.8,2.4,0.5,3.6c-0.3,1.2-1.1,2.3-2.2,2.9C142.5,239.8,141.7,240,140.8,240z"/>
			<path class="st0" d="M674.3,693.4c-1.7,0-3.3-0.9-4.2-2.4c-0.6-1.1-0.8-2.4-0.5-3.6c0.3-1.2,1.1-2.3,2.2-2.9
				c0.7-0.4,1.5-0.6,2.4-0.6c1.7,0,3.3,0.9,4.1,2.4c0.6,1.1,0.8,2.4,0.5,3.6c-0.3,1.2-1.1,2.3-2.2,2.9
				C676,693.2,675.2,693.4,674.3,693.4z"/>
			<path class="st0" d="M658.6,702.4c-1.7,0-3.3-0.9-4.1-2.4c-0.6-1.1-0.8-2.4-0.5-3.6c0.3-1.2,1.1-2.3,2.2-2.9
				c0.7-0.4,1.6-0.6,2.4-0.6c1.7,0,3.3,0.9,4.1,2.4c1.3,2.3,0.5,5.2-1.7,6.5C660.3,702.2,659.5,702.4,658.6,702.4z"/>
			<path class="st0" d="M643,711.5c-1.7,0-3.3-0.9-4.1-2.4c-0.6-1.1-0.8-2.4-0.5-3.6c0.3-1.2,1.1-2.3,2.2-2.9
				c0.7-0.4,1.5-0.6,2.4-0.6c1.7,0,3.3,0.9,4.2,2.4c1.3,2.3,0.5,5.2-1.8,6.5C644.6,711.3,643.8,711.5,643,711.5z"/>
			<path class="st0" d="M627.3,720.5c-1.7,0-3.3-0.9-4.2-2.4c-1.3-2.3-0.5-5.2,1.8-6.5c0.7-0.4,1.6-0.6,2.4-0.6
				c1.7,0,3.3,0.9,4.1,2.4c0.6,1.1,0.8,2.4,0.5,3.6c-0.3,1.2-1.1,2.3-2.2,2.9C629,720.3,628.1,720.5,627.3,720.5z"/>
			<path class="st0" d="M611.6,729.6c-1.7,0-3.3-0.9-4.1-2.4c-0.6-1.1-0.8-2.4-0.5-3.6c0.3-1.2,1.1-2.3,2.2-2.9
				c0.7-0.4,1.6-0.6,2.4-0.6c1.7,0,3.3,0.9,4.1,2.4c1.3,2.3,0.5,5.2-1.7,6.5C613.3,729.4,612.4,729.6,611.6,729.6z"/>
			<path class="st0" d="M595.9,738.6c-1.7,0-3.3-0.9-4.2-2.4c-0.6-1.1-0.8-2.4-0.5-3.6c0.3-1.2,1.1-2.3,2.2-2.9
				c0.7-0.4,1.5-0.6,2.4-0.6c1.7,0,3.3,0.9,4.2,2.4c0.6,1.1,0.8,2.4,0.5,3.6c-0.3,1.2-1.1,2.3-2.2,2.9
				C597.6,738.4,596.8,738.6,595.9,738.6z"/>
			<path class="st0" d="M580.3,747.7c-1.7,0-3.3-0.9-4.1-2.4c-1.3-2.3-0.5-5.2,1.7-6.5c0.7-0.4,1.6-0.6,2.4-0.6
				c1.7,0,3.3,0.9,4.1,2.4c0.6,1.1,0.8,2.4,0.5,3.6c-0.3,1.2-1.1,2.3-2.2,2.9C581.9,747.5,581.1,747.7,580.3,747.7z"/>
			<path class="st0" d="M564.6,756.7c-1.7,0-3.3-0.9-4.1-2.4c-0.6-1.1-0.8-2.4-0.5-3.6c0.3-1.2,1.1-2.3,2.2-2.9
				c0.7-0.4,1.5-0.6,2.4-0.6c1.7,0,3.3,0.9,4.2,2.4c1.3,2.3,0.5,5.2-1.8,6.5C566.2,756.5,565.4,756.7,564.6,756.7z"/>
			<path class="st0" d="M548.9,765.8c-1.7,0-3.3-0.9-4.2-2.4c-0.6-1.1-0.8-2.4-0.5-3.6c0.3-1.2,1.1-2.3,2.2-2.9
				c0.7-0.4,1.5-0.6,2.4-0.6c1.7,0,3.3,0.9,4.2,2.4c0.6,1.1,0.8,2.4,0.5,3.6c-0.3,1.2-1.1,2.3-2.2,2.9
				C550.6,765.6,549.7,765.8,548.9,765.8z"/>
			<path class="st0" d="M533.2,774.9c-1.7,0-3.3-0.9-4.1-2.4c-0.6-1.1-0.8-2.4-0.5-3.6c0.3-1.2,1.1-2.3,2.2-2.9
				c0.7-0.4,1.6-0.6,2.4-0.6c1.7,0,3.3,0.9,4.1,2.4c1.3,2.3,0.5,5.2-1.8,6.5C534.9,774.6,534,774.9,533.2,774.9z"/>
			<path class="st0" d="M517.5,783.9c-1.7,0-3.3-0.9-4.1-2.4c-0.6-1.1-0.8-2.4-0.5-3.6c0.3-1.2,1.1-2.3,2.2-2.9
				c0.7-0.4,1.5-0.6,2.4-0.6c1.7,0,3.3,0.9,4.2,2.4c1.3,2.3,0.5,5.2-1.8,6.5C519.2,783.7,518.4,783.9,517.5,783.9z"/>
			<path class="st0" d="M501.9,793c-1.7,0-3.3-0.9-4.2-2.4c-0.6-1.1-0.8-2.4-0.5-3.6c0.3-1.2,1.1-2.3,2.2-2.9
				c0.7-0.4,1.5-0.6,2.4-0.6c1.7,0,3.3,0.9,4.2,2.4c0.6,1.1,0.8,2.4,0.5,3.6c-0.3,1.2-1.1,2.3-2.2,2.9
				C503.5,792.7,502.7,793,501.9,793z"/>
			<path class="st0" d="M486.2,802c-1.7,0-3.3-0.9-4.1-2.4c-0.6-1.1-0.8-2.4-0.5-3.6c0.3-1.2,1.1-2.3,2.2-2.9
				c0.7-0.4,1.6-0.6,2.4-0.6c1.7,0,3.3,0.9,4.1,2.4c1.3,2.3,0.5,5.2-1.7,6.5C487.8,801.8,487,802,486.2,802z"/>
			<path class="st0" d="M470.5,811.1c-1.7,0-3.3-0.9-4.1-2.4c-0.6-1.1-0.8-2.4-0.5-3.6c0.3-1.2,1.1-2.3,2.2-2.9
				c0.7-0.4,1.5-0.6,2.4-0.6c1.7,0,3.3,0.9,4.2,2.4c1.3,2.3,0.5,5.2-1.8,6.5C472.2,810.8,471.3,811.1,470.5,811.1z"/>
			<path class="st0" d="M674.3,240.1c-0.8,0-1.7-0.2-2.4-0.6c-1.1-0.6-1.9-1.7-2.2-2.9c-0.3-1.2-0.2-2.5,0.5-3.6
				c0.9-1.5,2.4-2.4,4.2-2.4c0.8,0,1.7,0.2,2.4,0.6c1.1,0.6,1.9,1.7,2.2,2.9c0.3,1.2,0.2,2.5-0.5,3.6
				C677.6,239.1,676,240.1,674.3,240.1L674.3,240.1z"/>
			<path class="st0" d="M658.7,231c-0.8,0-1.7-0.2-2.4-0.6c-1.1-0.6-1.9-1.7-2.2-2.9c-0.3-1.2-0.2-2.5,0.5-3.6
				c0.9-1.5,2.4-2.4,4.1-2.4c0.8,0,1.7,0.2,2.4,0.6c2.3,1.3,3.1,4.3,1.7,6.5C661.9,230.1,660.4,231,658.7,231L658.7,231z"/>
			<path class="st0" d="M643,221.9c-0.8,0-1.7-0.2-2.4-0.6c-1.1-0.6-1.9-1.7-2.2-2.9c-0.3-1.2-0.2-2.5,0.5-3.6
				c0.9-1.5,2.4-2.4,4.1-2.4c0.8,0,1.7,0.2,2.4,0.6c2.3,1.3,3.1,4.3,1.8,6.5C646.3,221,644.7,221.9,643,221.9L643,221.9z"/>
			<path class="st0" d="M627.3,212.9c-0.8,0-1.7-0.2-2.4-0.6c-2.3-1.3-3.1-4.3-1.8-6.5c0.9-1.5,2.4-2.4,4.2-2.4
				c0.8,0,1.7,0.2,2.4,0.6c1.1,0.6,1.9,1.7,2.2,2.9c0.3,1.2,0.2,2.5-0.5,3.6C630.6,212,629,212.9,627.3,212.9L627.3,212.9z"/>
			<path class="st0" d="M611.6,203.8c-0.8,0-1.7-0.2-2.4-0.6c-1.1-0.6-1.9-1.7-2.2-2.9c-0.3-1.2-0.2-2.5,0.5-3.6
				c0.9-1.5,2.4-2.4,4.1-2.4c0.8,0,1.7,0.2,2.4,0.6c2.3,1.3,3.1,4.3,1.7,6.5C614.9,202.9,613.3,203.8,611.6,203.8L611.6,203.8z"/>
			<path class="st0" d="M595.9,194.8c-0.8,0-1.7-0.2-2.4-0.6c-1.1-0.6-1.9-1.7-2.2-2.9c-0.3-1.2-0.2-2.5,0.5-3.6
				c0.9-1.5,2.4-2.4,4.2-2.4c0.8,0,1.7,0.2,2.4,0.6c1.1,0.6,1.9,1.7,2.2,2.9c0.3,1.2,0.2,2.5-0.5,3.6
				C599.2,193.9,597.6,194.8,595.9,194.8L595.9,194.8z"/>
			<path class="st0" d="M580.3,185.7c-0.8,0-1.7-0.2-2.4-0.6c-2.3-1.3-3.1-4.3-1.7-6.5c0.9-1.5,2.4-2.4,4.1-2.4
				c0.8,0,1.7,0.2,2.4,0.6c1.1,0.6,1.9,1.7,2.2,2.9c0.3,1.2,0.2,2.5-0.5,3.6C583.5,184.8,582,185.7,580.3,185.7L580.3,185.7z"/>
			<path class="st0" d="M564.6,176.7c-0.8,0-1.7-0.2-2.4-0.6c-1.1-0.6-1.9-1.7-2.2-2.9c-0.3-1.2-0.2-2.5,0.5-3.6
				c0.9-1.5,2.4-2.4,4.1-2.4c0.8,0,1.7,0.2,2.4,0.6c2.3,1.3,3.1,4.3,1.8,6.5C567.9,175.8,566.3,176.7,564.6,176.7L564.6,176.7z"/>
			<path class="st0" d="M548.9,167.6c-0.8,0-1.7-0.2-2.4-0.6c-1.1-0.6-1.9-1.7-2.2-2.9c-0.3-1.2-0.2-2.5,0.5-3.6
				c0.9-1.5,2.4-2.4,4.2-2.4c0.8,0,1.7,0.2,2.4,0.6c1.1,0.6,1.9,1.7,2.2,2.9c0.3,1.2,0.2,2.5-0.5,3.6
				C552.2,166.7,550.6,167.6,548.9,167.6L548.9,167.6z"/>
			<path class="st0" d="M533.2,158.6c-0.8,0-1.7-0.2-2.4-0.6c-1.1-0.6-1.9-1.7-2.2-2.9c-0.3-1.2-0.2-2.5,0.5-3.6
				c0.9-1.5,2.4-2.4,4.1-2.4c0.8,0,1.7,0.2,2.4,0.6c2.3,1.3,3.1,4.3,1.8,6.5C536.5,157.7,534.9,158.6,533.2,158.6L533.2,158.6z"/>
			<path class="st0" d="M517.5,149.5c-0.8,0-1.7-0.2-2.4-0.6c-1.1-0.6-1.9-1.7-2.2-2.9c-0.3-1.2-0.2-2.5,0.5-3.6
				c0.9-1.5,2.4-2.4,4.1-2.4c0.8,0,1.7,0.2,2.4,0.6c2.3,1.3,3.1,4.3,1.8,6.5C520.8,148.6,519.2,149.5,517.5,149.5L517.5,149.5z"/>
			<path class="st0" d="M501.8,140.5c-0.8,0-1.7-0.2-2.4-0.6c-1.1-0.6-1.9-1.7-2.2-2.9c-0.3-1.2-0.2-2.5,0.5-3.6
				c0.9-1.5,2.4-2.4,4.2-2.4c0.8,0,1.7,0.2,2.4,0.6c1.1,0.6,1.9,1.7,2.2,2.9c0.3,1.2,0.2,2.5-0.5,3.6
				C505.2,139.6,503.6,140.5,501.8,140.5L501.8,140.5z"/>
			<path class="st0" d="M486.2,131.4c-0.8,0-1.7-0.2-2.4-0.6c-1.1-0.6-1.9-1.7-2.2-2.9c-0.3-1.2-0.2-2.5,0.5-3.6
				c0.9-1.5,2.4-2.4,4.1-2.4c0.8,0,1.7,0.2,2.4,0.6c2.3,1.3,3.1,4.3,1.7,6.5C489.5,130.5,487.9,131.4,486.2,131.4L486.2,131.4z"/>
			<path class="st0" d="M470.5,122.4c-0.8,0-1.7-0.2-2.4-0.6c-1.1-0.6-1.9-1.7-2.2-2.9c-0.3-1.2-0.2-2.5,0.5-3.6
				c0.9-1.5,2.4-2.4,4.1-2.4c0.8,0,1.7,0.2,2.4,0.6c2.3,1.3,3.1,4.3,1.8,6.5C473.8,121.4,472.2,122.4,470.5,122.4L470.5,122.4z"/>
			<path class="st0" d="M344.6,811.1c-0.8,0-1.7-0.2-2.4-0.6c-1.1-0.6-1.9-1.7-2.2-2.9c-0.3-1.2-0.2-2.5,0.5-3.6
				c0.9-1.5,2.4-2.4,4.2-2.4c0.8,0,1.7,0.2,2.4,0.6c2.3,1.3,3.1,4.3,1.7,6.5C347.9,810.2,346.3,811.1,344.6,811.1L344.6,811.1z"/>
			<path class="st0" d="M329,802c-0.8,0-1.7-0.2-2.4-0.6c-1.1-0.6-1.9-1.7-2.2-2.9c-0.3-1.2-0.2-2.5,0.5-3.6
				c0.9-1.5,2.4-2.4,4.1-2.4c0.8,0,1.7,0.2,2.4,0.6c2.3,1.3,3.1,4.3,1.7,6.5C332.3,801.1,330.7,802,329,802L329,802z"/>
			<path class="st0" d="M313.3,793c-0.8,0-1.7-0.2-2.4-0.6c-2.3-1.3-3.1-4.3-1.7-6.5c0.9-1.5,2.4-2.4,4.1-2.4c0.8,0,1.7,0.2,2.4,0.6
				c1.1,0.6,1.9,1.7,2.2,2.9c0.3,1.2,0.2,2.5-0.5,3.6C316.6,792,315,793,313.3,793L313.3,793z"/>
			<path class="st0" d="M297.6,783.9c-0.8,0-1.7-0.2-2.4-0.6c-1.1-0.6-1.9-1.7-2.2-2.9c-0.3-1.2-0.2-2.5,0.5-3.6
				c0.9-1.5,2.4-2.4,4.1-2.4c0.8,0,1.7,0.2,2.4,0.6c2.3,1.3,3.1,4.3,1.8,6.5C300.9,783,299.3,783.9,297.6,783.9L297.6,783.9z"/>
			<path class="st0" d="M281.9,774.9c-0.8,0-1.7-0.2-2.4-0.6c-1.1-0.6-1.9-1.7-2.2-2.9c-0.3-1.2-0.2-2.5,0.5-3.6
				c0.9-1.5,2.4-2.4,4.2-2.4c0.8,0,1.7,0.2,2.4,0.6c1.1,0.6,1.9,1.7,2.2,2.9c0.3,1.2,0.2,2.5-0.5,3.6
				C285.2,773.9,283.6,774.9,281.9,774.9C281.9,774.9,281.9,774.9,281.9,774.9z"/>
			<path class="st0" d="M266.2,765.8c-0.8,0-1.7-0.2-2.4-0.6c-2.3-1.3-3.1-4.3-1.7-6.5c0.9-1.5,2.4-2.4,4.2-2.4
				c0.8,0,1.7,0.2,2.4,0.6c1.1,0.6,1.9,1.7,2.2,2.9c0.3,1.2,0.2,2.5-0.5,3.6C269.5,764.9,267.9,765.8,266.2,765.8L266.2,765.8z"/>
			<path class="st0" d="M250.6,756.8c-0.8,0-1.7-0.2-2.4-0.6c-2.3-1.3-3.1-4.3-1.7-6.5c0.9-1.5,2.4-2.4,4.1-2.4
				c0.8,0,1.7,0.2,2.4,0.6c1.1,0.6,1.9,1.7,2.2,2.9c0.3,1.2,0.2,2.5-0.5,3.6C253.9,755.8,252.3,756.8,250.6,756.8L250.6,756.8z"/>
			<path class="st0" d="M234.9,747.7c-0.8,0-1.7-0.2-2.4-0.6c-1.1-0.6-1.9-1.7-2.2-2.9c-0.3-1.2-0.2-2.5,0.5-3.6
				c0.9-1.5,2.4-2.4,4.1-2.4c0.8,0,1.7,0.2,2.4,0.6c2.3,1.3,3.1,4.3,1.8,6.5C238.2,746.8,236.6,747.7,234.9,747.7L234.9,747.7z"/>
			<path class="st0" d="M219.2,738.6c-0.8,0-1.7-0.2-2.4-0.6c-1.1-0.6-1.9-1.7-2.2-2.9c-0.3-1.2-0.2-2.5,0.5-3.6
				c0.9-1.5,2.4-2.4,4.2-2.4c0.8,0,1.7,0.2,2.4,0.6c2.3,1.3,3.1,4.3,1.7,6.5C222.5,737.7,220.9,738.6,219.2,738.6L219.2,738.6z"/>
			<path class="st0" d="M203.5,729.6c-0.8,0-1.7-0.2-2.4-0.6c-2.3-1.3-3.1-4.3-1.7-6.5c0.9-1.5,2.4-2.4,4.1-2.4
				c0.8,0,1.7,0.2,2.4,0.6c2.3,1.3,3.1,4.3,1.8,6.5C206.8,728.7,205.2,729.6,203.5,729.6L203.5,729.6z"/>
			<path class="st0" d="M187.8,720.5c-0.8,0-1.7-0.2-2.4-0.6c-2.3-1.3-3.1-4.3-1.8-6.5c0.9-1.5,2.4-2.4,4.1-2.4
				c0.8,0,1.7,0.2,2.4,0.6c2.3,1.3,3.1,4.3,1.8,6.5C191.1,719.6,189.6,720.5,187.8,720.5L187.8,720.5z"/>
			<path class="st0" d="M172.2,711.5c-0.8,0-1.7-0.2-2.4-0.6c-1.1-0.6-1.9-1.7-2.2-2.9c-0.3-1.2-0.2-2.5,0.5-3.6
				c0.9-1.5,2.4-2.4,4.1-2.4c0.8,0,1.7,0.2,2.4,0.6c2.3,1.3,3.1,4.3,1.8,6.5C175.5,710.6,173.9,711.5,172.2,711.5L172.2,711.5z"/>
			<path class="st0" d="M156.5,702.4c-0.8,0-1.7-0.2-2.4-0.6c-1.1-0.6-1.9-1.7-2.2-2.9c-0.3-1.2-0.2-2.5,0.5-3.6
				c0.9-1.5,2.4-2.4,4.1-2.4c0.8,0,1.7,0.2,2.4,0.6c2.3,1.3,3.1,4.3,1.7,6.5C159.8,701.5,158.2,702.4,156.5,702.4L156.5,702.4z"/>
			<path class="st0" d="M140.8,693.4c-0.8,0-1.7-0.2-2.4-0.6c-2.3-1.3-3.1-4.3-1.7-6.5c0.9-1.5,2.4-2.4,4.1-2.4
				c0.8,0,1.7,0.2,2.4,0.6c1.1,0.6,1.9,1.7,2.2,2.9c0.3,1.2,0.2,2.5-0.5,3.6C144.1,692.5,142.5,693.4,140.8,693.4L140.8,693.4z"/>
		</g>
	</g>
	<path class="st1" d="M611.9,460.9c0,112.5-91.2,203.6-203.6,203.6c-112.5,0-203.6-91.2-203.6-203.6c0-112.5,91.2-203.6,203.6-203.6
		C520.7,257.3,611.9,348.4,611.9,460.9z"/>
	<path class="st2" d="M468.5,81.2c0,33.6-27.3,60.9-60.9,60.9c-33.6,0-60.9-27.3-60.9-60.9c0-33.6,27.3-60.9,60.9-60.9
		C441.2,20.3,468.5,47.6,468.5,81.2z"/>
	<ellipse cx="77.9" cy="271.6" rx="60.9" ry="60.9"/>
	<path class="st3" d="M138.8,652.3c0,33.6-27.3,60.9-60.9,60.9c-33.6,0-60.9-27.3-60.9-60.9c0-33.6,27.3-60.9,60.9-60.9
		C111.5,591.4,138.8,618.6,138.8,652.3z"/>
	<path d="M468.5,842.6c0,33.6-27.3,60.9-60.9,60.9c-33.6,0-60.9-27.3-60.9-60.9s27.3-60.9,60.9-60.9
		C441.2,781.7,468.5,809,468.5,842.6z"/>
	<path class="st2" d="M798.2,652.3c0,33.6-27.3,60.9-60.9,60.9c-33.6,0-60.9-27.3-60.9-60.9c0-33.6,27.3-60.9,60.9-60.9
		C770.9,591.4,798.2,618.6,798.2,652.3z"/>
	<path class="st3" d="M798.2,271.6c0,33.6-27.3,60.9-60.9,60.9c-33.6,0-60.9-27.3-60.9-60.9c0-33.6,27.3-60.9,60.9-60.9
		C770.9,210.7,798.2,237.9,798.2,271.6z"/>
	<g>
		<g>
			<path class="st4" d="M296.7,391.8c0.1-0.1,0.2-0.3,0.3-0.4"/>
			<path class="st5" d="M297.5,390.5c23.3-36.5,64.1-60.8,110.7-60.8c72.4,0,131.1,58.7,131.1,131.1c0,72.4-58.7,131.1-131.1,131.1
				c-72.1,0-130.6-58.2-131.1-130.1"/>
			<path class="st4" d="M277.1,461.4c0-0.2,0-0.3,0-0.5"/>
		</g>
	</g>
	<path class="st6" d="M371.7,602.1c-46.4-12.2-85.6-47.5-100.7-96.7c-23.3-75.8,19.3-156,95.1-179.3s156,19.3,179.3,95.1
		s-19.3,156-95.1,179.3"/>
	<path class="st6" d="M402.6,344.5c38.9-1.8,77.9,15.9,101.6,50.3c36.5,53,23.1,125.6-29.9,162.1c-53,36.5-125.6,23.1-162.1-29.9
		c-36.5-53-23.1-125.6,29.9-162.1"/>
	<circle class="st7" cx="349.4" cy="349" r="31.2"/>
	<circle class="st7" cx="339.9" cy="574.8" r="31.2"/>
	<circle class="st7" cx="538" cy="453.1" r="31.2"/>
</g>
</svg>
