<?xml version="1.0" encoding="utf-8"?>
<!-- Generator: Adobe Illustrator 22.1.0, SVG Export Plug-In . SVG Version: 6.00 Build 0)  -->
<svg version="1.1" id="Layer_1" xmlns="http://www.w3.org/2000/svg" xmlns:xlink="http://www.w3.org/1999/xlink" x="0px" y="0px"
	 viewBox="0 0 823 925" style="enable-background:new 0 0 823 925;" xml:space="preserve">
<style type="text/css">
	.st0{fill:#5E5E5E;}
	.st1{fill:#242D3C;}
	.st2{fill:#C4C4C4;}
	.st3{fill:#7990AE;}
	.st4{fill:none;stroke:#7990AE;stroke-width:3;stroke-linecap:round;stroke-linejoin:round;stroke-miterlimit:10;}
	.st5{fill:#FFFFFF;}
	.st6{font-family:'Arial-Black';}
	.st7{font-size:190.7971px;}
</style>
<g>
	<g>
		<g>
			<rect x="121.2" y="347.2" class="st0" width="21.1" height="21.1"/>
			<rect x="216.1" y="347.2" class="st0" width="21.1" height="21.1"/>
			<rect x="121.2" y="557.5" class="st0" width="21.1" height="21.1"/>
			<rect x="216.1" y="557.5" class="st0" width="21.1" height="21.1"/>
			<rect x="581.3" y="347.2" class="st0" width="21.1" height="21.1"/>
			<rect x="676.1" y="347.2" class="st0" width="21.1" height="21.1"/>
			<rect x="581.3" y="557.5" class="st0" width="21.1" height="21.1"/>
			<rect x="676.1" y="557.5" class="st0" width="21.1" height="21.1"/>
		</g>
		<g>
			<rect x="406" y="153.2" class="st0" width="6.3" height="197.2"/>
			<rect x="406" y="575.2" class="st0" width="6.3" height="197.2"/>
			<rect x="128.6" y="294.6" class="st0" width="6.3" height="52.6"/>
			<rect x="128.6" y="578.6" class="st0" width="6.3" height="52.6"/>
			<rect x="683.5" y="294.6" class="st0" width="6.3" height="52.6"/>
			<rect x="602.4" y="354.5" class="st0" width="73.7" height="6.3"/>
			<rect x="602.4" y="564.9" class="st0" width="73.7" height="6.3"/>
			<rect x="142.3" y="354.5" class="st0" width="73.7" height="6.3"/>
			
				<rect x="270.7" y="340.5" transform="matrix(0.4998 -0.8661 0.8661 0.4998 -196.24 429.5992)" class="st0" width="6.3" height="88.5"/>
			
				<rect x="541.4" y="496.8" transform="matrix(0.4986 -0.8668 0.8668 0.4986 -195.9195 743.3087)" class="st0" width="6.3" height="88.5"/>
			
				<rect x="500.3" y="381.5" transform="matrix(0.8668 -0.4986 0.4986 0.8668 -119.2832 322.7727)" class="st0" width="88.5" height="6.3"/>
			
				<rect x="229.5" y="537.9" transform="matrix(0.8668 -0.4986 0.4986 0.8668 -233.2836 208.5518)" class="st0" width="88.5" height="6.3"/>
			<rect x="142.3" y="564.9" class="st0" width="73.7" height="6.3"/>
			<rect x="683.5" y="578.6" class="st0" width="6.3" height="52.6"/>
		</g>
	</g>
	<g>
		<g>
			<rect x="343.4" y="21.7" width="131.5" height="131.5"/>
			<rect x="343.4" y="772.5" width="131.5" height="131.5"/>
			<rect x="620.9" y="163.1" width="131.5" height="131.5"/>
			<rect x="620.9" y="631.1" width="131.5" height="131.5"/>
			<rect x="66" y="163.1" width="131.5" height="131.5"/>
			<rect x="66" y="631.1" width="131.5" height="131.5"/>
		</g>
	</g>
	<rect x="724.3" y="400.4" class="st0" width="56.1" height="56.1"/>
	<rect x="42.7" y="428.4" class="st1" width="46.6" height="46.6"/>
	<rect x="166.7" y="666.1" class="st2" width="61.6" height="61.6"/>
	<path class="st3" d="M585.4,484.7c0,94.9-76.9,171.8-171.8,171.8s-171.8-76.9-171.8-171.8c0-94.9,76.9-171.8,171.8-171.8
		S585.4,389.8,585.4,484.7z"/>
	<path class="st4" d="M365.2,308.9c97.2-26.8,197.7,30.3,224.5,127.5c26.8,97.2-30.3,197.7-127.5,224.5s-197.7-30.3-224.5-127.5
		c-16.7-60.8-0.7-122.8,37.4-167.3"/>
	<path class="st4" d="M545.9,344.3c77.6,73,81.2,195.1,8.2,272.6c-73,77.6-195.1,81.2-272.6,8.2c-77.6-73-81.2-195.1-8.2-272.6
		c45.6-48.5,110.4-68.1,171.5-58.2"/>
	<text transform="matrix(1 0 0 1 331.1323 559.7385)" class="st5 st6 st7">N</text>
	
		<rect x="434.8" y="254.7" transform="matrix(0.9112 -0.4119 0.4119 0.9112 -72.3085 211.0108)" class="st2" width="37.2" height="37.2"/>
	
		<rect x="544.6" y="319.2" transform="matrix(0.1523 -0.9883 0.9883 0.1523 144.2521 834.8878)" class="st2" width="28.4" height="28.4"/>
</g>
</svg>
