<svg enable-background="new 0 0 823 925" viewBox="0 0 823 925" xmlns="http://www.w3.org/2000/svg"><path d="m258.6 156.9h113.9v646.3h-113.9z"/><path d="m123.8 412.7h102.7v390.5h-102.7z" fill="#4f4f4f"/><path d="m342 99.8h154v703.4h-154z" fill="#e6e5e5"/><path d="m539.3 10h118.7v793.2h-118.7z" fill="#2d2d2d"/><path d="m460.7 297.1h101.1v506.1h-101.1z" fill="#afafaf"/><path d="m372.5 600.7h150.8v202.5h-150.8z" fill="#afafaf"/><path d="m200.8 445.1h105.9v358.1h-105.9z"/><path d="m61.2 500.2h77v303h-77z" fill="#afafaf"/><path d="m636.1 283.1h133.4v520.1h-133.4z" fill="#afafaf"/><circle cx="447.9" cy="651.7" fill="#fff" r="263.6"/><g style="fill:none;stroke:#7990ae;stroke-width:3;stroke-linecap:round;stroke-linejoin:round;stroke-miterlimit:10"><path d="m302 462.9c40.3-31.2 91-49.8 145.9-49.8 131.8 0 238.6 106.8 238.6 238.6s-106.8 238.6-238.6 238.6-238.6-106.8-238.6-238.6c0-36.7 8.3-71.5 23.1-102.6"/><path d="m538.8 441.4c44.9 19.4 84 53.3 109.5 99.5 61.1 110.7 20.9 249.9-89.8 311s-249.9 20.9-311-89.8-20.9-249.9 89.8-311c30.8-17 63.9-26.2 96.9-28.1"/><path d="m394.1 409.6c51.7-11.5 107.5-6.6 159.2 17.6 123.9 58.2 177.2 205.9 119 329.8s-205.9 177.2-329.8 119-177.2-205.9-119-329.8c16.2-34.5 39.4-63.6 67-86.2"/></g><path d="m600.2 804.1c-39 39-92.9 63.1-152.4 63.1-119 0-215.5-96.5-215.5-215.5 0-89.8 54.9-166.8 133-199.1l82.4 199.1z" fill="#7990ae"/><path d="m663.4 651.7h-215.5v-215.5c119 0 215.5 96.5 215.5 215.5z"/><path d="m663.4 651.7c0 59.5-24.1 113.4-63.1 152.4l-152.4-152.4z" fill="#2d2d2d"/><path d="m447.8 436.2v215.5l-82.4-199.1c25.4-10.6 53.3-16.4 82.4-16.4z" fill="#afafaf"/><text fill="#fff" font-family="'Arial-Black'" font-size="240.3443" transform="translate(350.0898 748.9678)">N</text></svg>