<?xml version="1.0" encoding="UTF-8"?>
<svg width="829px" height="829px" viewBox="0 0 829 829" version="1.1" xmlns="http://www.w3.org/2000/svg" xmlns:xlink="http://www.w3.org/1999/xlink">
    <!-- Generator: Sketch 51.2 (57519) - http://www.bohemiancoding.com/sketch -->
    <title>Group 7</title>
    <desc>Created with Sketch.</desc>
    <defs></defs>
    <g id="Page-2" stroke="none" stroke-width="1" fill="none" fill-rule="evenodd">
        <g id="Group-7" transform="translate(-16.000000, -16.000000)">
            <circle id="Oval-3-Copy-3" fill="#7490B1" transform="translate(430.484964, 115.484964) rotate(11.000000) translate(-430.484964, -115.484964) " cx="430.484964" cy="115.484964" r="98.5"></circle>
            <circle id="Oval-3-Copy-4" fill="#7490B1" transform="translate(430.484964, 745.515036) rotate(11.000000) translate(-430.484964, -745.515036) " cx="430.484964" cy="745.515036" r="98.5"></circle>
            <g id="Group-4" transform="translate(430.500000, 430.500000) rotate(-270.000000) translate(-430.500000, -430.500000) translate(315.000000, 0.000000)" fill="#7490B1">
                <circle id="Oval-3-Copy-3" transform="translate(115.484964, 115.484964) rotate(11.000000) translate(-115.484964, -115.484964) " cx="115.484964" cy="115.484964" r="98.5"></circle>
                <circle id="Oval-3-Copy-4" transform="translate(115.484964, 745.515036) rotate(11.000000) translate(-115.484964, -745.515036) " cx="115.484964" cy="745.515036" r="98.5"></circle>
            </g>
            <g id="Group-4" transform="translate(430.146447, 430.146447) rotate(-315.000000) translate(-430.146447, -430.146447) translate(314.146447, -0.353553)" fill="#7490B1">
                <circle id="Oval-3-Copy-3" transform="translate(115.987029, 115.485566) rotate(11.000000) translate(-115.987029, -115.485566) " cx="115.987029" cy="115.485566" r="98.5"></circle>
                <circle id="Oval-3-Copy-4" transform="translate(116.484964, 745.515036) rotate(11.000000) translate(-116.484964, -745.515036) " cx="116.484964" cy="745.515036" r="98.5"></circle>
            </g>
            <g id="Group-4" transform="translate(430.500000, 430.500000) rotate(-225.000000) translate(-430.500000, -430.500000) translate(315.000000, 0.000000)" fill="#7490B1">
                <circle id="Oval-3-Copy-3" transform="translate(115.484964, 115.484964) rotate(11.000000) translate(-115.484964, -115.484964) " cx="115.484964" cy="115.484964" r="98.5"></circle>
                <circle id="Oval-3-Copy-4" transform="translate(115.484964, 745.515036) rotate(11.000000) translate(-115.484964, -745.515036) " cx="115.484964" cy="745.515036" r="98.5"></circle>
            </g>
            <circle id="Oval-4" stroke="#7490B1" stroke-width="2" fill="#D7E0E9" cx="433" cy="431" r="152"></circle>
            <circle id="Path" stroke="#7490B1" fill="#FFFFFF" cx="374.5" cy="396.5" r="52.5"></circle>
            <circle id="Path-Copy" stroke="#7490B1" fill="#FFFFFF" cx="432.5" cy="494.5" r="52.5"></circle>
            <circle id="Path-Copy-2" stroke="#7490B1" fill="#FFFFFF" cx="491.5" cy="396.5" r="52.5"></circle>
            <g id="Group-6" transform="translate(265.000000, 278.000000)" fill="#7490B1" fill-rule="nonzero">
                <g id="Group-5">
                    <path id="Line" d="M57.7468421,48 L64.4634403,33.8618492 L50.4662803,34.143831 L57.7468421,48 Z M15.1572643,1.50026969 C27.3220299,-0.436918783 37.5574743,3.24816479 45.9778718,12.6023489 C51.7583274,19.0238326 55.260893,26.5404596 56.4957109,35.1759414 L56.6372646,36.165872 L58.6171257,35.8827646 L58.4755721,34.8928341 C57.1847226,25.8655052 53.5109282,17.9814154 47.4643312,11.2642762 C38.5931629,1.40933274 27.6812063,-2.51931661 14.8427357,-0.47484342 L13.8551792,-0.317579135 L14.1697077,1.65753397 L15.1572643,1.50026969 Z"></path>
                    <path id="Line" d="M42.7468421,59 L49.4634403,44.8618492 L35.4662803,45.143831 L42.7468421,59 Z M0.157264284,12.5002697 C12.3220299,10.5630812 22.5574743,14.2481648 30.9778718,23.6023489 C36.7583274,30.0238326 40.260893,37.5404596 41.4957109,46.1759414 L41.6372646,47.165872 L43.6171257,46.8827646 L43.4755721,45.8928341 C42.1847226,36.8655052 38.5109282,28.9814154 32.4643312,22.2642762 C23.5931629,12.4093327 12.6812063,8.48068339 -0.157264284,10.5251566 L-1.14482084,10.6824209 L-0.830292268,12.657534 L0.157264284,12.5002697 Z"></path>
                </g>
            </g>
            <g id="Group-6-Copy-4" transform="translate(532.731493, 532.000000)" fill="#7490B1" fill-rule="nonzero">
                <g id="Group-5">
                    <path id="Line" d="M57.7468421,48 L64.4634403,33.8618492 L50.4662803,34.143831 L57.7468421,48 Z M15.1572643,1.50026969 C27.3220299,-0.436918783 37.5574743,3.24816479 45.9778718,12.6023489 C51.7583274,19.0238326 55.260893,26.5404596 56.4957109,35.1759414 L56.6372646,36.165872 L58.6171257,35.8827646 L58.4755721,34.8928341 C57.1847226,25.8655052 53.5109282,17.9814154 47.4643312,11.2642762 C38.5931629,1.40933274 27.6812063,-2.51931661 14.8427357,-0.47484342 L13.8551792,-0.317579135 L14.1697077,1.65753397 L15.1572643,1.50026969 Z"></path>
                    <path id="Line" d="M42.7468421,59 L49.4634403,44.8618492 L35.4662803,45.143831 L42.7468421,59 Z M0.157264284,12.5002697 C12.3220299,10.5630812 22.5574743,14.2481648 30.9778718,23.6023489 C36.7583274,30.0238326 40.260893,37.5404596 41.4957109,46.1759414 L41.6372646,47.165872 L43.6171257,46.8827646 L43.4755721,45.8928341 C42.1847226,36.8655052 38.5109282,28.9814154 32.4643312,22.2642762 C23.5931629,12.4093327 12.6812063,8.48068339 -0.157264284,10.5251566 L-1.14482084,10.6824209 L-0.830292268,12.657534 L0.157264284,12.5002697 Z"></path>
                </g>
            </g>
            <g id="Group-6-Copy" transform="translate(300.500000, 559.000000) rotate(-90.000000) translate(-300.500000, -559.000000) translate(271.500000, 529.500000)" fill="#7490B1" fill-rule="nonzero">
                <g id="Group-5">
                    <path id="Line" d="M57.7468421,48 L64.4634403,33.8618492 L50.4662803,34.143831 L57.7468421,48 Z M15.1572643,1.50026969 C27.3220299,-0.436918783 37.5574743,3.24816479 45.9778718,12.6023489 C51.7583274,19.0238326 55.260893,26.5404596 56.4957109,35.1759414 L56.6372646,36.165872 L58.6171257,35.8827646 L58.4755721,34.8928341 C57.1847226,25.8655052 53.5109282,17.9814154 47.4643312,11.2642762 C38.5931629,1.40933274 27.6812063,-2.51931661 14.8427357,-0.47484342 L13.8551792,-0.317579135 L14.1697077,1.65753397 L15.1572643,1.50026969 Z"></path>
                    <path id="Line" d="M42.7468421,59 L49.4634403,44.8618492 L35.4662803,45.143831 L42.7468421,59 Z M0.157264284,12.5002697 C12.3220299,10.5630812 22.5574743,14.2481648 30.9778718,23.6023489 C36.7583274,30.0238326 40.260893,37.5404596 41.4957109,46.1759414 L41.6372646,47.165872 L43.6171257,46.8827646 L43.4755721,45.8928341 C42.1847226,36.8655052 38.5109282,28.9814154 32.4643312,22.2642762 C23.5931629,12.4093327 12.6812063,8.48068339 -0.157264284,10.5251566 L-1.14482084,10.6824209 L-0.830292268,12.657534 L0.157264284,12.5002697 Z"></path>
                </g>
            </g>
            <g id="Group-6-Copy-5" transform="translate(565.500000, 303.000000) rotate(-90.000000) translate(-565.500000, -303.000000) translate(536.500000, 273.500000)" fill="#7490B1" fill-rule="nonzero">
                <g id="Group-5">
                    <path id="Line" d="M57.7468421,48 L64.4634403,33.8618492 L50.4662803,34.143831 L57.7468421,48 Z M15.1572643,1.50026969 C27.3220299,-0.436918783 37.5574743,3.24816479 45.9778718,12.6023489 C51.7583274,19.0238326 55.260893,26.5404596 56.4957109,35.1759414 L56.6372646,36.165872 L58.6171257,35.8827646 L58.4755721,34.8928341 C57.1847226,25.8655052 53.5109282,17.9814154 47.4643312,11.2642762 C38.5931629,1.40933274 27.6812063,-2.51931661 14.8427357,-0.47484342 L13.8551792,-0.317579135 L14.1697077,1.65753397 L15.1572643,1.50026969 Z"></path>
                    <path id="Line" d="M42.7468421,59 L49.4634403,44.8618492 L35.4662803,45.143831 L42.7468421,59 Z M0.157264284,12.5002697 C12.3220299,10.5630812 22.5574743,14.2481648 30.9778718,23.6023489 C36.7583274,30.0238326 40.260893,37.5404596 41.4957109,46.1759414 L41.6372646,47.165872 L43.6171257,46.8827646 L43.4755721,45.8928341 C42.1847226,36.8655052 38.5109282,28.9814154 32.4643312,22.2642762 C23.5931629,12.4093327 12.6812063,8.48068339 -0.157264284,10.5251566 L-1.14482084,10.6824209 L-0.830292268,12.657534 L0.157264284,12.5002697 Z"></path>
                </g>
            </g>
            <g id="Group-6-Copy-2" transform="translate(432.365747, 616.365747) rotate(-135.000000) translate(-432.365747, -616.365747) translate(403.365747, 586.865747)" fill="#7490B1" fill-rule="nonzero">
                <g id="Group-5">
                    <path id="Line" d="M57.7468421,48 L64.4634403,33.8618492 L50.4662803,34.143831 L57.7468421,48 Z M15.1572643,1.50026969 C27.3220299,-0.436918783 37.5574743,3.24816479 45.9778718,12.6023489 C51.7583274,19.0238326 55.260893,26.5404596 56.4957109,35.1759414 L56.6372646,36.165872 L58.6171257,35.8827646 L58.4755721,34.8928341 C57.1847226,25.8655052 53.5109282,17.9814154 47.4643312,11.2642762 C38.5931629,1.40933274 27.6812063,-2.51931661 14.8427357,-0.47484342 L13.8551792,-0.317579135 L14.1697077,1.65753397 L15.1572643,1.50026969 Z"></path>
                    <path id="Line" d="M42.7468421,59 L49.4634403,44.8618492 L35.4662803,45.143831 L42.7468421,59 Z M0.157264284,12.5002697 C12.3220299,10.5630812 22.5574743,14.2481648 30.9778718,23.6023489 C36.7583274,30.0238326 40.260893,37.5404596 41.4957109,46.1759414 L41.6372646,47.165872 L43.6171257,46.8827646 L43.4755721,45.8928341 C42.1847226,36.8655052 38.5109282,28.9814154 32.4643312,22.2642762 C23.5931629,12.4093327 12.6812063,8.48068339 -0.157264284,10.5251566 L-1.14482084,10.6824209 L-0.830292268,12.657534 L0.157264284,12.5002697 Z"></path>
                </g>
            </g>
            <g id="Group-6-Copy-3" transform="translate(432.365747, 245.365747) rotate(-135.000000) translate(-432.365747, -245.365747) translate(403.365747, 215.865747)" fill="#7490B1" fill-rule="nonzero">
                <g id="Group-5">
                    <path id="Line" d="M57.7468421,48 L64.4634403,33.8618492 L50.4662803,34.143831 L57.7468421,48 Z M15.1572643,1.50026969 C27.3220299,-0.436918783 37.5574743,3.24816479 45.9778718,12.6023489 C51.7583274,19.0238326 55.260893,26.5404596 56.4957109,35.1759414 L56.6372646,36.165872 L58.6171257,35.8827646 L58.4755721,34.8928341 C57.1847226,25.8655052 53.5109282,17.9814154 47.4643312,11.2642762 C38.5931629,1.40933274 27.6812063,-2.51931661 14.8427357,-0.47484342 L13.8551792,-0.317579135 L14.1697077,1.65753397 L15.1572643,1.50026969 Z"></path>
                    <path id="Line" d="M42.7468421,59 L49.4634403,44.8618492 L35.4662803,45.143831 L42.7468421,59 Z M0.157264284,12.5002697 C12.3220299,10.5630812 22.5574743,14.2481648 30.9778718,23.6023489 C36.7583274,30.0238326 40.260893,37.5404596 41.4957109,46.1759414 L41.6372646,47.165872 L43.6171257,46.8827646 L43.4755721,45.8928341 C42.1847226,36.8655052 38.5109282,28.9814154 32.4643312,22.2642762 C23.5931629,12.4093327 12.6812063,8.48068339 -0.157264284,10.5251566 L-1.14482084,10.6824209 L-0.830292268,12.657534 L0.157264284,12.5002697 Z"></path>
                </g>
            </g>
            <g id="Group-5" transform="translate(248.597980, 431.597980) rotate(-45.000000) translate(-248.597980, -431.597980) translate(220.597980, 403.597980)" fill="#7490B1" fill-rule="nonzero">
                <path id="Line" d="M54.8792182,44.8333249 L61.4673214,30.6348427 L47.4732944,31.043753 L54.8792182,44.8333249 Z M14.4383679,1.46684411 C25.9785535,-0.340604069 35.68546,3.09660868 43.6706806,11.8212015 C48.9643866,17.6050656 52.2419414,24.3394999 53.5141634,32.0460226 L53.6770427,33.0326686 L55.6503347,32.7069101 L55.4874554,31.7202641 C54.1520157,23.6307984 50.7012666,16.5404993 45.1460264,10.470885 C36.7098879,1.25362257 26.3336468,-2.42060138 14.1288964,-0.509067678 L13.1409405,-0.354331945 L13.450412,1.62157985 L14.4383679,1.46684411 Z"></path>
                <path id="Line" d="M40.5955861,55.3581064 L47.1836892,41.1596242 L33.1896622,41.5685346 L40.5955861,55.3581064 Z M0.154735733,11.9916257 C11.6949214,10.1841775 21.4018278,13.6213903 29.3870484,22.3459831 C34.6807545,28.1298472 37.9583093,34.8642814 39.2305313,42.5708042 L39.3934105,43.5574502 L41.3667025,43.2316917 L41.2038233,42.2450456 C39.8683836,34.1555799 36.4176344,27.0652809 30.8623942,20.9956666 C22.4262557,11.7784041 12.0500146,8.10418019 -0.154735733,10.0157139 L-1.14269163,10.1704496 L-0.833220163,12.1463614 L0.154735733,11.9916257 Z"></path>
            </g>
            <g id="Group-5-Copy" transform="translate(617.402020, 431.597980) rotate(-45.000000) translate(-617.402020, -431.597980) translate(589.402020, 403.597980)" fill="#7490B1" fill-rule="nonzero">
                <path id="Line" d="M54.8792182,44.8333249 L61.4673214,30.6348427 L47.4732944,31.043753 L54.8792182,44.8333249 Z M14.4383679,1.46684411 C25.9785535,-0.340604069 35.68546,3.09660868 43.6706806,11.8212015 C48.9643866,17.6050656 52.2419414,24.3394999 53.5141634,32.0460226 L53.6770427,33.0326686 L55.6503347,32.7069101 L55.4874554,31.7202641 C54.1520157,23.6307984 50.7012666,16.5404993 45.1460264,10.470885 C36.7098879,1.25362257 26.3336468,-2.42060138 14.1288964,-0.509067678 L13.1409405,-0.354331945 L13.450412,1.62157985 L14.4383679,1.46684411 Z"></path>
                <path id="Line" d="M40.5955861,55.3581064 L47.1836892,41.1596242 L33.1896622,41.5685346 L40.5955861,55.3581064 Z M0.154735733,11.9916257 C11.6949214,10.1841775 21.4018278,13.6213903 29.3870484,22.3459831 C34.6807545,28.1298472 37.9583093,34.8642814 39.2305313,42.5708042 L39.3934105,43.5574502 L41.3667025,43.2316917 L41.2038233,42.2450456 C39.8683836,34.1555799 36.4176344,27.0652809 30.8623942,20.9956666 C22.4262557,11.7784041 12.0500146,8.10418019 -0.154735733,10.0157139 L-1.14269163,10.1704496 L-0.833220163,12.1463614 L0.154735733,11.9916257 Z"></path>
            </g>
        </g>
    </g>
</svg>