<?xml version="1.0" encoding="UTF-8"?>
<svg width="1610px" height="115px" viewBox="0 0 1610 115" version="1.1" xmlns="http://www.w3.org/2000/svg" xmlns:xlink="http://www.w3.org/1999/xlink">
    <!-- Generator: Sketch 51.2 (57519) - http://www.bohemiancoding.com/sketch -->
    <title>Slice 3</title>
    <desc>Created with Sketch.</desc>
    <defs></defs>
    <g id="Page-2" stroke="none" stroke-width="1" fill="none" fill-rule="evenodd">
        <g id="participate-bg-top" transform="translate(0.000000, -807.000000)" fill-rule="nonzero">
            <g id="Neutral-For-Exchanges">
                <path d="M-0.000190179768,0.307025 C-0.000190179768,0.307025 401.713891,85.3839 803.759946,85.3839 C1206.47317,85.3839 1609.52159,22.000125 1609.52159,22.000125 L1609.52159,922.215675 C1609.52159,922.215675 1207.14034,819.215075 804.760702,819.215075 C402.381061,819.215075 -0.000190179768,900.999875 -0.000190179768,900.999875 L-0.000190179768,0.307025 Z" id="Shape-6-copy-3" fill="#8C8C8C"></path>
                <g id="Shape-6" transform="translate(0.000000, 21.000000)" fill="#353535">
                    <g id="path-10-link">
                        <path d="M-0.000190179768,0.999494 C-0.000190179768,0.999494 401.713891,70.999424 803.759946,70.999424 C1206.47317,70.999424 1609.52159,0.999494 1609.52159,0.999494 L1609.52159,879.999812 C1609.52159,879.999812 1207.14034,789.99965 804.760702,789.99965 C402.381061,789.99965 -0.000190179768,879.999812 -0.000190179768,879.999812 L-0.000190179768,0.999494 Z" id="path-10"></path>
                    </g>
                </g>
            </g>
        </g>
    </g>
</svg>