<svg height="73" viewBox="0 0 73 73" width="73" xmlns="http://www.w3.org/2000/svg"><g fill="none" fill-rule="evenodd" transform="translate(1 1)"><path d="m68.271.5h-27.062c-1.23 0-2.933.706-3.805 1.576l-36.249 36.248c-.87.87-.87 2.28 0 3.153l28.369 28.365c.87.871 2.281.871 3.151 0l36.249-36.246c.87-.871 1.576-2.575 1.576-3.805l.001-27.062c-.001-1.23-.999-2.229-2.23-2.229z" stroke="#8c8c8c" stroke-width="3"/><path d="m47.5156 26.3359-2.251 2.251c1.899 2.619 2.385 5.547 1.273 8.041-.113.255-.422.346-.666.215l-3.553-1.906c-.245-.132-.331-.438-.271-.71.219-1.015-.373-2.325-1.66-3.613-.67-.669-2.98-2.724-4.634-1.07-1.655 1.654.4 3.965 1.068 4.636 3.838 3.836 4.267 8.563 1.069 11.762-2.783 2.781-6.725 2.814-10.228.247l-2.249 2.247c-.196.197-.515.197-.711 0l-2.139-2.139c-.197-.196-.198-.516 0-.713l2.251-2.251c-1.899-2.62-2.385-5.548-1.274-8.042.113-.252.422-.345.667-.214l3.554 1.907c.244.13.33.438.27.71-.218 1.016.372 2.324 1.66 3.612.669.669 2.98 2.724 4.634 1.07 1.654-1.653-.399-3.966-1.068-4.635-3.838-3.837-4.267-8.563-1.069-11.762 2.783-2.783 6.723-2.816 10.228-.248l2.247-2.247c.197-.196.517-.196.713 0l2.139 2.139c.197.198.197.517 0 .713" fill="#7490b1"/><path d="m62.1626 15.8032c-1.923 1.925-5.042 1.925-6.966 0-1.923-1.923-1.923-5.043 0-6.966 1.924-1.924 5.043-1.924 6.966 0 1.925 1.922 1.923 5.043 0 6.966z" stroke="#8c8c8c" stroke-width="3"/></g></svg>