<svg enable-background="new 0 0 823 925" viewBox="0 0 823 925" xmlns="http://www.w3.org/2000/svg"><g fill="#242d3c"><ellipse cx="77.9" cy="344.3" rx="4.8" ry="4.8"/><ellipse cx="77.9" cy="362.4" rx="4.8" ry="4.8"/><ellipse cx="77.9" cy="380.5" rx="4.8" ry="4.8"/><path d="m77.9 403.4c-2.6 0-4.8-2.1-4.8-4.8 0-2.6 2.1-4.8 4.8-4.8 2.6 0 4.8 2.1 4.8 4.8 0 2.6-2.2 4.8-4.8 4.8z"/><ellipse cx="77.9" cy="416.7" rx="4.8" ry="4.8"/><path d="m77.9 439.6c-2.6 0-4.8-2.1-4.8-4.8 0-2.6 2.1-4.8 4.8-4.8 2.6 0 4.8 2.1 4.8 4.8 0 2.6-2.2 4.8-4.8 4.8z"/><ellipse cx="77.9" cy="452.9" rx="4.8" ry="4.8"/><ellipse cx="77.9" cy="471" rx="4.8" ry="4.8"/><ellipse cx="77.9" cy="489.1" rx="4.8" ry="4.8"/><ellipse cx="77.9" cy="507.2" rx="4.8" ry="4.8"/><path d="m77.9 530.1c-2.6 0-4.8-2.1-4.8-4.8 0-2.6 2.1-4.8 4.8-4.8 2.6 0 4.8 2.1 4.8 4.8s-2.2 4.8-4.8 4.8z"/><ellipse cx="77.9" cy="543.4" rx="4.8" ry="4.8"/><ellipse cx="77.9" cy="561.5" rx="4.8" ry="4.8"/><ellipse cx="77.9" cy="579.6" rx="4.8" ry="4.8"/><path d="m407.6 158.2c-2.6 0-4.8-2.1-4.8-4.8s2.1-4.8 4.8-4.8c2.6 0 4.8 2.1 4.8 4.8s-2.2 4.8-4.8 4.8z"/><path d="m407.6 176.3c-2.6 0-4.8-2.1-4.8-4.8 0-2.6 2.1-4.8 4.8-4.8 2.6 0 4.8 2.1 4.8 4.8s-2.2 4.8-4.8 4.8z"/><path d="m407.6 194.4c-2.6 0-4.8-2.1-4.8-4.8 0-2.6 2.1-4.8 4.8-4.8 2.6 0 4.8 2.1 4.8 4.8s-2.2 4.8-4.8 4.8z"/><path d="m407.6 212.5c-2.6 0-4.8-2.1-4.8-4.8 0-2.6 2.1-4.8 4.8-4.8 2.6 0 4.8 2.1 4.8 4.8s-2.2 4.8-4.8 4.8z"/><path d="m407.6 230.6c-2.6 0-4.8-2.1-4.8-4.8s2.1-4.8 4.8-4.8c2.6 0 4.8 2.1 4.8 4.8s-2.2 4.8-4.8 4.8z"/><path d="m407.6 248.7c-2.6 0-4.8-2.1-4.8-4.8 0-2.6 2.1-4.8 4.8-4.8 2.6 0 4.8 2.1 4.8 4.8s-2.2 4.8-4.8 4.8z"/><path d="m407.6 266.9c-2.6 0-4.8-2.1-4.8-4.8 0-2.6 2.1-4.8 4.8-4.8 2.6 0 4.8 2.1 4.8 4.8 0 2.6-2.2 4.8-4.8 4.8z"/><path d="m140.4 312.5c-.8 0-1.7-.2-2.4-.6-2.3-1.3-3.1-4.3-1.7-6.5.9-1.5 2.4-2.4 4.1-2.4.8 0 1.7.2 2.4.6 1.1.6 1.9 1.7 2.2 2.9s.2 2.5-.5 3.6c-.8 1.5-2.4 2.4-4.1 2.4z"/><path d="m156.1 321.5c-.8 0-1.7-.2-2.4-.6-2.3-1.3-3.1-4.3-1.7-6.5.9-1.5 2.4-2.4 4.1-2.4.8 0 1.7.2 2.4.6 1.1.6 1.9 1.7 2.2 2.9s.2 2.5-.5 3.6c-.8 1.5-2.4 2.4-4.1 2.4z"/><path d="m171.8 330.6c-.8 0-1.7-.2-2.4-.6-1.1-.6-1.9-1.7-2.2-2.9s-.2-2.5.5-3.6c.9-1.5 2.4-2.4 4.1-2.4.8 0 1.7.2 2.4.6 2.3 1.3 3.1 4.3 1.7 6.5-.8 1.5-2.4 2.4-4.1 2.4z"/><path d="m187.5 339.6c-.8 0-1.7-.2-2.4-.6-1.1-.6-1.9-1.7-2.2-2.9s-.2-2.5.5-3.6c.9-1.5 2.4-2.4 4.1-2.4.8 0 1.7.2 2.4.6 2.3 1.3 3.1 4.3 1.8 6.5-1 1.5-2.5 2.4-4.2 2.4z"/><path d="m203.1 348.7c-.8 0-1.7-.2-2.4-.6-1.1-.6-1.9-1.7-2.2-2.9s-.2-2.5.5-3.6c.9-1.5 2.4-2.4 4.1-2.4.8 0 1.7.2 2.4.6 2.3 1.3 3.1 4.3 1.7 6.5-.8 1.5-2.4 2.4-4.1 2.4z"/><path d="m218.8 357.7c-.8 0-1.7-.2-2.4-.6-2.3-1.3-3.1-4.3-1.8-6.5.9-1.5 2.4-2.4 4.2-2.4.8 0 1.7.2 2.4.6 1.1.6 1.9 1.7 2.2 2.9s.2 2.5-.5 3.6c-.8 1.5-2.4 2.4-4.1 2.4z"/><path d="m234.5 366.8c-.8 0-1.7-.2-2.4-.6-1.1-.6-1.9-1.7-2.2-2.9s-.2-2.5.5-3.6c.9-1.5 2.4-2.4 4.1-2.4.8 0 1.7.2 2.4.6 2.3 1.3 3.1 4.3 1.8 6.5-.9 1.5-2.5 2.4-4.2 2.4z"/><path d="m407.6 666.5c-2.6 0-4.8-2.1-4.8-4.8 0-2.6 2.1-4.8 4.8-4.8 2.6 0 4.8 2.1 4.8 4.8s-2.2 4.8-4.8 4.8z"/><path d="m407.6 684.6c-2.6 0-4.8-2.1-4.8-4.8s2.1-4.8 4.8-4.8c2.6 0 4.8 2.1 4.8 4.8s-2.2 4.8-4.8 4.8z"/><path d="m407.6 702.7c-2.6 0-4.8-2.1-4.8-4.8s2.1-4.8 4.8-4.8c2.6 0 4.8 2.1 4.8 4.8s-2.2 4.8-4.8 4.8z"/><path d="m407.6 720.9c-2.6 0-4.8-2.1-4.8-4.8 0-2.6 2.1-4.8 4.8-4.8 2.6 0 4.8 2.1 4.8 4.8 0 2.6-2.2 4.8-4.8 4.8z"/><path d="m407.6 739c-2.6 0-4.8-2.1-4.8-4.8 0-2.6 2.1-4.8 4.8-4.8 2.6 0 4.8 2.1 4.8 4.8 0 2.6-2.2 4.8-4.8 4.8z"/><path d="m407.6 757.1c-2.6 0-4.8-2.1-4.8-4.8s2.1-4.8 4.8-4.8c2.6 0 4.8 2.1 4.8 4.8s-2.2 4.8-4.8 4.8z"/><path d="m407.6 775.2c-2.6 0-4.8-2.1-4.8-4.8 0-2.6 2.1-4.8 4.8-4.8 2.6 0 4.8 2.1 4.8 4.8 0 2.6-2.2 4.8-4.8 4.8z"/><path d="m580.6 566.6c-.8 0-1.7-.2-2.4-.6-1.1-.6-1.9-1.7-2.2-2.9s-.2-2.5.5-3.6c.9-1.5 2.4-2.4 4.1-2.4.8 0 1.7.2 2.4.6 1.1.6 1.9 1.7 2.2 2.9s.2 2.5-.5 3.6c-.8 1.5-2.4 2.4-4.1 2.4z"/><path d="m596.3 575.7c-.8 0-1.7-.2-2.4-.6-1.1-.6-1.9-1.7-2.2-2.9s-.2-2.5.5-3.6c.9-1.5 2.4-2.4 4.1-2.4.8 0 1.7.2 2.4.6 2.3 1.3 3.1 4.3 1.8 6.5-.9 1.5-2.5 2.4-4.2 2.4z"/><path d="m612 584.7c-.8 0-1.7-.2-2.4-.6-1.1-.6-1.9-1.7-2.2-2.9s-.2-2.5.5-3.6c.9-1.5 2.4-2.4 4.1-2.4.8 0 1.7.2 2.4.6 2.3 1.3 3.1 4.3 1.7 6.5-.8 1.5-2.4 2.4-4.1 2.4z"/><path d="m627.7 593.8c-.8 0-1.7-.2-2.4-.6-1.1-.6-1.9-1.7-2.2-2.9s-.2-2.5.5-3.6c.9-1.5 2.4-2.4 4.1-2.4.8 0 1.7.2 2.4.6 2.3 1.3 3.1 4.3 1.8 6.5-.9 1.5-2.5 2.4-4.2 2.4z"/><path d="m643.4 602.9c-.8 0-1.7-.2-2.4-.6-1.1-.6-1.9-1.7-2.2-2.9s-.2-2.5.5-3.6c.9-1.5 2.4-2.4 4.1-2.4.8 0 1.7.2 2.4.6 2.3 1.3 3.1 4.3 1.8 6.5-.9 1.4-2.5 2.4-4.2 2.4z"/><path d="m659 611.9c-.8 0-1.7-.2-2.4-.6-2.3-1.3-3.1-4.3-1.8-6.5.9-1.5 2.4-2.4 4.2-2.4.8 0 1.7.2 2.4.6 2.3 1.3 3.1 4.3 1.8 6.5-.9 1.5-2.5 2.4-4.2 2.4z"/><path d="m674.7 621c-.8 0-1.7-.2-2.4-.6-2.3-1.3-3.1-4.3-1.7-6.5.9-1.5 2.4-2.4 4.1-2.4.8 0 1.7.2 2.4.6 2.3 1.3 3.1 4.3 1.8 6.5-.9 1.4-2.5 2.4-4.2 2.4z"/><path d="m580.6 366.8c-1.7 0-3.3-.9-4.1-2.4-.6-1.1-.8-2.4-.5-3.6s1.1-2.3 2.2-2.9c.7-.4 1.6-.6 2.4-.6 1.7 0 3.3.9 4.1 2.4.6 1.1.8 2.4.5 3.6s-1.1 2.3-2.2 2.9c-.7.4-1.5.6-2.4.6z"/><path d="m596.3 357.7c-1.7 0-3.3-.9-4.1-2.4-.6-1.1-.8-2.4-.5-3.6s1.1-2.3 2.2-2.9c.7-.4 1.6-.6 2.4-.6 1.7 0 3.3.9 4.1 2.4 1.3 2.3.5 5.2-1.8 6.5-.6.4-1.4.6-2.3.6z"/><path d="m612 348.7c-1.7 0-3.3-.9-4.1-2.4-.6-1.1-.8-2.4-.5-3.6s1.1-2.3 2.2-2.9c.7-.4 1.5-.6 2.4-.6 1.7 0 3.3.9 4.1 2.4 1.3 2.3.5 5.2-1.7 6.5-.7.4-1.6.6-2.4.6z"/><path d="m627.7 339.6c-1.7 0-3.3-.9-4.1-2.4-.6-1.1-.8-2.4-.5-3.6s1.1-2.3 2.2-2.9c.7-.4 1.6-.6 2.4-.6 1.7 0 3.3.9 4.2 2.4 1.3 2.3.5 5.2-1.8 6.5-.8.4-1.6.6-2.4.6z"/><path d="m643.4 330.6c-1.7 0-3.3-.9-4.1-2.4-.6-1.1-.8-2.4-.5-3.6s1.1-2.3 2.2-2.9c.7-.4 1.6-.6 2.4-.6 1.7 0 3.3.9 4.1 2.4 1.3 2.3.5 5.2-1.8 6.5-.7.4-1.5.6-2.3.6z"/><path d="m659 321.5c-1.7 0-3.3-.9-4.2-2.4-1.3-2.3-.5-5.2 1.8-6.5.7-.4 1.6-.6 2.4-.6 1.7 0 3.3.9 4.1 2.4 1.3 2.3.5 5.2-1.8 6.5-.6.4-1.4.6-2.3.6z"/><path d="m674.7 312.5c-1.7 0-3.3-.9-4.1-2.4-1.3-2.3-.5-5.2 1.7-6.5.7-.4 1.6-.6 2.4-.6 1.7 0 3.3.9 4.1 2.4 1.3 2.3.5 5.2-1.8 6.5-.6.4-1.4.6-2.3.6z"/><path d="m140.4 621c-1.7 0-3.3-.9-4.1-2.4-1.3-2.3-.5-5.2 1.7-6.5.7-.4 1.6-.6 2.4-.6 1.7 0 3.3.9 4.1 2.4.6 1.1.8 2.4.5 3.6s-1.1 2.3-2.2 2.9c-.7.3-1.5.6-2.4.6z"/><path d="m156.1 611.9c-1.7 0-3.3-.9-4.2-2.4-1.3-2.3-.5-5.2 1.7-6.5.7-.4 1.6-.6 2.4-.6 1.7 0 3.3.9 4.1 2.4.6 1.1.8 2.4.5 3.6s-1.1 2.3-2.2 2.9c-.6.4-1.5.6-2.3.6z"/><path d="m171.8 602.9c-1.7 0-3.3-.9-4.1-2.4-.6-1.1-.8-2.4-.5-3.6s1.1-2.3 2.2-2.9c.7-.4 1.6-.6 2.4-.6 1.7 0 3.3.9 4.1 2.4.6 1.1.8 2.4.5 3.6s-1.1 2.3-2.2 2.9c-.8.3-1.6.6-2.4.6z"/><path d="m187.5 593.8c-1.7 0-3.3-.9-4.1-2.4-.6-1.1-.8-2.4-.5-3.6s1.1-2.3 2.2-2.9c.7-.4 1.6-.6 2.4-.6 1.7 0 3.3.9 4.1 2.4 1.3 2.3.5 5.2-1.8 6.5-.7.4-1.5.6-2.3.6z"/><path d="m203.1 584.7c-1.7 0-3.3-.9-4.2-2.4-1.3-2.3-.5-5.2 1.8-6.5.7-.4 1.6-.6 2.4-.6 1.7 0 3.3.9 4.1 2.4.6 1.1.8 2.4.5 3.6s-1.1 2.3-2.2 2.9c-.7.4-1.5.6-2.4.6z"/><path d="m218.8 575.7c-1.7 0-3.3-.9-4.2-2.4-1.3-2.3-.5-5.2 1.8-6.5.7-.4 1.5-.6 2.4-.6 1.7 0 3.3.9 4.2 2.4 1.3 2.3.5 5.2-1.8 6.5-.7.4-1.5.6-2.4.6z"/><path d="m234.5 566.6c-1.7 0-3.3-.9-4.1-2.4-.6-1.1-.8-2.4-.5-3.6s1.1-2.3 2.2-2.9c.7-.4 1.6-.6 2.4-.6 1.7 0 3.3.9 4.1 2.4 1.3 2.3.5 5.2-1.8 6.5-.6.4-1.5.6-2.3.6z"/><ellipse cx="737.2" cy="344.2" rx="4.8" ry="4.8"/><ellipse cx="737.2" cy="362.3" rx="4.8" ry="4.8"/><ellipse cx="737.2" cy="380.4" rx="4.8" ry="4.8"/><ellipse cx="737.2" cy="398.5" rx="4.8" ry="4.8"/><ellipse cx="737.2" cy="416.7" rx="4.8" ry="4.8"/><ellipse cx="737.2" cy="434.8" rx="4.8" ry="4.8"/><path d="m737.2 457.6c-2.6 0-4.8-2.1-4.8-4.8 0-2.6 2.1-4.8 4.8-4.8 2.6 0 4.8 2.1 4.8 4.8s-2.1 4.8-4.8 4.8z"/><ellipse cx="737.2" cy="471" rx="4.8" ry="4.8"/><ellipse cx="737.2" cy="489.1" rx="4.8" ry="4.8"/><path d="m737.2 512c-2.6 0-4.8-2.1-4.8-4.8 0-2.6 2.1-4.8 4.8-4.8 2.6 0 4.8 2.1 4.8 4.8 0 2.6-2.1 4.8-4.8 4.8z"/><ellipse cx="737.2" cy="525.3" rx="4.8" ry="4.8"/><ellipse cx="737.2" cy="543.4" rx="4.8" ry="4.8"/><ellipse cx="737.2" cy="561.5" rx="4.8" ry="4.8"/><ellipse cx="737.2" cy="579.6" rx="4.8" ry="4.8"/><path d="m344.7 122.4c-1.7 0-3.3-.9-4.2-2.4-.6-1.1-.8-2.4-.5-3.6s1.1-2.3 2.2-2.9c.7-.4 1.6-.6 2.4-.6 1.7 0 3.3.9 4.1 2.4 1.3 2.3.5 5.2-1.7 6.5-.7.3-1.5.6-2.3.6z"/><path d="m329 131.4c-1.7 0-3.3-.9-4.1-2.4-.6-1.1-.8-2.4-.5-3.6s1.1-2.3 2.2-2.9c.7-.4 1.6-.6 2.4-.6 1.7 0 3.3.9 4.1 2.4 1.3 2.3.5 5.2-1.7 6.5-.8.4-1.6.6-2.4.6z"/><path d="m313.3 140.5c-1.7 0-3.3-.9-4.1-2.4-1.3-2.3-.5-5.2 1.7-6.5.7-.4 1.6-.6 2.4-.6 1.7 0 3.3.9 4.2 2.4.6 1.1.8 2.4.5 3.6s-1.1 2.3-2.2 2.9c-.8.3-1.7.6-2.5.6z"/><path d="m297.6 149.5c-1.7 0-3.3-.9-4.1-2.4-.6-1.1-.8-2.4-.5-3.6s1.1-2.3 2.2-2.9c.7-.4 1.6-.6 2.4-.6 1.7 0 3.3.9 4.1 2.4 1.3 2.3.5 5.2-1.8 6.5-.6.4-1.4.6-2.3.6z"/><path d="m281.9 158.6c-1.7 0-3.3-.9-4.2-2.4-.6-1.1-.8-2.4-.5-3.6s1.1-2.3 2.2-2.9c.7-.4 1.5-.6 2.4-.6 1.7 0 3.3.9 4.1 2.4.6 1.1.8 2.4.5 3.6s-1.1 2.3-2.2 2.9c-.6.3-1.4.6-2.3.6z"/><path d="m266.3 167.6c-1.7 0-3.3-.9-4.2-2.4-1.3-2.3-.5-5.2 1.7-6.5.7-.4 1.5-.6 2.4-.6 1.7 0 3.3.9 4.2 2.4.6 1.1.8 2.4.5 3.6s-1.1 2.3-2.2 2.9c-.8.4-1.6.6-2.4.6z"/><path d="m250.6 176.7c-1.7 0-3.3-.9-4.1-2.4-1.3-2.3-.5-5.2 1.7-6.5.7-.4 1.6-.6 2.4-.6 1.7 0 3.3.9 4.2 2.4.6 1.1.8 2.4.5 3.6s-1.1 2.3-2.2 2.9c-.9.4-1.7.6-2.5.6z"/><path d="m234.9 185.7c-1.7 0-3.3-.9-4.1-2.4-.6-1.1-.8-2.4-.5-3.6s1.1-2.3 2.2-2.9c.7-.4 1.5-.6 2.4-.6 1.7 0 3.3.9 4.2 2.4 1.3 2.3.5 5.2-1.8 6.5-.7.4-1.6.6-2.4.6z"/><path d="m219.2 194.8c-1.7 0-3.3-.9-4.2-2.4-.6-1.1-.8-2.4-.5-3.6s1.1-2.3 2.2-2.9c.7-.4 1.5-.6 2.4-.6 1.7 0 3.3.9 4.1 2.4 1.3 2.3.5 5.2-1.7 6.5-.6.4-1.4.6-2.3.6z"/><path d="m203.5 203.8c-1.7 0-3.3-.9-4.1-2.4-1.3-2.3-.5-5.2 1.7-6.5.7-.4 1.6-.6 2.4-.6 1.7 0 3.3.9 4.1 2.4 1.3 2.3.5 5.2-1.8 6.5-.6.4-1.4.6-2.3.6z"/><path d="m187.9 212.9c-1.7 0-3.3-.9-4.1-2.4-1.3-2.3-.5-5.2 1.8-6.5.7-.4 1.6-.6 2.4-.6 1.7 0 3.3.9 4.1 2.4 1.3 2.3.5 5.2-1.8 6.5-.8.4-1.6.6-2.4.6z"/><path d="m172.2 221.9c-1.7 0-3.3-.9-4.1-2.4-.6-1.1-.8-2.4-.5-3.6s1.1-2.3 2.2-2.9c.7-.4 1.6-.6 2.4-.6 1.7 0 3.3.9 4.1 2.4 1.3 2.3.5 5.2-1.8 6.5-.7.4-1.5.6-2.3.6z"/><path d="m156.5 231c-1.7 0-3.3-.9-4.1-2.4-.6-1.1-.8-2.4-.5-3.6s1.1-2.3 2.2-2.9c.7-.4 1.5-.6 2.4-.6 1.7 0 3.3.9 4.1 2.4 1.3 2.3.5 5.2-1.7 6.5-.7.4-1.6.6-2.4.6z"/><path d="m140.8 240c-1.7 0-3.3-.9-4.1-2.4-1.3-2.3-.5-5.2 1.7-6.5.7-.4 1.5-.6 2.4-.6 1.7 0 3.3.9 4.2 2.4.6 1.1.8 2.4.5 3.6s-1.1 2.3-2.2 2.9c-.8.4-1.6.6-2.5.6z"/><path d="m674.3 693.4c-1.7 0-3.3-.9-4.2-2.4-.6-1.1-.8-2.4-.5-3.6s1.1-2.3 2.2-2.9c.7-.4 1.5-.6 2.4-.6 1.7 0 3.3.9 4.1 2.4.6 1.1.8 2.4.5 3.6s-1.1 2.3-2.2 2.9c-.6.4-1.4.6-2.3.6z"/><path d="m658.6 702.4c-1.7 0-3.3-.9-4.1-2.4-.6-1.1-.8-2.4-.5-3.6s1.1-2.3 2.2-2.9c.7-.4 1.6-.6 2.4-.6 1.7 0 3.3.9 4.1 2.4 1.3 2.3.5 5.2-1.7 6.5-.7.4-1.5.6-2.4.6z"/><path d="m643 711.5c-1.7 0-3.3-.9-4.1-2.4-.6-1.1-.8-2.4-.5-3.6s1.1-2.3 2.2-2.9c.7-.4 1.5-.6 2.4-.6 1.7 0 3.3.9 4.2 2.4 1.3 2.3.5 5.2-1.8 6.5-.8.4-1.6.6-2.4.6z"/><path d="m627.3 720.5c-1.7 0-3.3-.9-4.2-2.4-1.3-2.3-.5-5.2 1.8-6.5.7-.4 1.6-.6 2.4-.6 1.7 0 3.3.9 4.1 2.4.6 1.1.8 2.4.5 3.6s-1.1 2.3-2.2 2.9c-.7.4-1.6.6-2.4.6z"/><path d="m611.6 729.6c-1.7 0-3.3-.9-4.1-2.4-.6-1.1-.8-2.4-.5-3.6s1.1-2.3 2.2-2.9c.7-.4 1.6-.6 2.4-.6 1.7 0 3.3.9 4.1 2.4 1.3 2.3.5 5.2-1.7 6.5-.7.4-1.6.6-2.4.6z"/><path d="m595.9 738.6c-1.7 0-3.3-.9-4.2-2.4-.6-1.1-.8-2.4-.5-3.6s1.1-2.3 2.2-2.9c.7-.4 1.5-.6 2.4-.6 1.7 0 3.3.9 4.2 2.4.6 1.1.8 2.4.5 3.6s-1.1 2.3-2.2 2.9c-.7.4-1.5.6-2.4.6z"/><path d="m580.3 747.7c-1.7 0-3.3-.9-4.1-2.4-1.3-2.3-.5-5.2 1.7-6.5.7-.4 1.6-.6 2.4-.6 1.7 0 3.3.9 4.1 2.4.6 1.1.8 2.4.5 3.6s-1.1 2.3-2.2 2.9c-.8.4-1.6.6-2.4.6z"/><path d="m564.6 756.7c-1.7 0-3.3-.9-4.1-2.4-.6-1.1-.8-2.4-.5-3.6s1.1-2.3 2.2-2.9c.7-.4 1.5-.6 2.4-.6 1.7 0 3.3.9 4.2 2.4 1.3 2.3.5 5.2-1.8 6.5-.8.4-1.6.6-2.4.6z"/><path d="m548.9 765.8c-1.7 0-3.3-.9-4.2-2.4-.6-1.1-.8-2.4-.5-3.6s1.1-2.3 2.2-2.9c.7-.4 1.5-.6 2.4-.6 1.7 0 3.3.9 4.2 2.4.6 1.1.8 2.4.5 3.6s-1.1 2.3-2.2 2.9c-.7.4-1.6.6-2.4.6z"/><path d="m533.2 774.9c-1.7 0-3.3-.9-4.1-2.4-.6-1.1-.8-2.4-.5-3.6s1.1-2.3 2.2-2.9c.7-.4 1.6-.6 2.4-.6 1.7 0 3.3.9 4.1 2.4 1.3 2.3.5 5.2-1.8 6.5-.6.3-1.5.6-2.3.6z"/><path d="m517.5 783.9c-1.7 0-3.3-.9-4.1-2.4-.6-1.1-.8-2.4-.5-3.6s1.1-2.3 2.2-2.9c.7-.4 1.5-.6 2.4-.6 1.7 0 3.3.9 4.2 2.4 1.3 2.3.5 5.2-1.8 6.5-.7.4-1.5.6-2.4.6z"/><path d="m501.9 793c-1.7 0-3.3-.9-4.2-2.4-.6-1.1-.8-2.4-.5-3.6s1.1-2.3 2.2-2.9c.7-.4 1.5-.6 2.4-.6 1.7 0 3.3.9 4.2 2.4.6 1.1.8 2.4.5 3.6s-1.1 2.3-2.2 2.9c-.8.3-1.6.6-2.4.6z"/><path d="m486.2 802c-1.7 0-3.3-.9-4.1-2.4-.6-1.1-.8-2.4-.5-3.6s1.1-2.3 2.2-2.9c.7-.4 1.6-.6 2.4-.6 1.7 0 3.3.9 4.1 2.4 1.3 2.3.5 5.2-1.7 6.5-.8.4-1.6.6-2.4.6z"/><path d="m470.5 811.1c-1.7 0-3.3-.9-4.1-2.4-.6-1.1-.8-2.4-.5-3.6s1.1-2.3 2.2-2.9c.7-.4 1.5-.6 2.4-.6 1.7 0 3.3.9 4.2 2.4 1.3 2.3.5 5.2-1.8 6.5-.7.3-1.6.6-2.4.6z"/><path d="m674.3 240.1c-.8 0-1.7-.2-2.4-.6-1.1-.6-1.9-1.7-2.2-2.9s-.2-2.5.5-3.6c.9-1.5 2.4-2.4 4.2-2.4.8 0 1.7.2 2.4.6 1.1.6 1.9 1.7 2.2 2.9s.2 2.5-.5 3.6c-.9 1.4-2.5 2.4-4.2 2.4z"/><path d="m658.7 231c-.8 0-1.7-.2-2.4-.6-1.1-.6-1.9-1.7-2.2-2.9s-.2-2.5.5-3.6c.9-1.5 2.4-2.4 4.1-2.4.8 0 1.7.2 2.4.6 2.3 1.3 3.1 4.3 1.7 6.5-.9 1.5-2.4 2.4-4.1 2.4z"/><path d="m643 221.9c-.8 0-1.7-.2-2.4-.6-1.1-.6-1.9-1.7-2.2-2.9s-.2-2.5.5-3.6c.9-1.5 2.4-2.4 4.1-2.4.8 0 1.7.2 2.4.6 2.3 1.3 3.1 4.3 1.8 6.5-.9 1.5-2.5 2.4-4.2 2.4z"/><path d="m627.3 212.9c-.8 0-1.7-.2-2.4-.6-2.3-1.3-3.1-4.3-1.8-6.5.9-1.5 2.4-2.4 4.2-2.4.8 0 1.7.2 2.4.6 1.1.6 1.9 1.7 2.2 2.9s.2 2.5-.5 3.6c-.8 1.5-2.4 2.4-4.1 2.4z"/><path d="m611.6 203.8c-.8 0-1.7-.2-2.4-.6-1.1-.6-1.9-1.7-2.2-2.9s-.2-2.5.5-3.6c.9-1.5 2.4-2.4 4.1-2.4.8 0 1.7.2 2.4.6 2.3 1.3 3.1 4.3 1.7 6.5-.8 1.5-2.4 2.4-4.1 2.4z"/><path d="m595.9 194.8c-.8 0-1.7-.2-2.4-.6-1.1-.6-1.9-1.7-2.2-2.9s-.2-2.5.5-3.6c.9-1.5 2.4-2.4 4.2-2.4.8 0 1.7.2 2.4.6 1.1.6 1.9 1.7 2.2 2.9s.2 2.5-.5 3.6c-.9 1.5-2.5 2.4-4.2 2.4z"/><path d="m580.3 185.7c-.8 0-1.7-.2-2.4-.6-2.3-1.3-3.1-4.3-1.7-6.5.9-1.5 2.4-2.4 4.1-2.4.8 0 1.7.2 2.4.6 1.1.6 1.9 1.7 2.2 2.9s.2 2.5-.5 3.6c-.9 1.5-2.4 2.4-4.1 2.4z"/><path d="m564.6 176.7c-.8 0-1.7-.2-2.4-.6-1.1-.6-1.9-1.7-2.2-2.9s-.2-2.5.5-3.6c.9-1.5 2.4-2.4 4.1-2.4.8 0 1.7.2 2.4.6 2.3 1.3 3.1 4.3 1.8 6.5-.9 1.5-2.5 2.4-4.2 2.4z"/><path d="m548.9 167.6c-.8 0-1.7-.2-2.4-.6-1.1-.6-1.9-1.7-2.2-2.9s-.2-2.5.5-3.6c.9-1.5 2.4-2.4 4.2-2.4.8 0 1.7.2 2.4.6 1.1.6 1.9 1.7 2.2 2.9s.2 2.5-.5 3.6c-.9 1.5-2.5 2.4-4.2 2.4z"/><path d="m533.2 158.6c-.8 0-1.7-.2-2.4-.6-1.1-.6-1.9-1.7-2.2-2.9s-.2-2.5.5-3.6c.9-1.5 2.4-2.4 4.1-2.4.8 0 1.7.2 2.4.6 2.3 1.3 3.1 4.3 1.8 6.5-.9 1.5-2.5 2.4-4.2 2.4z"/><path d="m517.5 149.5c-.8 0-1.7-.2-2.4-.6-1.1-.6-1.9-1.7-2.2-2.9s-.2-2.5.5-3.6c.9-1.5 2.4-2.4 4.1-2.4.8 0 1.7.2 2.4.6 2.3 1.3 3.1 4.3 1.8 6.5-.9 1.5-2.5 2.4-4.2 2.4z"/><path d="m501.8 140.5c-.8 0-1.7-.2-2.4-.6-1.1-.6-1.9-1.7-2.2-2.9s-.2-2.5.5-3.6c.9-1.5 2.4-2.4 4.2-2.4.8 0 1.7.2 2.4.6 1.1.6 1.9 1.7 2.2 2.9s.2 2.5-.5 3.6c-.8 1.5-2.4 2.4-4.2 2.4z"/><path d="m486.2 131.4c-.8 0-1.7-.2-2.4-.6-1.1-.6-1.9-1.7-2.2-2.9s-.2-2.5.5-3.6c.9-1.5 2.4-2.4 4.1-2.4.8 0 1.7.2 2.4.6 2.3 1.3 3.1 4.3 1.7 6.5-.8 1.5-2.4 2.4-4.1 2.4z"/><path d="m470.5 122.4c-.8 0-1.7-.2-2.4-.6-1.1-.6-1.9-1.7-2.2-2.9s-.2-2.5.5-3.6c.9-1.5 2.4-2.4 4.1-2.4.8 0 1.7.2 2.4.6 2.3 1.3 3.1 4.3 1.8 6.5-.9 1.4-2.5 2.4-4.2 2.4z"/><path d="m344.6 811.1c-.8 0-1.7-.2-2.4-.6-1.1-.6-1.9-1.7-2.2-2.9s-.2-2.5.5-3.6c.9-1.5 2.4-2.4 4.2-2.4.8 0 1.7.2 2.4.6 2.3 1.3 3.1 4.3 1.7 6.5-.9 1.5-2.5 2.4-4.2 2.4z"/><path d="m329 802c-.8 0-1.7-.2-2.4-.6-1.1-.6-1.9-1.7-2.2-2.9s-.2-2.5.5-3.6c.9-1.5 2.4-2.4 4.1-2.4.8 0 1.7.2 2.4.6 2.3 1.3 3.1 4.3 1.7 6.5-.8 1.5-2.4 2.4-4.1 2.4z"/><path d="m313.3 793c-.8 0-1.7-.2-2.4-.6-2.3-1.3-3.1-4.3-1.7-6.5.9-1.5 2.4-2.4 4.1-2.4.8 0 1.7.2 2.4.6 1.1.6 1.9 1.7 2.2 2.9s.2 2.5-.5 3.6c-.8 1.4-2.4 2.4-4.1 2.4z"/><path d="m297.6 783.9c-.8 0-1.7-.2-2.4-.6-1.1-.6-1.9-1.7-2.2-2.9s-.2-2.5.5-3.6c.9-1.5 2.4-2.4 4.1-2.4.8 0 1.7.2 2.4.6 2.3 1.3 3.1 4.3 1.8 6.5-.9 1.5-2.5 2.4-4.2 2.4z"/><path d="m281.9 774.9c-.8 0-1.7-.2-2.4-.6-1.1-.6-1.9-1.7-2.2-2.9s-.2-2.5.5-3.6c.9-1.5 2.4-2.4 4.2-2.4.8 0 1.7.2 2.4.6 1.1.6 1.9 1.7 2.2 2.9s.2 2.5-.5 3.6c-.9 1.4-2.5 2.4-4.2 2.4z"/><path d="m266.2 765.8c-.8 0-1.7-.2-2.4-.6-2.3-1.3-3.1-4.3-1.7-6.5.9-1.5 2.4-2.4 4.2-2.4.8 0 1.7.2 2.4.6 1.1.6 1.9 1.7 2.2 2.9s.2 2.5-.5 3.6c-.9 1.5-2.5 2.4-4.2 2.4z"/><path d="m250.6 756.8c-.8 0-1.7-.2-2.4-.6-2.3-1.3-3.1-4.3-1.7-6.5.9-1.5 2.4-2.4 4.1-2.4.8 0 1.7.2 2.4.6 1.1.6 1.9 1.7 2.2 2.9s.2 2.5-.5 3.6c-.8 1.4-2.4 2.4-4.1 2.4z"/><path d="m234.9 747.7c-.8 0-1.7-.2-2.4-.6-1.1-.6-1.9-1.7-2.2-2.9s-.2-2.5.5-3.6c.9-1.5 2.4-2.4 4.1-2.4.8 0 1.7.2 2.4.6 2.3 1.3 3.1 4.3 1.8 6.5-.9 1.5-2.5 2.4-4.2 2.4z"/><path d="m219.2 738.6c-.8 0-1.7-.2-2.4-.6-1.1-.6-1.9-1.7-2.2-2.9s-.2-2.5.5-3.6c.9-1.5 2.4-2.4 4.2-2.4.8 0 1.7.2 2.4.6 2.3 1.3 3.1 4.3 1.7 6.5-.9 1.5-2.5 2.4-4.2 2.4z"/><path d="m203.5 729.6c-.8 0-1.7-.2-2.4-.6-2.3-1.3-3.1-4.3-1.7-6.5.9-1.5 2.4-2.4 4.1-2.4.8 0 1.7.2 2.4.6 2.3 1.3 3.1 4.3 1.8 6.5-.9 1.5-2.5 2.4-4.2 2.4z"/><path d="m187.8 720.5c-.8 0-1.7-.2-2.4-.6-2.3-1.3-3.1-4.3-1.8-6.5.9-1.5 2.4-2.4 4.1-2.4.8 0 1.7.2 2.4.6 2.3 1.3 3.1 4.3 1.8 6.5-.8 1.5-2.3 2.4-4.1 2.4z"/><path d="m172.2 711.5c-.8 0-1.7-.2-2.4-.6-1.1-.6-1.9-1.7-2.2-2.9s-.2-2.5.5-3.6c.9-1.5 2.4-2.4 4.1-2.4.8 0 1.7.2 2.4.6 2.3 1.3 3.1 4.3 1.8 6.5-.9 1.5-2.5 2.4-4.2 2.4z"/><path d="m156.5 702.4c-.8 0-1.7-.2-2.4-.6-1.1-.6-1.9-1.7-2.2-2.9s-.2-2.5.5-3.6c.9-1.5 2.4-2.4 4.1-2.4.8 0 1.7.2 2.4.6 2.3 1.3 3.1 4.3 1.7 6.5-.8 1.5-2.4 2.4-4.1 2.4z"/><path d="m140.8 693.4c-.8 0-1.7-.2-2.4-.6-2.3-1.3-3.1-4.3-1.7-6.5.9-1.5 2.4-2.4 4.1-2.4.8 0 1.7.2 2.4.6 1.1.6 1.9 1.7 2.2 2.9s.2 2.5-.5 3.6c-.8 1.5-2.4 2.4-4.1 2.4z"/></g><path d="m611.9 460.9c0 112.5-91.2 203.6-203.6 203.6-112.5 0-203.6-91.2-203.6-203.6 0-112.5 91.2-203.6 203.6-203.6s203.6 91.1 203.6 203.6z" fill="#7990ae"/><path d="m468.5 81.2c0 33.6-27.3 60.9-60.9 60.9s-60.9-27.3-60.9-60.9 27.3-60.9 60.9-60.9 60.9 27.3 60.9 60.9z" fill="#5e5e5e"/><ellipse cx="77.9" cy="271.6" rx="60.9" ry="60.9"/><path d="m138.8 652.3c0 33.6-27.3 60.9-60.9 60.9s-60.9-27.3-60.9-60.9 27.3-60.9 60.9-60.9 60.9 27.2 60.9 60.9z" fill="#c4c4c4"/><path d="m468.5 842.6c0 33.6-27.3 60.9-60.9 60.9s-60.9-27.3-60.9-60.9 27.3-60.9 60.9-60.9 60.9 27.3 60.9 60.9z"/><path d="m798.2 652.3c0 33.6-27.3 60.9-60.9 60.9s-60.9-27.3-60.9-60.9 27.3-60.9 60.9-60.9 60.9 27.2 60.9 60.9z" fill="#5e5e5e"/><path d="m798.2 271.6c0 33.6-27.3 60.9-60.9 60.9s-60.9-27.3-60.9-60.9 27.3-60.9 60.9-60.9 60.9 27.2 60.9 60.9z" fill="#c4c4c4"/><g fill="none" stroke="#fff" stroke-linecap="round" stroke-linejoin="round" stroke-width="2"><path d="m296.7 391.8c.1-.1.2-.3.3-.4"/><path d="m297.5 390.5c23.3-36.5 64.1-60.8 110.7-60.8 72.4 0 131.1 58.7 131.1 131.1s-58.7 131.1-131.1 131.1c-72.1 0-130.6-58.2-131.1-130.1" stroke-dasharray=".9989 .9989"/><path d="m277.1 461.4c0-.2 0-.3 0-.5"/><path d="m371.7 602.1c-46.4-12.2-85.6-47.5-100.7-96.7-23.3-75.8 19.3-156 95.1-179.3s156 19.3 179.3 95.1-19.3 156-95.1 179.3" stroke-miterlimit="10"/><path d="m402.6 344.5c38.9-1.8 77.9 15.9 101.6 50.3 36.5 53 23.1 125.6-29.9 162.1s-125.6 23.1-162.1-29.9-23.1-125.6 29.9-162.1" stroke-miterlimit="10"/></g><circle cx="349.4" cy="349" fill="#fff" r="31.2"/><circle cx="339.9" cy="574.8" fill="#fff" r="31.2"/><circle cx="538" cy="453.1" fill="#fff" r="31.2"/></svg>