<svg enable-background="new 0 0 823 925" viewBox="0 0 823 925" xmlns="http://www.w3.org/2000/svg"><g fill="#5e5e5e"><path d="m121.2 347.2h21.1v21.1h-21.1z"/><path d="m216.1 347.2h21.1v21.1h-21.1z"/><path d="m121.2 557.5h21.1v21.1h-21.1z"/><path d="m216.1 557.5h21.1v21.1h-21.1z"/><path d="m581.3 347.2h21.1v21.1h-21.1z"/><path d="m676.1 347.2h21.1v21.1h-21.1z"/><path d="m581.3 557.5h21.1v21.1h-21.1z"/><path d="m676.1 557.5h21.1v21.1h-21.1z"/><path d="m406 153.2h6.3v197.2h-6.3z"/><path d="m406 575.2h6.3v197.2h-6.3z"/><path d="m128.6 294.6h6.3v52.6h-6.3z"/><path d="m128.6 578.6h6.3v52.6h-6.3z"/><path d="m683.5 294.6h6.3v52.6h-6.3z"/><path d="m602.4 354.5h73.7v6.3h-73.7z"/><path d="m602.4 564.9h73.7v6.3h-73.7z"/><path d="m142.3 354.5h73.7v6.3h-73.7z"/><path d="m270.7 340.5h6.3v88.5h-6.3z" transform="matrix(.4998 -.8661 .8661 .4998 -196.24 429.5992)"/><path d="m541.4 496.8h6.3v88.5h-6.3z" transform="matrix(.4986 -.8668 .8668 .4986 -195.9195 743.3087)"/><path d="m500.3 381.5h88.5v6.3h-88.5z" transform="matrix(.8668 -.4986 .4986 .8668 -119.2832 322.7727)"/><path d="m229.5 537.9h88.5v6.3h-88.5z" transform="matrix(.8668 -.4986 .4986 .8668 -233.2836 208.5518)"/><path d="m142.3 564.9h73.7v6.3h-73.7z"/><path d="m683.5 578.6h6.3v52.6h-6.3z"/></g><path d="m343.4 21.7h131.5v131.5h-131.5z"/><path d="m343.4 772.5h131.5v131.5h-131.5z"/><path d="m620.9 163.1h131.5v131.5h-131.5z"/><path d="m620.9 631.1h131.5v131.5h-131.5z"/><path d="m66 163.1h131.5v131.5h-131.5z"/><path d="m66 631.1h131.5v131.5h-131.5z"/><path d="m724.3 400.4h56.1v56.1h-56.1z" fill="#5e5e5e"/><path d="m42.7 428.4h46.6v46.6h-46.6z" fill="#242d3c"/><path d="m166.7 666.1h61.6v61.6h-61.6z" fill="#c4c4c4"/><path d="m585.4 484.7c0 94.9-76.9 171.8-171.8 171.8s-171.8-76.9-171.8-171.8 76.9-171.8 171.8-171.8 171.8 76.9 171.8 171.8z" fill="#7990ae"/><path d="m365.2 308.9c97.2-26.8 197.7 30.3 224.5 127.5s-30.3 197.7-127.5 224.5-197.7-30.3-224.5-127.5c-16.7-60.8-.7-122.8 37.4-167.3" style="fill:none;stroke:#7990ae;stroke-width:3;stroke-linecap:round;stroke-linejoin:round;stroke-miterlimit:10"/><path d="m545.9 344.3c77.6 73 81.2 195.1 8.2 272.6-73 77.6-195.1 81.2-272.6 8.2-77.6-73-81.2-195.1-8.2-272.6 45.6-48.5 110.4-68.1 171.5-58.2" style="fill:none;stroke:#7990ae;stroke-width:3;stroke-linecap:round;stroke-linejoin:round;stroke-miterlimit:10"/><text fill="#fff" font-family="'Arial-Black'" font-size="190.7971" transform="translate(331.1323 559.7385)">N</text><g fill="#c4c4c4"><path d="m434.8 254.7h37.2v37.2h-37.2z" transform="matrix(.9112 -.4119 .4119 .9112 -72.3085 211.0108)"/><path d="m544.6 319.2h28.4v28.4h-28.4z" transform="matrix(.1523 -.9883 .9883 .1523 144.2521 834.8878)"/></g></svg>