<svg height="82" viewBox="0 0 89 82" width="89" xmlns="http://www.w3.org/2000/svg"><g fill="none" fill-rule="evenodd" transform="translate(3 3)"><g fill="#7490b1"><path d="m73.8398 39.48c-.114-1.065.658-2.021 1.723-2.135 1.066-.114 2.021.657 2.135 1.722.113 1.056-.644 2.007-1.698 2.133h-.24c-.983-.004-1.808-.743-1.92-1.72"/><path d="m29.9302 74.5898c.428-.982-.021-2.125-1.003-2.554-.982-.428-2.125.021-2.554 1.003-.427.98.018 2.12.997 2.551.235.108.491.166.75.17.784.012 1.498-.45 1.81-1.17"/><path d="m72.3901 27.53c.922-.534 1.236-1.716.702-2.638-.535-.922-1.716-1.236-2.638-.702-.922.535-1.236 1.716-.702 2.638.34.586.961.951 1.638.962.351.007.697-.083 1-.26z"/><path d="m60.8501 16.9102c.864.632 2.077.444 2.71-.42.633-.865.445-2.079-.419-2.711-.865-.634-2.079-.446-2.711.419-.634.864-.446 2.078.419 2.711 0 0 .001.001.001.001"/><path d="m41.9399 78.6802c1.071 0 1.94-.869 1.94-1.94 0-1.072-.869-1.94-1.94-1.94s-1.94.868-1.94 1.94c-.006 1.065.853 1.935 1.919 1.941.027 0 .054 0 .081-.001z"/><path d="m11.6401 27.46c.287.163.61.252.94.26 1.071.017 1.953-.838 1.97-1.909.017-1.072-.838-1.954-1.909-1.971-1.071-.016-1.954.838-1.97 1.91-.011.703.36 1.358.969 1.71"/><path d="m56.5698 75.5898c.978-.434 1.419-1.577.985-2.555-.433-.977-1.577-1.419-2.555-.985-.995.395-1.482 1.523-1.087 2.519s1.523 1.483 2.519 1.087c.05-.02.1-.042.148-.066z"/><path d="m22.0601 17.2202c1.071.016 1.953-.839 1.97-1.91.016-1.071-.839-1.953-1.91-1.97-1.072-.016-1.954.839-1.97 1.91-.007.42.123.83.37 1.17.359.494.929.79 1.54.8"/><path d="m8 41.1602h.18c1.017.037 1.89-.718 2-1.73.119-1.069-.651-2.031-1.72-2.15s-2.031.651-2.15 1.72c-.129 1.063.627 2.03 1.69 2.16"/></g><path d="m25.29 43.9199c0-9.212 7.468-16.68 16.68-16.68s16.68 7.468 16.68 16.68c0 9.201-7.45 16.664-16.65 16.68-9.212 0-16.68-7.468-16.68-16.68z" stroke="#8c8c8c" stroke-width="3"/><path d="m36.73 51.77c.898.408 1.852.681 2.83.81.76.12.79.15.8.95v1.08c-.051.35.191.675.541.726.049.007.1.008.149.004h1.59c.336.031.632-.216.663-.552.004-.046.003-.092-.003-.138v-1.48c-.064-.426.23-.823.656-.887.008-.001.016-.002.024-.003 1.09-.287 2.063-.91 2.78-1.78 1.744-2.141 1.423-5.291-.718-7.035-.279-.227-.581-.423-.902-.585-.909-.472-1.844-.893-2.8-1.26-.548-.213-1.063-.503-1.53-.86-.61-.409-.773-1.235-.365-1.845.166-.248.411-.433.695-.525.299-.12.618-.184.94-.19 1.217-.075 2.433.167 3.53.7.56.27.74.19.93-.39s.37-1.24.55-1.85c.131-.334-.034-.711-.368-.842-.017-.007-.034-.013-.052-.018-.711-.317-1.461-.538-2.23-.66-1-.16-1-.16-1-1.18 0-1.43 0-1.43-1.44-1.43h-.6c-.67 0-.79.14-.8.81v.91c0 .9 0 .88-.87 1.2-2.009.56-3.424 2.356-3.5 4.44-.084 1.822.927 3.518 2.57 4.31 1.035.547 2.104 1.028 3.2 1.44.419.176.813.408 1.17.69.721.511.892 1.509.381 2.231-.189.266-.454.468-.761.579-.649.276-1.362.369-2.06.27-1.095-.122-2.158-.441-3.14-.94-.58-.3-.75-.22-.95.41s-.32 1.09-.47 1.64c-.17.73-.17.91.58 1.25z" fill="#7490b1"/><g stroke="#8c8c8c" stroke-width="3"><path d="m42 20-10-10 10-10 10 10z"/><path d="m10 73-10-10 10-10 10 10z"/><path d="m73 73-10-10 10-10 10 10z"/></g></g></svg>