<svg height="1578" viewBox="0 0 2499 1578" width="2499" xmlns="http://www.w3.org/2000/svg"><g fill="none" fill-rule="evenodd" transform="translate(0 -12)"><g fill="#5d728b" transform="translate(0 352)"><path d="m160.6602 610.082c88.622 0 160.464 71.842 160.464 160.463 0 88.622-71.842 160.464-160.464 160.464-88.621 0-160.463-71.842-160.463-160.464 0-88.621 71.842-160.463 160.463-160.463"/><path d="m160.6602.4453c88.622 0 160.464 71.842 160.464 160.464 0 88.621-71.842 160.463-160.464 160.463-88.621 0-160.463-71.842-160.463-160.463 0-88.622 71.842-160.464 160.463-160.464"/></g><text fill="#fff" font-family="HelveticaNeue-Medium, Helvetica Neue" font-size="65.3519" font-weight="400" letter-spacing="-5.9473748"><tspan x="67" y="1146">T</tspan> <tspan letter-spacing=".065" x="93.793927" y="1146">rader</tspan></text><path d="m1451.748 563.1514c129.1 0 233.756 104.656 233.756 233.756 0 129.099-104.656 233.755-233.756 233.755s-233.756-104.656-233.756-233.755c0-129.1 104.656-233.756 233.756-233.756" fill="#aac0da"/><text fill="#fff" font-family="HelveticaNeue-Medium, Helvetica Neue" font-size="65.3519" font-weight="400" letter-spacing=".065"><tspan x="1312" y="818">Exchange</tspan></text><text fill="#fff" font-family="HelveticaNeue-Medium, Helvetica Neue" font-size="65.3519" font-weight="400" letter-spacing="-5.9473748"><tspan x="70" y="533">T</tspan> <tspan letter-spacing=".065" x="96.793927" y="533">rader</tspan></text><path d="m1187.373 797.0723c0 210.714-170.817 381.532-381.531 381.532-210.715 0-381.532-170.818-381.532-381.532s170.817-381.531 381.532-381.531c210.714 0 381.531 170.817 381.531 381.531" fill="#aac0da"/><text fill="#fff" font-family="HelveticaNeue-Medium, Helvetica Neue" font-size="48" font-weight="400" letter-spacing=".065"><tspan x="715" y="500">Neutral</tspan></text><path d="m1070.585 797.0723c0 146.214-118.53 264.743-264.743 264.743-146.214 0-264.743-118.529-264.743-264.743 0-146.213 118.529-264.743 264.743-264.743 146.213 0 264.743 118.53 264.743 264.743" fill="#7490b1"/><text fill="#fff" font-family="HelveticaNeue-Medium, Helvetica Neue" font-size="48" font-weight="400" letter-spacing=".065"><tspan x="704.6348" y="647.915736">Reserve</tspan></text><path d="m935.0166 785.5996h-258.409c-19.611 0-35.655-16.044-35.655-35.654 0-19.611 16.044-35.656 35.655-35.656h258.409c19.609 0 35.654 16.045 35.654 35.656 0 19.61-16.045 35.654-35.654 35.654" fill="#fff"/><text fill="#212121" font-family="HelveticaNeue-Medium, Helvetica Neue" font-size="34.8292" font-weight="400" letter-spacing=".065"><tspan x="683.8604" y="757.354647">A Component</tspan></text><g fill="#fff" transform="translate(641 799)"><path d="m294.0762 71.4238h-258.409c-19.611 0-35.655-16.044-35.655-35.654 0-19.611 16.044-35.656 35.655-35.656h258.409c19.609 0 35.654 16.045 35.654 35.656 0 19.61-16.045 35.654-35.654 35.654"/><path d="m294.0762 156.1484h-258.409c-19.611 0-35.655-16.045-35.655-35.654 0-19.611 16.044-35.656 35.655-35.656h258.409c19.609 0 35.654 16.045 35.654 35.656 0 19.609-16.045 35.654-35.654 35.654"/></g><text fill="#212121" font-family="HelveticaNeue-Medium, Helvetica Neue" font-size="34.8292" font-weight="400" letter-spacing=".065"><tspan x="683.8604" y="843.354647">B Component</tspan></text><text fill="#212121" font-family="HelveticaNeue-Medium, Helvetica Neue" font-size="34.8292" font-weight="400" letter-spacing=".065"><tspan x="683.8604" y="931.368035">C Component</tspan></text><path d="m2053.751 919h444.738v-248h-444.738z" fill="#7490b1"/><g font-family="HelveticaNeue-Medium, Helvetica Neue" font-weight="400" letter-spacing=".065"><text fill="#fff" font-size="65.3519"><tspan x="2117" y="820">Retail Pool</tspan></text><text fill="#212121" font-size="48"><tspan x="1740.6074" y="877.742936">Buy &amp; Hold</tspan></text><text fill="#212121" font-size="48"><tspan x="1797.5354" y="935.342936">Neutral</tspan></text><text fill="#212121" font-size="48"><tspan x="478" y="47">Buy Neutral </tspan><tspan letter-spacing=".5402" x="751.756" y="47">V</tspan> <tspan x="782.1042" y="47">ia Exchange</tspan></text><text fill="#212121" font-size="48"><tspan x="482.4794" y="1579.93494">Sell Neutral </tspan><tspan letter-spacing=".545" x="750.9724" y="1579.93494">V</tspan> <tspan x="781.3254" y="1579.93494">ia Exchange</tspan></text><text fill="#212121" font-size="30"><tspan x="395.5469" y="1134.89036">Receive</tspan></text><text fill="#212121" font-size="30"><tspan x="405.9869" y="1170.89036">Neutral</tspan></text><text fill="#212121" font-size="30"><tspan x="244.3769" y="893.90036">Deposit</tspan></text><text fill="#212121" font-size="30"><tspan x="214.6769" y="929.90036">Component</tspan></text><text fill="#212121" font-size="30"><tspan x="258.2069" y="707.90036">Redeem</tspan></text><text fill="#212121" font-size="30"><tspan x="265.0169" y="743.90036">Neutral</tspan></text><text fill="#212121" font-size="30"><tspan x="362.2169" y="444.89036">Redeem</tspan></text><text fill="#212121" font-size="30"><tspan x="335.6969" y="480.89036">Component</tspan></text></g><path d="m1720.2617 793.4883h333.238" stroke="#212121" stroke-linecap="round" stroke-linejoin="round" stroke-width="5"/><path d="m1723.7617 813.4883-20-20 20-20" fill="#212121"/><path d="m1391.2969 1052.7422 27.211-7.719 7.719 27.21" fill="#212121"/><path d="m325.0498 365.4834-28.283.292-.292-28.282" fill="#212121"/><path d="m425.5557 953.4893 20.205 19.792-19.792 20.206" fill="#212121"/><path d="m415.5557 631.4893 20.205 19.792-19.792 20.206" fill="#212121"/><path d="m365.543 1106.9082-24.201-14.64 14.639-24.201" fill="#212121"/><path d="m342.4385 576.3525-17.541-22.188 22.188-17.541" fill="#212121"/><path d="m1411.125 1055.3359c-.975 2.305-1.961 4.602-2.961 6.892" stroke="#212121" stroke-linecap="round" stroke-linejoin="round" stroke-width="5"/><path d="m1401.9502 1076.0313c-105.366 227.069-335.385 384.541-602.185 384.541-174.634 0-371.792-81.353-492.556-192.475" stroke="#212121" stroke-dasharray="15.138 15.138" stroke-linecap="round" stroke-linejoin="round" stroke-width="5"/><path d="m301.6719 1262.9316c-1.821-1.725-3.625-3.456-5.41-5.193" stroke="#212121" stroke-linecap="round" stroke-linejoin="round" stroke-width="5"/><path d="m308.1826 351.4443c121.39-133.827 296.672-217.872 491.584-217.872 264.359 0 511.842 194.439 618.495 418.166" stroke="#212121" stroke-linecap="round" stroke-linejoin="round" stroke-width="5"/><path d="m351.2617 1087.7383s2.751-.235 7.424-1.037" stroke="#212121" stroke-linecap="round" stroke-linejoin="round" stroke-width="5"/><path d="m372.2773 1083.7539c23.707-6.176 61.775-21.449 83.462-58.118" stroke="#212121" stroke-dasharray="13.913 13.913" stroke-linecap="round" stroke-linejoin="round" stroke-width="5"/><path d="m459.0898 1019.5352c1.116-2.195 2.176-4.46 3.172-6.797" stroke="#212121" stroke-linecap="round" stroke-linejoin="round" stroke-width="5"/><path d="m321.2617 1038.7383s1.659-2.188 4.797-5.762" stroke="#212121" stroke-linecap="round" stroke-linejoin="round" stroke-width="5"/><path d="m335.1992 1023.2734c16.706-16.604 47.346-41.486 85.979-48.026" stroke="#212121" stroke-dasharray="13.334 13.334" stroke-linecap="round" stroke-linejoin="round" stroke-width="5"/><path d="m427.7842 974.3203c2.464-.273 4.956-.469 7.478-.582" stroke="#212121" stroke-linecap="round" stroke-linejoin="round" stroke-width="5"/><path d="m303.4355 597.8838s49.826 58.854 121.826 52.854" stroke="#212121" stroke-linecap="round" stroke-linejoin="round" stroke-width="5"/><path d="m331.2617 555.7383s78-1 116 59" stroke="#212121" stroke-linecap="round" stroke-linejoin="round" stroke-width="5"/><path d="m902.5117 1341.4307h-193.34c-20.711 0-37.5-16.789-37.5-37.5v-7.481c0-20.711 16.789-37.5 37.5-37.5h193.34c20.71 0 37.5 16.789 37.5 37.5v7.481c0 20.711-16.79 37.5-37.5 37.5" fill="#7490b1"/><text fill="#fff" font-family="HelveticaNeue-Medium, Helvetica Neue" font-size="32.9926" font-weight="400" letter-spacing=".065"><tspan x="768.6504" y="1309.34758">Mint</tspan></text><path d="m902.5117 320.4814h-193.34c-20.711 0-37.5-16.789-37.5-37.5v-7.481c0-20.711 16.789-37.5 37.5-37.5h193.34c20.71 0 37.5 16.789 37.5 37.5v7.481c0 20.711-16.79 37.5-37.5 37.5" fill="#7490b1"/><text fill="#fff" font-family="HelveticaNeue-Medium, Helvetica Neue" font-size="32.9926" font-weight="400" letter-spacing=".065"><tspan x="711" y="289">Redemption</tspan></text></g></svg>